<?xml version="1.0" encoding="UTF-8"?>
<svg xmlns="http://www.w3.org/2000/svg" xmlns:xlink="http://www.w3.org/1999/xlink" width="288" height="288" viewBox="0 0 288 288">
<rect x="-28.8" y="-28.8" width="345.6" height="345.6" fill="rgb(100%, 100%, 100%)" fill-opacity="1"/>
<path fill-rule="nonzero" fill="rgb(100%, 100%, 100%)" fill-opacity="1" d="M 121.601562 185.902344 L 195.199219 185.902344 L 195.199219 120.527344 L 121.601562 120.527344 Z M 121.601562 185.902344 "/>
<path fill="none" stroke-width="2.25" stroke-linecap="butt" stroke-linejoin="round" stroke="rgb(0%, 0%, 0%)" stroke-opacity="1" stroke-miterlimit="10" d="M 121.601562 163.007812 L 195.199219 163.007812 "/>
<path fill="none" stroke-width="0.75" stroke-linecap="round" stroke-linejoin="round" stroke="rgb(0%, 0%, 0%)" stroke-opacity="1" stroke-dasharray="3 3" stroke-miterlimit="10" d="M 158.398438 201.601562 L 158.398438 185.902344 "/>
<path fill="none" stroke-width="0.75" stroke-linecap="round" stroke-linejoin="round" stroke="rgb(0%, 0%, 0%)" stroke-opacity="1" stroke-dasharray="3 3" stroke-miterlimit="10" d="M 158.398438 65.375 L 158.398438 120.527344 "/>
<path fill="none" stroke-width="0.75" stroke-linecap="round" stroke-linejoin="round" stroke="rgb(0%, 0%, 0%)" stroke-opacity="1" stroke-miterlimit="10" d="M 140 201.601562 L 176.800781 201.601562 "/>
<path fill="none" stroke-width="0.75" stroke-linecap="round" stroke-linejoin="round" stroke="rgb(0%, 0%, 0%)" stroke-opacity="1" stroke-miterlimit="10" d="M 140 65.375 L 176.800781 65.375 "/>
<path fill="none" stroke-width="0.75" stroke-linecap="round" stroke-linejoin="round" stroke="rgb(0%, 0%, 0%)" stroke-opacity="1" stroke-miterlimit="10" d="M 121.601562 185.902344 L 195.199219 185.902344 L 195.199219 120.527344 L 121.601562 120.527344 Z M 121.601562 185.902344 "/>
<path fill="none" stroke-width="0.75" stroke-linecap="round" stroke-linejoin="round" stroke="rgb(0%, 0%, 0%)" stroke-opacity="1" stroke-miterlimit="10" d="M 59.039062 208.800781 L 59.039062 64.800781 "/>
<path fill="none" stroke-width="0.75" stroke-linecap="round" stroke-linejoin="round" stroke="rgb(0%, 0%, 0%)" stroke-opacity="1" stroke-miterlimit="10" d="M 59.039062 208.800781 L 51.839844 208.800781 "/>
<path fill="none" stroke-width="0.75" stroke-linecap="round" stroke-linejoin="round" stroke="rgb(0%, 0%, 0%)" stroke-opacity="1" stroke-miterlimit="10" d="M 59.039062 180 L 51.839844 180 "/>
<path fill="none" stroke-width="0.75" stroke-linecap="round" stroke-linejoin="round" stroke="rgb(0%, 0%, 0%)" stroke-opacity="1" stroke-miterlimit="10" d="M 59.039062 151.199219 L 51.839844 151.199219 "/>
<path fill="none" stroke-width="0.75" stroke-linecap="round" stroke-linejoin="round" stroke="rgb(0%, 0%, 0%)" stroke-opacity="1" stroke-miterlimit="10" d="M 59.039062 122.398438 L 51.839844 122.398438 "/>
<path fill="none" stroke-width="0.75" stroke-linecap="round" stroke-linejoin="round" stroke="rgb(0%, 0%, 0%)" stroke-opacity="1" stroke-miterlimit="10" d="M 59.039062 93.601562 L 51.839844 93.601562 "/>
<path fill="none" stroke-width="0.75" stroke-linecap="round" stroke-linejoin="round" stroke="rgb(0%, 0%, 0%)" stroke-opacity="1" stroke-miterlimit="10" d="M 59.039062 64.800781 L 51.839844 64.800781 "/>
<path fill-rule="nonzero" fill="rgb(0%, 0%, 0%)" fill-opacity="1" d="M 37.628906 205.933594 L 37.863281 205.933594 L 38.089844 205.941406 L 38.308594 205.953125 L 38.519531 205.96875 L 38.726562 205.988281 L 38.921875 206.015625 L 39.109375 206.042969 L 39.292969 206.078125 L 39.464844 206.117188 L 39.632812 206.160156 L 39.792969 206.207031 L 39.945312 206.257812 L 40.089844 206.308594 L 40.230469 206.367188 L 40.367188 206.425781 L 40.492188 206.488281 L 40.617188 206.554688 L 40.730469 206.625 L 40.839844 206.699219 L 40.945312 206.777344 L 41.042969 206.855469 L 41.132812 206.9375 L 41.21875 207.019531 L 41.300781 207.109375 L 41.375 207.199219 L 41.441406 207.289062 L 41.503906 207.386719 L 41.5625 207.484375 L 41.613281 207.585938 L 41.660156 207.691406 L 41.703125 207.796875 L 41.738281 207.902344 L 41.800781 208.121094 L 41.824219 208.234375 L 41.84375 208.347656 L 41.859375 208.460938 L 41.875 208.695312 L 41.878906 208.816406 L 41.875 208.933594 L 41.867188 209.054688 L 41.859375 209.167969 L 41.84375 209.285156 L 41.824219 209.398438 L 41.800781 209.507812 L 41.769531 209.621094 L 41.738281 209.726562 L 41.703125 209.835938 L 41.660156 209.941406 L 41.613281 210.042969 L 41.5625 210.144531 L 41.503906 210.242188 L 41.441406 210.335938 L 41.375 210.425781 L 41.300781 210.515625 L 41.21875 210.605469 L 41.132812 210.6875 L 41.042969 210.769531 L 40.945312 210.847656 L 40.84375 210.921875 L 40.734375 210.992188 L 40.617188 211.0625 L 40.496094 211.128906 L 40.371094 211.1875 L 40.097656 211.304688 L 39.949219 211.355469 L 39.796875 211.40625 L 39.640625 211.453125 L 39.472656 211.492188 L 39.296875 211.53125 L 39.117188 211.5625 L 38.925781 211.589844 L 38.730469 211.613281 L 38.523438 211.632812 L 38.3125 211.648438 L 38.09375 211.660156 L 37.863281 211.664062 L 37.628906 211.667969 L 37.382812 211.664062 L 37.148438 211.660156 L 36.917969 211.648438 L 36.699219 211.632812 L 36.488281 211.613281 L 36.289062 211.589844 L 36.09375 211.5625 L 35.910156 211.53125 L 35.734375 211.492188 L 35.566406 211.453125 L 35.40625 211.40625 L 35.25 211.355469 L 35.105469 211.304688 L 34.964844 211.246094 L 34.828125 211.1875 L 34.703125 211.125 L 34.582031 211.058594 L 34.46875 210.988281 L 34.359375 210.917969 L 34.261719 210.84375 L 34.164062 210.761719 L 34.078125 210.683594 L 33.996094 210.597656 L 33.917969 210.511719 L 33.847656 210.421875 L 33.78125 210.328125 L 33.722656 210.230469 L 33.667969 210.132812 L 33.621094 210.03125 L 33.582031 209.929688 L 33.542969 209.820312 L 33.507812 209.714844 L 33.480469 209.601562 L 33.453125 209.492188 L 33.429688 209.378906 L 33.398438 209.144531 L 33.382812 208.902344 L 33.382812 208.660156 L 33.390625 208.546875 L 33.398438 208.429688 L 33.414062 208.316406 L 33.429688 208.207031 L 33.453125 208.097656 L 33.480469 207.988281 L 33.507812 207.882812 L 33.542969 207.777344 L 33.582031 207.671875 L 33.621094 207.570312 L 33.667969 207.46875 L 33.722656 207.371094 L 33.78125 207.277344 L 33.847656 207.183594 L 33.917969 207.09375 L 33.996094 207.007812 L 34.078125 206.925781 L 34.164062 206.84375 L 34.359375 206.6875 L 34.46875 206.617188 L 34.582031 206.546875 L 34.703125 206.480469 L 34.828125 206.417969 L 34.964844 206.359375 L 35.105469 206.304688 L 35.25 206.25 L 35.40625 206.199219 L 35.566406 206.15625 L 35.734375 206.113281 L 35.910156 206.074219 L 36.09375 206.039062 L 36.289062 206.011719 L 36.488281 205.988281 L 36.699219 205.96875 L 36.917969 205.953125 L 37.148438 205.941406 L 37.382812 205.933594 Z M 37.628906 207.003906 L 37.4375 207.003906 L 37.25 207.007812 L 37.070312 207.015625 L 36.894531 207.023438 L 36.726562 207.035156 L 36.566406 207.046875 L 36.414062 207.0625 L 36.269531 207.078125 L 36.128906 207.097656 L 35.996094 207.121094 L 35.867188 207.144531 L 35.742188 207.171875 L 35.625 207.203125 L 35.511719 207.234375 L 35.40625 207.265625 L 35.304688 207.300781 L 35.207031 207.339844 L 35.117188 207.378906 L 35.03125 207.421875 L 34.875 207.515625 L 34.804688 207.5625 L 34.738281 207.613281 L 34.675781 207.667969 L 34.617188 207.722656 L 34.566406 207.777344 L 34.515625 207.839844 L 34.472656 207.898438 L 34.433594 207.964844 L 34.339844 208.164062 L 34.316406 208.234375 L 34.277344 208.382812 L 34.261719 208.457031 L 34.25 208.535156 L 34.242188 208.613281 L 34.238281 208.695312 L 34.238281 208.867188 L 34.242188 208.953125 L 34.25 209.039062 L 34.261719 209.117188 L 34.277344 209.199219 L 34.296875 209.277344 L 34.316406 209.351562 L 34.339844 209.425781 L 34.402344 209.566406 L 34.4375 209.632812 L 34.476562 209.695312 L 34.519531 209.757812 L 34.570312 209.820312 L 34.621094 209.878906 L 34.679688 209.933594 L 34.742188 209.988281 L 34.808594 210.039062 L 34.957031 210.140625 L 35.121094 210.226562 L 35.308594 210.304688 L 35.410156 210.339844 L 35.628906 210.402344 L 35.75 210.433594 L 35.871094 210.460938 L 36 210.484375 L 36.132812 210.507812 L 36.273438 210.527344 L 36.421875 210.542969 L 36.574219 210.558594 L 36.734375 210.574219 L 36.898438 210.582031 L 37.070312 210.589844 L 37.25 210.597656 L 37.4375 210.601562 L 37.816406 210.601562 L 37.996094 210.597656 L 38.171875 210.589844 L 38.339844 210.582031 L 38.503906 210.574219 L 38.660156 210.558594 L 38.8125 210.542969 L 38.957031 210.527344 L 39.09375 210.507812 L 39.230469 210.484375 L 39.480469 210.429688 L 39.597656 210.402344 L 39.707031 210.371094 L 39.816406 210.335938 L 39.917969 210.300781 L 40.015625 210.261719 L 40.109375 210.21875 L 40.195312 210.175781 L 40.277344 210.132812 L 40.355469 210.085938 L 40.425781 210.035156 L 40.492188 209.984375 L 40.558594 209.929688 L 40.617188 209.875 L 40.671875 209.816406 L 40.722656 209.757812 L 40.765625 209.695312 L 40.808594 209.628906 L 40.847656 209.566406 L 40.878906 209.496094 L 40.933594 209.355469 L 40.972656 209.207031 L 40.988281 209.128906 L 41 209.050781 L 41.015625 208.886719 L 41.015625 208.71875 L 41 208.5625 L 40.988281 208.484375 L 40.972656 208.40625 L 40.953125 208.332031 L 40.933594 208.261719 L 40.878906 208.121094 L 40.847656 208.054688 L 40.808594 207.988281 L 40.765625 207.921875 L 40.722656 207.863281 L 40.671875 207.800781 L 40.617188 207.746094 L 40.558594 207.691406 L 40.492188 207.636719 L 40.425781 207.585938 L 40.355469 207.539062 L 40.277344 207.492188 L 40.195312 207.445312 L 40.109375 207.402344 L 40.015625 207.359375 L 39.917969 207.320312 L 39.816406 207.285156 L 39.707031 207.25 L 39.597656 207.21875 L 39.480469 207.1875 L 39.230469 207.132812 L 38.957031 207.085938 L 38.8125 207.066406 L 38.660156 207.050781 L 38.503906 207.035156 L 38.339844 207.023438 L 38.171875 207.015625 L 37.996094 207.007812 L 37.816406 207.003906 Z M 37.628906 207.003906 "/>
<path fill-rule="nonzero" fill="rgb(0%, 0%, 0%)" fill-opacity="1" d="M 41.761719 189.097656 L 40.863281 189.097656 L 40.863281 186.992188 L 34.511719 186.992188 L 35.84375 188.855469 L 34.847656 188.855469 L 33.503906 186.90625 L 33.503906 185.933594 L 40.863281 185.933594 L 40.863281 183.921875 L 41.761719 183.921875 Z M 41.761719 189.097656 "/>
<path fill-rule="nonzero" fill="rgb(0%, 0%, 0%)" fill-opacity="1" d="M 37.628906 177.132812 L 37.863281 177.132812 L 38.089844 177.140625 L 38.308594 177.152344 L 38.519531 177.167969 L 38.726562 177.1875 L 38.921875 177.214844 L 39.109375 177.242188 L 39.292969 177.277344 L 39.464844 177.316406 L 39.632812 177.359375 L 39.792969 177.40625 L 39.945312 177.457031 L 40.089844 177.507812 L 40.230469 177.566406 L 40.367188 177.625 L 40.492188 177.6875 L 40.617188 177.753906 L 40.730469 177.824219 L 40.839844 177.898438 L 40.945312 177.976562 L 41.042969 178.054688 L 41.132812 178.136719 L 41.21875 178.21875 L 41.300781 178.308594 L 41.375 178.398438 L 41.441406 178.492188 L 41.503906 178.585938 L 41.5625 178.683594 L 41.613281 178.785156 L 41.660156 178.890625 L 41.703125 178.996094 L 41.738281 179.101562 L 41.769531 179.210938 L 41.800781 179.324219 L 41.824219 179.433594 L 41.84375 179.546875 L 41.859375 179.664062 L 41.867188 179.777344 L 41.875 179.894531 L 41.878906 180.015625 L 41.875 180.132812 L 41.867188 180.253906 L 41.859375 180.371094 L 41.84375 180.484375 L 41.824219 180.597656 L 41.800781 180.710938 L 41.738281 180.929688 L 41.703125 181.035156 L 41.660156 181.140625 L 41.613281 181.242188 L 41.5625 181.34375 L 41.503906 181.441406 L 41.441406 181.535156 L 41.375 181.628906 L 41.300781 181.71875 L 41.21875 181.804688 L 41.132812 181.886719 L 41.042969 181.96875 L 40.945312 182.046875 L 40.84375 182.121094 L 40.734375 182.195312 L 40.617188 182.261719 L 40.496094 182.328125 L 40.371094 182.390625 L 40.234375 182.449219 L 40.097656 182.503906 L 39.949219 182.554688 L 39.796875 182.605469 L 39.640625 182.652344 L 39.472656 182.691406 L 39.296875 182.730469 L 39.117188 182.761719 L 38.925781 182.789062 L 38.730469 182.8125 L 38.523438 182.832031 L 38.3125 182.847656 L 38.09375 182.859375 L 37.863281 182.867188 L 37.382812 182.867188 L 37.148438 182.859375 L 36.917969 182.847656 L 36.699219 182.832031 L 36.488281 182.8125 L 36.289062 182.789062 L 36.09375 182.761719 L 35.910156 182.730469 L 35.734375 182.691406 L 35.566406 182.652344 L 35.40625 182.605469 L 35.25 182.554688 L 35.105469 182.503906 L 34.964844 182.445312 L 34.828125 182.386719 L 34.703125 182.324219 L 34.582031 182.257812 L 34.46875 182.191406 L 34.359375 182.117188 L 34.261719 182.042969 L 34.164062 181.964844 L 34.078125 181.882812 L 33.996094 181.796875 L 33.917969 181.710938 L 33.847656 181.621094 L 33.78125 181.527344 L 33.722656 181.433594 L 33.667969 181.332031 L 33.621094 181.230469 L 33.582031 181.128906 L 33.542969 181.023438 L 33.507812 180.914062 L 33.480469 180.804688 L 33.453125 180.691406 L 33.429688 180.578125 L 33.398438 180.34375 L 33.382812 180.101562 L 33.382812 179.863281 L 33.390625 179.746094 L 33.398438 179.632812 L 33.429688 179.40625 L 33.453125 179.296875 L 33.480469 179.1875 L 33.507812 179.082031 L 33.542969 178.976562 L 33.582031 178.871094 L 33.621094 178.769531 L 33.667969 178.667969 L 33.722656 178.570312 L 33.78125 178.476562 L 33.847656 178.382812 L 33.917969 178.292969 L 33.996094 178.207031 L 34.078125 178.125 L 34.164062 178.042969 L 34.359375 177.886719 L 34.46875 177.816406 L 34.582031 177.746094 L 34.703125 177.679688 L 34.828125 177.617188 L 34.964844 177.558594 L 35.105469 177.503906 L 35.25 177.449219 L 35.40625 177.402344 L 35.566406 177.355469 L 35.734375 177.3125 L 35.910156 177.273438 L 36.09375 177.242188 L 36.289062 177.210938 L 36.488281 177.1875 L 36.699219 177.167969 L 36.917969 177.152344 L 37.148438 177.140625 L 37.382812 177.132812 Z M 37.628906 178.203125 L 37.4375 178.207031 L 37.25 178.207031 L 37.070312 178.214844 L 36.894531 178.222656 L 36.726562 178.234375 L 36.566406 178.246094 L 36.414062 178.261719 L 36.269531 178.277344 L 36.128906 178.300781 L 35.996094 178.320312 L 35.867188 178.347656 L 35.742188 178.371094 L 35.625 178.402344 L 35.511719 178.433594 L 35.40625 178.464844 L 35.304688 178.503906 L 35.207031 178.539062 L 35.117188 178.578125 L 35.03125 178.621094 L 34.875 178.714844 L 34.804688 178.761719 L 34.738281 178.8125 L 34.675781 178.867188 L 34.617188 178.921875 L 34.515625 179.039062 L 34.472656 179.101562 L 34.433594 179.164062 L 34.339844 179.363281 L 34.316406 179.433594 L 34.277344 179.582031 L 34.261719 179.65625 L 34.25 179.734375 L 34.242188 179.816406 L 34.238281 179.894531 L 34.238281 180.066406 L 34.242188 180.152344 L 34.25 180.238281 L 34.261719 180.320312 L 34.277344 180.398438 L 34.296875 180.476562 L 34.316406 180.550781 L 34.339844 180.625 L 34.402344 180.765625 L 34.4375 180.832031 L 34.476562 180.894531 L 34.519531 180.960938 L 34.621094 181.078125 L 34.679688 181.132812 L 34.742188 181.1875 L 34.808594 181.242188 L 34.882812 181.289062 L 34.957031 181.339844 L 35.121094 181.425781 L 35.308594 181.503906 L 35.410156 181.539062 L 35.519531 181.574219 L 35.628906 181.605469 L 35.871094 181.660156 L 36 181.683594 L 36.132812 181.707031 L 36.273438 181.726562 L 36.421875 181.746094 L 36.574219 181.757812 L 36.734375 181.773438 L 36.898438 181.78125 L 37.070312 181.792969 L 37.25 181.796875 L 37.4375 181.800781 L 37.816406 181.800781 L 37.996094 181.796875 L 38.171875 181.792969 L 38.339844 181.78125 L 38.503906 181.773438 L 38.660156 181.757812 L 38.8125 181.746094 L 38.957031 181.726562 L 39.09375 181.707031 L 39.230469 181.683594 L 39.355469 181.660156 L 39.480469 181.632812 L 39.597656 181.601562 L 39.707031 181.570312 L 39.816406 181.535156 L 39.917969 181.5 L 40.015625 181.460938 L 40.109375 181.421875 L 40.195312 181.378906 L 40.277344 181.332031 L 40.355469 181.285156 L 40.425781 181.234375 L 40.492188 181.183594 L 40.558594 181.128906 L 40.617188 181.074219 L 40.671875 181.015625 L 40.722656 180.957031 L 40.808594 180.832031 L 40.847656 180.765625 L 40.878906 180.695312 L 40.90625 180.628906 L 40.933594 180.554688 L 40.953125 180.484375 L 40.972656 180.40625 L 40.988281 180.332031 L 41 180.25 L 41.007812 180.171875 L 41.015625 180.085938 L 41.015625 179.921875 L 41.007812 179.839844 L 41 179.761719 L 40.988281 179.683594 L 40.972656 179.609375 L 40.933594 179.460938 L 40.878906 179.320312 L 40.847656 179.253906 L 40.808594 179.1875 L 40.722656 179.0625 L 40.671875 179.003906 L 40.617188 178.945312 L 40.558594 178.890625 L 40.492188 178.835938 L 40.425781 178.785156 L 40.355469 178.738281 L 40.277344 178.691406 L 40.195312 178.644531 L 40.109375 178.601562 L 40.015625 178.558594 L 39.917969 178.519531 L 39.816406 178.484375 L 39.707031 178.449219 L 39.597656 178.417969 L 39.480469 178.386719 L 39.230469 178.332031 L 38.957031 178.285156 L 38.8125 178.265625 L 38.660156 178.25 L 38.503906 178.238281 L 38.339844 178.226562 L 38.171875 178.214844 L 37.996094 178.210938 L 37.816406 178.207031 Z M 37.628906 178.203125 "/>
<path fill-rule="nonzero" fill="rgb(0%, 0%, 0%)" fill-opacity="1" d="M 37.628906 170.457031 L 37.863281 170.460938 L 38.089844 170.46875 L 38.308594 170.480469 L 38.519531 170.496094 L 38.726562 170.515625 L 38.921875 170.539062 L 39.109375 170.570312 L 39.292969 170.605469 L 39.464844 170.644531 L 39.632812 170.6875 L 39.792969 170.734375 L 39.945312 170.78125 L 40.089844 170.835938 L 40.230469 170.890625 L 40.367188 170.953125 L 40.492188 171.015625 L 40.617188 171.082031 L 40.730469 171.152344 L 40.839844 171.226562 L 40.945312 171.300781 L 41.042969 171.378906 L 41.132812 171.460938 L 41.21875 171.546875 L 41.300781 171.632812 L 41.375 171.722656 L 41.441406 171.816406 L 41.503906 171.910156 L 41.5625 172.011719 L 41.613281 172.113281 L 41.660156 172.214844 L 41.703125 172.320312 L 41.738281 172.429688 L 41.800781 172.648438 L 41.824219 172.761719 L 41.84375 172.875 L 41.859375 172.988281 L 41.875 173.222656 L 41.878906 173.339844 L 41.875 173.460938 L 41.859375 173.695312 L 41.84375 173.808594 L 41.824219 173.925781 L 41.800781 174.035156 L 41.738281 174.253906 L 41.703125 174.359375 L 41.660156 174.464844 L 41.613281 174.570312 L 41.5625 174.667969 L 41.503906 174.765625 L 41.441406 174.863281 L 41.375 174.953125 L 41.300781 175.042969 L 41.21875 175.128906 L 41.132812 175.214844 L 41.042969 175.296875 L 40.945312 175.375 L 40.84375 175.449219 L 40.734375 175.519531 L 40.617188 175.589844 L 40.496094 175.652344 L 40.371094 175.714844 L 40.234375 175.773438 L 40.097656 175.828125 L 39.949219 175.882812 L 39.796875 175.929688 L 39.640625 175.976562 L 39.472656 176.019531 L 39.296875 176.054688 L 39.117188 176.089844 L 38.925781 176.117188 L 38.730469 176.140625 L 38.523438 176.160156 L 38.3125 176.175781 L 38.09375 176.1875 L 37.863281 176.191406 L 37.628906 176.195312 L 37.382812 176.191406 L 37.148438 176.1875 L 36.917969 176.175781 L 36.699219 176.160156 L 36.488281 176.140625 L 36.289062 176.117188 L 36.09375 176.089844 L 35.910156 176.054688 L 35.734375 176.019531 L 35.566406 175.976562 L 35.40625 175.929688 L 35.25 175.882812 L 35.105469 175.828125 L 34.964844 175.773438 L 34.828125 175.714844 L 34.703125 175.652344 L 34.582031 175.585938 L 34.46875 175.515625 L 34.359375 175.445312 L 34.164062 175.289062 L 34.078125 175.207031 L 33.996094 175.125 L 33.917969 175.035156 L 33.847656 174.945312 L 33.78125 174.851562 L 33.722656 174.757812 L 33.667969 174.660156 L 33.621094 174.558594 L 33.542969 174.347656 L 33.507812 174.238281 L 33.480469 174.128906 L 33.453125 174.015625 L 33.429688 173.902344 L 33.414062 173.789062 L 33.398438 173.667969 L 33.390625 173.550781 L 33.382812 173.429688 L 33.382812 173.1875 L 33.390625 173.070312 L 33.398438 172.957031 L 33.414062 172.84375 L 33.429688 172.734375 L 33.453125 172.621094 L 33.480469 172.515625 L 33.507812 172.40625 L 33.542969 172.300781 L 33.582031 172.199219 L 33.621094 172.09375 L 33.667969 171.996094 L 33.722656 171.898438 L 33.78125 171.800781 L 33.847656 171.710938 L 33.917969 171.621094 L 33.996094 171.535156 L 34.078125 171.449219 L 34.164062 171.367188 L 34.261719 171.289062 L 34.359375 171.214844 L 34.46875 171.140625 L 34.582031 171.074219 L 34.703125 171.007812 L 34.828125 170.945312 L 34.964844 170.886719 L 35.105469 170.828125 L 35.25 170.777344 L 35.40625 170.726562 L 35.566406 170.679688 L 35.734375 170.636719 L 35.910156 170.601562 L 36.09375 170.566406 L 36.289062 170.539062 L 36.488281 170.515625 L 36.699219 170.492188 L 36.917969 170.476562 L 37.148438 170.46875 L 37.382812 170.460938 Z M 37.628906 171.53125 L 37.4375 171.53125 L 37.25 171.535156 L 37.070312 171.539062 L 36.894531 171.550781 L 36.726562 171.558594 L 36.566406 171.574219 L 36.414062 171.585938 L 36.269531 171.605469 L 36.128906 171.625 L 35.996094 171.648438 L 35.867188 171.671875 L 35.742188 171.699219 L 35.625 171.726562 L 35.511719 171.757812 L 35.40625 171.792969 L 35.304688 171.828125 L 35.207031 171.867188 L 35.117188 171.90625 L 35.03125 171.949219 L 34.953125 171.992188 L 34.875 172.039062 L 34.804688 172.089844 L 34.738281 172.140625 L 34.675781 172.191406 L 34.617188 172.25 L 34.566406 172.304688 L 34.515625 172.363281 L 34.472656 172.425781 L 34.433594 172.488281 L 34.371094 172.621094 L 34.339844 172.691406 L 34.316406 172.761719 L 34.296875 172.832031 L 34.277344 172.90625 L 34.261719 172.984375 L 34.25 173.0625 L 34.242188 173.140625 L 34.238281 173.222656 L 34.238281 173.394531 L 34.242188 173.480469 L 34.25 173.5625 L 34.261719 173.644531 L 34.277344 173.726562 L 34.296875 173.800781 L 34.316406 173.878906 L 34.339844 173.949219 L 34.371094 174.023438 L 34.402344 174.089844 L 34.4375 174.15625 L 34.476562 174.222656 L 34.519531 174.285156 L 34.570312 174.347656 L 34.621094 174.40625 L 34.679688 174.460938 L 34.742188 174.515625 L 34.808594 174.566406 L 34.882812 174.617188 L 34.957031 174.664062 L 35.039062 174.710938 L 35.121094 174.753906 L 35.214844 174.792969 L 35.308594 174.828125 L 35.410156 174.867188 L 35.628906 174.929688 L 35.75 174.960938 L 35.871094 174.984375 L 36 175.011719 L 36.132812 175.03125 L 36.273438 175.054688 L 36.421875 175.070312 L 36.574219 175.085938 L 36.734375 175.097656 L 36.898438 175.109375 L 37.070312 175.117188 L 37.25 175.125 L 37.4375 175.125 L 37.628906 175.128906 L 37.816406 175.125 L 37.996094 175.125 L 38.171875 175.117188 L 38.339844 175.109375 L 38.503906 175.097656 L 38.660156 175.085938 L 38.8125 175.070312 L 38.957031 175.054688 L 39.09375 175.03125 L 39.230469 175.011719 L 39.480469 174.957031 L 39.597656 174.925781 L 39.816406 174.863281 L 39.917969 174.824219 L 40.015625 174.785156 L 40.109375 174.746094 L 40.195312 174.703125 L 40.277344 174.660156 L 40.355469 174.609375 L 40.425781 174.5625 L 40.492188 174.507812 L 40.558594 174.457031 L 40.671875 174.34375 L 40.722656 174.28125 L 40.808594 174.15625 L 40.847656 174.089844 L 40.878906 174.023438 L 40.933594 173.882812 L 40.972656 173.734375 L 40.988281 173.65625 L 41 173.578125 L 41.015625 173.414062 L 41.015625 173.246094 L 41.007812 173.164062 L 41 173.085938 L 40.988281 173.007812 L 40.972656 172.933594 L 40.933594 172.785156 L 40.90625 172.714844 L 40.878906 172.648438 L 40.847656 172.578125 L 40.808594 172.511719 L 40.722656 172.386719 L 40.671875 172.328125 L 40.558594 172.214844 L 40.425781 172.113281 L 40.355469 172.0625 L 40.277344 172.015625 L 40.195312 171.972656 L 40.109375 171.925781 L 40.015625 171.886719 L 39.917969 171.847656 L 39.816406 171.808594 L 39.707031 171.777344 L 39.597656 171.742188 L 39.480469 171.710938 L 39.355469 171.683594 L 39.230469 171.660156 L 39.09375 171.632812 L 38.957031 171.613281 L 38.8125 171.59375 L 38.660156 171.578125 L 38.503906 171.5625 L 38.339844 171.550781 L 38.171875 171.542969 L 37.996094 171.535156 L 37.816406 171.53125 Z M 37.628906 171.53125 "/>
<path fill-rule="nonzero" fill="rgb(0%, 0%, 0%)" fill-opacity="1" d="M 39.480469 126.265625 L 39.59375 126.265625 L 39.8125 126.28125 L 39.914062 126.292969 L 40.019531 126.3125 L 40.117188 126.332031 L 40.214844 126.355469 L 40.3125 126.382812 L 40.402344 126.417969 L 40.496094 126.453125 L 40.582031 126.488281 L 40.667969 126.53125 L 40.75 126.578125 L 40.828125 126.625 L 40.90625 126.675781 L 40.980469 126.734375 L 41.050781 126.792969 L 41.121094 126.855469 L 41.1875 126.921875 L 41.25 126.992188 L 41.308594 127.0625 L 41.367188 127.136719 L 41.421875 127.21875 L 41.472656 127.300781 L 41.519531 127.386719 L 41.566406 127.476562 L 41.609375 127.570312 L 41.648438 127.664062 L 41.683594 127.765625 L 41.71875 127.871094 L 41.75 127.976562 L 41.777344 128.085938 L 41.800781 128.195312 L 41.820312 128.3125 L 41.835938 128.429688 L 41.851562 128.550781 L 41.863281 128.675781 L 41.871094 128.800781 L 41.878906 129.066406 L 41.871094 129.363281 L 41.859375 129.503906 L 41.847656 129.640625 L 41.832031 129.773438 L 41.785156 130.023438 L 41.757812 130.140625 L 41.726562 130.253906 L 41.691406 130.359375 L 41.648438 130.460938 L 41.609375 130.5625 L 41.515625 130.75 L 41.46875 130.835938 L 41.414062 130.921875 L 41.363281 131 L 41.304688 131.078125 L 41.246094 131.152344 L 41.1875 131.222656 L 41.121094 131.289062 L 41.054688 131.351562 L 40.988281 131.410156 L 40.847656 131.519531 L 40.777344 131.566406 L 40.703125 131.613281 L 40.628906 131.65625 L 40.550781 131.695312 L 40.472656 131.730469 L 40.390625 131.765625 L 40.308594 131.792969 L 40.226562 131.824219 L 40.0625 131.871094 L 39.976562 131.894531 L 39.894531 131.910156 L 39.808594 131.929688 L 39.722656 131.941406 L 39.640625 131.953125 L 39.539062 130.863281 L 39.605469 130.855469 L 39.667969 130.84375 L 39.792969 130.8125 L 39.910156 130.78125 L 39.96875 130.761719 L 40.027344 130.738281 L 40.082031 130.71875 L 40.136719 130.695312 L 40.191406 130.667969 L 40.242188 130.640625 L 40.292969 130.609375 L 40.339844 130.578125 L 40.433594 130.507812 L 40.519531 130.429688 L 40.601562 130.347656 L 40.636719 130.304688 L 40.707031 130.210938 L 40.742188 130.160156 L 40.769531 130.105469 L 40.800781 130.050781 L 40.828125 129.996094 L 40.875 129.878906 L 40.898438 129.816406 L 40.9375 129.683594 L 40.953125 129.613281 L 40.964844 129.542969 L 40.988281 129.394531 L 40.996094 129.316406 L 41.003906 129.152344 L 41.003906 129.066406 L 41 128.910156 L 40.988281 128.761719 L 40.96875 128.617188 L 40.941406 128.484375 L 40.90625 128.355469 L 40.863281 128.234375 L 40.8125 128.117188 L 40.753906 128.011719 L 40.6875 127.910156 L 40.613281 127.816406 L 40.527344 127.730469 L 40.4375 127.652344 L 40.339844 127.582031 L 40.238281 127.523438 L 40.125 127.472656 L 40.003906 127.433594 L 39.875 127.402344 L 39.738281 127.378906 L 39.597656 127.363281 L 39.445312 127.359375 L 39.355469 127.363281 L 39.269531 127.367188 L 39.1875 127.378906 L 39.109375 127.394531 L 39.035156 127.410156 L 38.960938 127.433594 L 38.894531 127.460938 L 38.832031 127.492188 L 38.769531 127.527344 L 38.714844 127.566406 L 38.65625 127.605469 L 38.605469 127.648438 L 38.554688 127.695312 L 38.507812 127.742188 L 38.464844 127.789062 L 38.421875 127.84375 L 38.382812 127.894531 L 38.34375 127.953125 L 38.3125 128.007812 L 38.28125 128.070312 L 38.25 128.128906 L 38.21875 128.191406 L 38.195312 128.253906 L 38.167969 128.316406 L 38.109375 128.515625 L 38.09375 128.585938 L 38.058594 128.796875 L 38.027344 129.0625 L 38.023438 129.128906 L 38.019531 129.191406 L 38.019531 129.253906 L 38.015625 129.316406 L 38.015625 129.972656 L 37.101562 129.972656 L 37.101562 129.339844 L 37.097656 129.277344 L 37.097656 129.21875 L 37.09375 129.15625 L 37.085938 129.09375 L 37.082031 129.03125 L 37.074219 128.96875 L 37.0625 128.90625 L 37.054688 128.84375 L 37.042969 128.777344 L 37.03125 128.714844 L 37.015625 128.652344 L 36.996094 128.589844 L 36.976562 128.53125 L 36.957031 128.46875 L 36.933594 128.414062 L 36.90625 128.355469 L 36.851562 128.246094 L 36.820312 128.191406 L 36.75 128.089844 L 36.710938 128.039062 L 36.671875 127.992188 L 36.628906 127.949219 L 36.535156 127.863281 L 36.488281 127.824219 L 36.433594 127.789062 L 36.382812 127.753906 L 36.324219 127.71875 L 36.265625 127.6875 L 36.203125 127.664062 L 36.136719 127.640625 L 36.066406 127.621094 L 35.996094 127.605469 L 35.921875 127.59375 L 35.84375 127.582031 L 35.761719 127.578125 L 35.679688 127.578125 L 35.546875 127.582031 L 35.425781 127.59375 L 35.304688 127.613281 L 35.191406 127.640625 L 35.085938 127.675781 L 34.984375 127.71875 L 34.890625 127.769531 L 34.796875 127.828125 L 34.714844 127.894531 L 34.636719 127.96875 L 34.5625 128.050781 L 34.496094 128.140625 L 34.4375 128.234375 L 34.386719 128.339844 L 34.34375 128.453125 L 34.308594 128.570312 L 34.28125 128.699219 L 34.265625 128.832031 L 34.253906 128.972656 L 34.25 129.125 L 34.25 129.261719 L 34.261719 129.390625 L 34.28125 129.519531 L 34.304688 129.640625 L 34.335938 129.753906 L 34.375 129.867188 L 34.421875 129.96875 L 34.476562 130.070312 L 34.539062 130.164062 L 34.605469 130.253906 L 34.679688 130.335938 L 34.761719 130.410156 L 34.847656 130.480469 L 34.9375 130.539062 L 35.035156 130.59375 L 35.140625 130.640625 L 35.25 130.679688 L 35.363281 130.710938 L 35.488281 130.734375 L 35.613281 130.753906 L 35.53125 131.8125 L 35.320312 131.78125 L 35.117188 131.734375 L 35.023438 131.707031 L 34.929688 131.675781 L 34.835938 131.640625 L 34.75 131.601562 L 34.664062 131.558594 L 34.582031 131.515625 L 34.425781 131.414062 L 34.351562 131.363281 L 34.28125 131.308594 L 34.214844 131.25 L 34.148438 131.1875 L 34.085938 131.125 L 34.023438 131.058594 L 33.96875 130.992188 L 33.914062 130.921875 L 33.8125 130.773438 L 33.765625 130.695312 L 33.722656 130.617188 L 33.679688 130.535156 L 33.640625 130.449219 L 33.605469 130.363281 L 33.574219 130.277344 L 33.542969 130.1875 L 33.515625 130.097656 L 33.46875 129.910156 L 33.445312 129.8125 L 33.414062 129.617188 L 33.402344 129.519531 L 33.386719 129.316406 L 33.382812 129.214844 L 33.382812 128.976562 L 33.386719 128.84375 L 33.398438 128.714844 L 33.410156 128.589844 L 33.425781 128.46875 L 33.445312 128.351562 L 33.46875 128.238281 L 33.492188 128.128906 L 33.523438 128.023438 L 33.558594 127.921875 L 33.59375 127.824219 L 33.628906 127.730469 L 33.671875 127.640625 L 33.757812 127.46875 L 33.859375 127.3125 L 33.910156 127.242188 L 33.96875 127.171875 L 34.085938 127.046875 L 34.148438 126.988281 L 34.210938 126.933594 L 34.277344 126.882812 L 34.34375 126.835938 L 34.414062 126.789062 L 34.5625 126.710938 L 34.636719 126.675781 L 34.71875 126.644531 L 34.796875 126.617188 L 34.878906 126.589844 L 34.960938 126.566406 L 35.042969 126.546875 L 35.214844 126.515625 L 35.386719 126.5 L 35.566406 126.492188 L 35.640625 126.492188 L 35.78125 126.5 L 35.851562 126.507812 L 35.917969 126.519531 L 35.984375 126.527344 L 36.050781 126.542969 L 36.117188 126.554688 L 36.183594 126.574219 L 36.308594 126.613281 L 36.371094 126.636719 L 36.546875 126.71875 L 36.601562 126.753906 L 36.65625 126.785156 L 36.710938 126.824219 L 36.761719 126.863281 L 36.816406 126.902344 L 36.863281 126.945312 L 36.914062 126.992188 L 36.960938 127.039062 L 37.003906 127.089844 L 37.050781 127.144531 L 37.089844 127.199219 L 37.132812 127.253906 L 37.25 127.441406 L 37.285156 127.507812 L 37.347656 127.648438 L 37.378906 127.722656 L 37.40625 127.796875 L 37.460938 127.960938 L 37.484375 128.042969 L 37.523438 128.222656 L 37.546875 128.222656 L 37.558594 128.121094 L 37.589844 127.933594 L 37.628906 127.753906 L 37.65625 127.671875 L 37.679688 127.585938 L 37.742188 127.429688 L 37.777344 127.355469 L 37.808594 127.28125 L 37.847656 127.210938 L 37.925781 127.078125 L 37.96875 127.015625 L 38.011719 126.957031 L 38.054688 126.902344 L 38.105469 126.847656 L 38.152344 126.792969 L 38.253906 126.699219 L 38.308594 126.652344 L 38.363281 126.613281 L 38.421875 126.570312 L 38.539062 126.5 L 38.597656 126.46875 L 38.660156 126.4375 L 38.722656 126.410156 L 38.855469 126.363281 L 38.988281 126.324219 L 39.058594 126.308594 L 39.125 126.296875 L 39.265625 126.273438 L 39.335938 126.269531 L 39.410156 126.265625 Z M 39.480469 126.265625 "/>
<path fill-rule="nonzero" fill="rgb(0%, 0%, 0%)" fill-opacity="1" d="M 37.628906 119.53125 L 37.863281 119.535156 L 38.089844 119.539062 L 38.308594 119.550781 L 38.519531 119.570312 L 38.726562 119.589844 L 38.921875 119.613281 L 39.109375 119.644531 L 39.292969 119.679688 L 39.464844 119.71875 L 39.632812 119.761719 L 39.792969 119.804688 L 39.945312 119.855469 L 40.089844 119.910156 L 40.230469 119.964844 L 40.367188 120.027344 L 40.492188 120.089844 L 40.617188 120.15625 L 40.730469 120.226562 L 40.839844 120.296875 L 40.945312 120.375 L 41.042969 120.453125 L 41.132812 120.535156 L 41.21875 120.621094 L 41.300781 120.707031 L 41.375 120.796875 L 41.441406 120.890625 L 41.503906 120.984375 L 41.5625 121.085938 L 41.613281 121.1875 L 41.660156 121.289062 L 41.703125 121.394531 L 41.738281 121.503906 L 41.800781 121.722656 L 41.824219 121.835938 L 41.84375 121.949219 L 41.859375 122.0625 L 41.875 122.296875 L 41.878906 122.414062 L 41.875 122.535156 L 41.859375 122.769531 L 41.84375 122.882812 L 41.824219 122.996094 L 41.800781 123.109375 L 41.738281 123.328125 L 41.703125 123.433594 L 41.660156 123.539062 L 41.613281 123.644531 L 41.5625 123.742188 L 41.503906 123.839844 L 41.441406 123.933594 L 41.375 124.027344 L 41.300781 124.117188 L 41.21875 124.203125 L 41.132812 124.289062 L 41.042969 124.371094 L 40.945312 124.449219 L 40.84375 124.523438 L 40.734375 124.59375 L 40.617188 124.664062 L 40.496094 124.726562 L 40.371094 124.789062 L 40.234375 124.847656 L 40.097656 124.902344 L 39.949219 124.957031 L 39.796875 125.003906 L 39.640625 125.050781 L 39.472656 125.09375 L 39.296875 125.128906 L 39.117188 125.160156 L 38.925781 125.191406 L 38.730469 125.214844 L 38.523438 125.234375 L 38.3125 125.25 L 38.09375 125.257812 L 37.863281 125.265625 L 37.628906 125.269531 L 37.382812 125.265625 L 37.148438 125.257812 L 36.917969 125.25 L 36.699219 125.234375 L 36.488281 125.214844 L 36.289062 125.191406 L 36.09375 125.160156 L 35.910156 125.128906 L 35.734375 125.09375 L 35.566406 125.050781 L 35.40625 125.003906 L 35.25 124.957031 L 35.105469 124.902344 L 34.964844 124.847656 L 34.828125 124.789062 L 34.703125 124.726562 L 34.582031 124.660156 L 34.46875 124.589844 L 34.359375 124.519531 L 34.164062 124.363281 L 34.078125 124.28125 L 33.996094 124.199219 L 33.917969 124.109375 L 33.847656 124.019531 L 33.78125 123.925781 L 33.722656 123.832031 L 33.667969 123.734375 L 33.621094 123.632812 L 33.542969 123.421875 L 33.507812 123.3125 L 33.480469 123.203125 L 33.453125 123.089844 L 33.429688 122.976562 L 33.414062 122.863281 L 33.398438 122.742188 L 33.390625 122.625 L 33.382812 122.503906 L 33.382812 122.261719 L 33.390625 122.144531 L 33.398438 122.03125 L 33.414062 121.917969 L 33.429688 121.808594 L 33.453125 121.695312 L 33.480469 121.589844 L 33.507812 121.480469 L 33.542969 121.375 L 33.582031 121.273438 L 33.621094 121.167969 L 33.667969 121.070312 L 33.722656 120.972656 L 33.78125 120.875 L 33.847656 120.785156 L 33.917969 120.695312 L 33.996094 120.609375 L 34.078125 120.523438 L 34.164062 120.441406 L 34.261719 120.363281 L 34.359375 120.289062 L 34.46875 120.214844 L 34.582031 120.148438 L 34.703125 120.082031 L 34.828125 120.019531 L 34.964844 119.957031 L 35.105469 119.902344 L 35.25 119.851562 L 35.40625 119.800781 L 35.566406 119.753906 L 35.734375 119.710938 L 35.910156 119.675781 L 36.09375 119.640625 L 36.289062 119.613281 L 36.488281 119.585938 L 36.699219 119.566406 L 36.917969 119.550781 L 37.148438 119.539062 L 37.382812 119.535156 Z M 37.628906 120.605469 L 37.4375 120.605469 L 37.25 120.609375 L 37.070312 120.613281 L 36.894531 120.621094 L 36.726562 120.632812 L 36.566406 120.644531 L 36.414062 120.660156 L 36.269531 120.679688 L 36.128906 120.699219 L 35.996094 120.722656 L 35.867188 120.746094 L 35.742188 120.773438 L 35.625 120.800781 L 35.511719 120.832031 L 35.40625 120.867188 L 35.304688 120.902344 L 35.207031 120.941406 L 35.117188 120.980469 L 35.03125 121.023438 L 34.953125 121.066406 L 34.875 121.113281 L 34.804688 121.164062 L 34.738281 121.214844 L 34.675781 121.265625 L 34.617188 121.320312 L 34.515625 121.4375 L 34.472656 121.5 L 34.433594 121.5625 L 34.371094 121.695312 L 34.339844 121.765625 L 34.316406 121.835938 L 34.296875 121.90625 L 34.277344 121.980469 L 34.261719 122.058594 L 34.25 122.136719 L 34.242188 122.214844 L 34.238281 122.296875 L 34.238281 122.46875 L 34.242188 122.554688 L 34.25 122.636719 L 34.261719 122.71875 L 34.277344 122.796875 L 34.316406 122.953125 L 34.339844 123.023438 L 34.402344 123.164062 L 34.4375 123.230469 L 34.476562 123.296875 L 34.519531 123.359375 L 34.621094 123.476562 L 34.679688 123.535156 L 34.742188 123.589844 L 34.808594 123.640625 L 34.882812 123.691406 L 34.957031 123.738281 L 35.039062 123.785156 L 35.121094 123.824219 L 35.214844 123.867188 L 35.308594 123.902344 L 35.410156 123.941406 L 35.628906 124.003906 L 35.75 124.035156 L 35.871094 124.058594 L 36 124.085938 L 36.132812 124.105469 L 36.273438 124.125 L 36.421875 124.144531 L 36.574219 124.160156 L 36.734375 124.171875 L 36.898438 124.183594 L 37.070312 124.191406 L 37.25 124.195312 L 37.4375 124.199219 L 37.628906 124.203125 L 37.816406 124.199219 L 37.996094 124.195312 L 38.171875 124.191406 L 38.339844 124.183594 L 38.503906 124.171875 L 38.660156 124.160156 L 38.8125 124.144531 L 38.957031 124.125 L 39.230469 124.085938 L 39.480469 124.03125 L 39.597656 124 L 39.707031 123.96875 L 39.816406 123.933594 L 39.917969 123.898438 L 40.015625 123.859375 L 40.109375 123.820312 L 40.195312 123.777344 L 40.277344 123.734375 L 40.355469 123.683594 L 40.425781 123.636719 L 40.492188 123.582031 L 40.558594 123.53125 L 40.617188 123.472656 L 40.671875 123.414062 L 40.722656 123.355469 L 40.808594 123.230469 L 40.847656 123.164062 L 40.878906 123.097656 L 40.933594 122.957031 L 40.972656 122.808594 L 40.988281 122.730469 L 41 122.652344 L 41.015625 122.488281 L 41.015625 122.320312 L 41.007812 122.238281 L 41 122.160156 L 40.988281 122.082031 L 40.972656 122.007812 L 40.933594 121.859375 L 40.878906 121.71875 L 40.847656 121.652344 L 40.808594 121.585938 L 40.722656 121.460938 L 40.671875 121.402344 L 40.617188 121.34375 L 40.558594 121.289062 L 40.425781 121.1875 L 40.355469 121.136719 L 40.277344 121.089844 L 40.195312 121.042969 L 40.109375 121 L 40.015625 120.960938 L 39.917969 120.921875 L 39.816406 120.882812 L 39.707031 120.847656 L 39.597656 120.816406 L 39.480469 120.785156 L 39.355469 120.757812 L 39.230469 120.734375 L 39.09375 120.707031 L 38.957031 120.6875 L 38.8125 120.667969 L 38.660156 120.652344 L 38.503906 120.636719 L 38.339844 120.625 L 38.171875 120.617188 L 37.996094 120.609375 L 37.816406 120.605469 Z M 37.628906 120.605469 "/>
<path fill-rule="nonzero" fill="rgb(0%, 0%, 0%)" fill-opacity="1" d="M 37.628906 112.859375 L 37.863281 112.859375 L 38.089844 112.867188 L 38.308594 112.878906 L 38.519531 112.894531 L 38.726562 112.914062 L 38.921875 112.941406 L 39.109375 112.96875 L 39.292969 113.003906 L 39.464844 113.042969 L 39.632812 113.085938 L 39.792969 113.132812 L 39.945312 113.183594 L 40.089844 113.234375 L 40.230469 113.292969 L 40.367188 113.351562 L 40.492188 113.414062 L 40.617188 113.480469 L 40.730469 113.550781 L 40.839844 113.625 L 40.945312 113.703125 L 41.042969 113.78125 L 41.132812 113.863281 L 41.21875 113.945312 L 41.300781 114.035156 L 41.375 114.125 L 41.441406 114.214844 L 41.503906 114.3125 L 41.5625 114.410156 L 41.613281 114.511719 L 41.660156 114.617188 L 41.703125 114.722656 L 41.738281 114.828125 L 41.769531 114.9375 L 41.800781 115.050781 L 41.824219 115.160156 L 41.84375 115.273438 L 41.859375 115.386719 L 41.875 115.621094 L 41.878906 115.742188 L 41.875 115.859375 L 41.867188 115.980469 L 41.859375 116.09375 L 41.84375 116.210938 L 41.824219 116.324219 L 41.800781 116.433594 L 41.769531 116.546875 L 41.738281 116.652344 L 41.703125 116.761719 L 41.660156 116.867188 L 41.613281 116.96875 L 41.5625 117.070312 L 41.503906 117.167969 L 41.441406 117.261719 L 41.375 117.355469 L 41.300781 117.441406 L 41.21875 117.53125 L 41.132812 117.613281 L 41.042969 117.695312 L 40.945312 117.773438 L 40.84375 117.847656 L 40.734375 117.921875 L 40.617188 117.988281 L 40.496094 118.054688 L 40.371094 118.117188 L 40.234375 118.175781 L 40.097656 118.230469 L 39.949219 118.28125 L 39.796875 118.332031 L 39.640625 118.378906 L 39.472656 118.417969 L 39.296875 118.457031 L 39.117188 118.488281 L 38.925781 118.515625 L 38.730469 118.539062 L 38.523438 118.558594 L 38.3125 118.574219 L 38.09375 118.585938 L 37.863281 118.59375 L 37.382812 118.59375 L 37.148438 118.585938 L 36.917969 118.574219 L 36.699219 118.558594 L 36.488281 118.539062 L 36.289062 118.515625 L 36.09375 118.488281 L 35.910156 118.457031 L 35.734375 118.417969 L 35.566406 118.378906 L 35.40625 118.332031 L 35.25 118.28125 L 35.105469 118.230469 L 34.964844 118.171875 L 34.828125 118.113281 L 34.703125 118.050781 L 34.582031 117.984375 L 34.46875 117.917969 L 34.359375 117.84375 L 34.261719 117.769531 L 34.164062 117.6875 L 34.078125 117.609375 L 33.996094 117.523438 L 33.917969 117.4375 L 33.847656 117.347656 L 33.78125 117.253906 L 33.722656 117.15625 L 33.667969 117.058594 L 33.621094 116.957031 L 33.582031 116.855469 L 33.542969 116.746094 L 33.507812 116.640625 L 33.480469 116.527344 L 33.453125 116.417969 L 33.429688 116.304688 L 33.398438 116.070312 L 33.382812 115.828125 L 33.382812 115.589844 L 33.390625 115.472656 L 33.398438 115.359375 L 33.429688 115.132812 L 33.453125 115.023438 L 33.480469 114.914062 L 33.507812 114.808594 L 33.542969 114.703125 L 33.582031 114.597656 L 33.621094 114.496094 L 33.667969 114.394531 L 33.722656 114.296875 L 33.78125 114.203125 L 33.847656 114.109375 L 33.917969 114.019531 L 33.996094 113.933594 L 34.078125 113.851562 L 34.164062 113.769531 L 34.359375 113.613281 L 34.46875 113.542969 L 34.582031 113.472656 L 34.703125 113.40625 L 34.828125 113.34375 L 34.964844 113.285156 L 35.105469 113.230469 L 35.25 113.175781 L 35.40625 113.125 L 35.566406 113.082031 L 35.734375 113.039062 L 35.910156 113 L 36.09375 112.96875 L 36.289062 112.9375 L 36.488281 112.914062 L 36.699219 112.894531 L 36.917969 112.878906 L 37.148438 112.867188 L 37.382812 112.859375 Z M 37.628906 113.929688 L 37.4375 113.929688 L 37.25 113.933594 L 37.070312 113.941406 L 36.894531 113.949219 L 36.726562 113.960938 L 36.566406 113.972656 L 36.414062 113.988281 L 36.269531 114.003906 L 36.128906 114.023438 L 35.996094 114.046875 L 35.867188 114.070312 L 35.742188 114.097656 L 35.625 114.128906 L 35.511719 114.160156 L 35.40625 114.191406 L 35.304688 114.226562 L 35.207031 114.265625 L 35.117188 114.304688 L 35.03125 114.347656 L 34.875 114.441406 L 34.804688 114.488281 L 34.738281 114.539062 L 34.675781 114.59375 L 34.617188 114.648438 L 34.515625 114.765625 L 34.472656 114.828125 L 34.433594 114.890625 L 34.339844 115.089844 L 34.316406 115.160156 L 34.277344 115.308594 L 34.261719 115.382812 L 34.25 115.460938 L 34.242188 115.539062 L 34.238281 115.621094 L 34.238281 115.792969 L 34.242188 115.878906 L 34.25 115.964844 L 34.261719 116.046875 L 34.277344 116.125 L 34.296875 116.203125 L 34.316406 116.277344 L 34.339844 116.351562 L 34.402344 116.492188 L 34.4375 116.558594 L 34.476562 116.621094 L 34.519531 116.683594 L 34.570312 116.746094 L 34.621094 116.804688 L 34.679688 116.859375 L 34.742188 116.914062 L 34.808594 116.96875 L 34.882812 117.015625 L 34.957031 117.066406 L 35.121094 117.152344 L 35.308594 117.230469 L 35.410156 117.265625 L 35.519531 117.300781 L 35.628906 117.332031 L 35.871094 117.386719 L 36 117.410156 L 36.132812 117.433594 L 36.273438 117.453125 L 36.421875 117.46875 L 36.574219 117.484375 L 36.734375 117.5 L 36.898438 117.507812 L 37.070312 117.515625 L 37.25 117.523438 L 37.4375 117.527344 L 37.816406 117.527344 L 37.996094 117.523438 L 38.171875 117.515625 L 38.339844 117.507812 L 38.503906 117.5 L 38.660156 117.484375 L 38.8125 117.46875 L 38.957031 117.453125 L 39.09375 117.433594 L 39.230469 117.410156 L 39.355469 117.386719 L 39.480469 117.355469 L 39.597656 117.328125 L 39.707031 117.296875 L 39.816406 117.261719 L 39.917969 117.226562 L 40.015625 117.1875 L 40.109375 117.144531 L 40.195312 117.105469 L 40.277344 117.058594 L 40.355469 117.011719 L 40.425781 116.960938 L 40.492188 116.910156 L 40.558594 116.855469 L 40.617188 116.800781 L 40.671875 116.742188 L 40.722656 116.683594 L 40.765625 116.621094 L 40.808594 116.554688 L 40.847656 116.492188 L 40.878906 116.421875 L 40.933594 116.28125 L 40.972656 116.132812 L 40.988281 116.054688 L 41 115.976562 L 41.015625 115.8125 L 41.015625 115.648438 L 41.007812 115.566406 L 41 115.488281 L 40.988281 115.410156 L 40.972656 115.332031 L 40.953125 115.257812 L 40.933594 115.1875 L 40.878906 115.046875 L 40.847656 114.980469 L 40.808594 114.914062 L 40.722656 114.789062 L 40.671875 114.730469 L 40.617188 114.671875 L 40.558594 114.617188 L 40.492188 114.5625 L 40.425781 114.511719 L 40.355469 114.464844 L 40.277344 114.417969 L 40.195312 114.371094 L 40.109375 114.328125 L 40.015625 114.285156 L 39.917969 114.246094 L 39.816406 114.210938 L 39.707031 114.175781 L 39.597656 114.144531 L 39.480469 114.113281 L 39.230469 114.058594 L 38.957031 114.011719 L 38.8125 113.992188 L 38.660156 113.976562 L 38.503906 113.960938 L 38.339844 113.949219 L 38.171875 113.941406 L 37.996094 113.933594 L 37.816406 113.929688 Z M 37.628906 113.929688 "/>
<path fill-rule="nonzero" fill="rgb(0%, 0%, 0%)" fill-opacity="1" d="M 39.070312 68.640625 L 39.195312 68.644531 L 39.316406 68.648438 L 39.433594 68.65625 L 39.550781 68.671875 L 39.664062 68.6875 L 39.777344 68.707031 L 39.996094 68.761719 L 40.101562 68.792969 L 40.207031 68.828125 L 40.308594 68.867188 L 40.40625 68.910156 L 40.503906 68.957031 L 40.597656 69.007812 L 40.6875 69.0625 L 40.773438 69.117188 L 40.859375 69.179688 L 41.023438 69.3125 L 41.171875 69.460938 L 41.238281 69.539062 L 41.304688 69.621094 L 41.367188 69.710938 L 41.425781 69.800781 L 41.480469 69.894531 L 41.535156 69.992188 L 41.628906 70.195312 L 41.671875 70.304688 L 41.710938 70.414062 L 41.746094 70.53125 L 41.777344 70.648438 L 41.804688 70.769531 L 41.824219 70.894531 L 41.84375 71.023438 L 41.859375 71.152344 L 41.867188 71.289062 L 41.875 71.429688 L 41.878906 71.570312 L 41.875 71.699219 L 41.871094 71.824219 L 41.863281 71.945312 L 41.851562 72.066406 L 41.839844 72.179688 L 41.824219 72.292969 L 41.800781 72.402344 L 41.78125 72.507812 L 41.753906 72.609375 L 41.726562 72.707031 L 41.691406 72.800781 L 41.660156 72.894531 L 41.625 72.980469 L 41.585938 73.066406 L 41.542969 73.152344 L 41.457031 73.308594 L 41.410156 73.382812 L 41.308594 73.523438 L 41.199219 73.648438 L 41.140625 73.710938 L 40.953125 73.875 L 40.753906 74.015625 L 40.683594 74.054688 L 40.609375 74.09375 L 40.535156 74.128906 L 40.386719 74.191406 L 40.3125 74.21875 L 40.234375 74.246094 L 40.078125 74.292969 L 39.914062 74.332031 L 39.792969 73.265625 L 39.839844 73.25 L 39.882812 73.234375 L 40.023438 73.1875 L 40.066406 73.167969 L 40.160156 73.128906 L 40.203125 73.105469 L 40.25 73.082031 L 40.292969 73.058594 L 40.332031 73.03125 L 40.375 73.003906 L 40.414062 72.976562 L 40.453125 72.945312 L 40.492188 72.910156 L 40.53125 72.878906 L 40.570312 72.84375 L 40.640625 72.765625 L 40.675781 72.722656 L 40.738281 72.636719 L 40.765625 72.585938 L 40.792969 72.539062 L 40.847656 72.4375 L 40.871094 72.382812 L 40.894531 72.324219 L 40.917969 72.269531 L 40.933594 72.207031 L 40.953125 72.144531 L 40.96875 72.078125 L 40.992188 71.9375 L 41.007812 71.789062 L 41.011719 71.710938 L 41.015625 71.628906 L 41.015625 71.464844 L 41.011719 71.386719 L 40.996094 71.230469 L 40.972656 71.082031 L 40.957031 71.011719 L 40.917969 70.871094 L 40.894531 70.804688 L 40.867188 70.738281 L 40.835938 70.671875 L 40.804688 70.613281 L 40.769531 70.550781 L 40.734375 70.492188 L 40.65625 70.382812 L 40.613281 70.332031 L 40.566406 70.28125 L 40.519531 70.234375 L 40.46875 70.1875 L 40.304688 70.058594 L 40.242188 70.023438 L 40.183594 69.988281 L 40.117188 69.953125 L 40.054688 69.921875 L 39.984375 69.890625 L 39.914062 69.867188 L 39.839844 69.839844 L 39.691406 69.800781 L 39.613281 69.78125 L 39.449219 69.757812 L 39.363281 69.75 L 39.273438 69.742188 L 39.183594 69.738281 L 39.019531 69.738281 L 38.871094 69.746094 L 38.800781 69.757812 L 38.730469 69.765625 L 38.660156 69.78125 L 38.59375 69.796875 L 38.460938 69.835938 L 38.398438 69.859375 L 38.332031 69.886719 L 38.273438 69.914062 L 38.210938 69.941406 L 38.152344 69.976562 L 38.097656 70.007812 L 38.042969 70.046875 L 37.992188 70.082031 L 37.890625 70.167969 L 37.800781 70.257812 L 37.714844 70.359375 L 37.675781 70.410156 L 37.636719 70.464844 L 37.601562 70.523438 L 37.570312 70.582031 L 37.507812 70.707031 L 37.484375 70.773438 L 37.457031 70.839844 L 37.398438 71.050781 L 37.375 71.199219 L 37.367188 71.277344 L 37.359375 71.359375 L 37.355469 71.441406 L 37.355469 71.628906 L 37.359375 71.679688 L 37.359375 71.726562 L 37.367188 71.777344 L 37.375 71.871094 L 37.390625 71.964844 L 37.402344 72.011719 L 37.410156 72.054688 L 37.457031 72.226562 L 37.46875 72.265625 L 37.484375 72.308594 L 37.5 72.347656 L 37.511719 72.386719 L 37.53125 72.425781 L 37.546875 72.464844 L 37.5625 72.5 L 37.601562 72.570312 L 37.617188 72.605469 L 37.636719 72.640625 L 37.660156 72.675781 L 37.699219 72.738281 L 37.722656 72.773438 L 37.742188 72.800781 L 37.789062 72.863281 L 37.808594 72.890625 L 37.832031 72.917969 L 37.855469 72.949219 L 37.875 72.976562 L 37.945312 73.058594 L 37.945312 74.089844 L 33.503906 73.816406 L 33.503906 69.121094 L 34.402344 69.121094 L 34.402344 72.855469 L 37.019531 73.011719 L 36.976562 72.953125 L 36.9375 72.894531 L 36.894531 72.832031 L 36.855469 72.765625 L 36.820312 72.695312 L 36.78125 72.625 L 36.746094 72.550781 L 36.714844 72.472656 L 36.652344 72.308594 L 36.621094 72.222656 L 36.59375 72.132812 L 36.570312 72.042969 L 36.53125 71.847656 L 36.519531 71.746094 L 36.507812 71.640625 L 36.492188 71.421875 L 36.492188 71.308594 L 36.496094 71.183594 L 36.5 71.066406 L 36.507812 70.949219 L 36.539062 70.722656 L 36.558594 70.613281 L 36.585938 70.503906 L 36.613281 70.402344 L 36.644531 70.300781 L 36.679688 70.199219 L 36.71875 70.101562 L 36.761719 70.007812 L 36.855469 69.828125 L 36.90625 69.742188 L 36.960938 69.660156 L 37.019531 69.582031 L 37.082031 69.503906 L 37.144531 69.433594 L 37.214844 69.363281 L 37.28125 69.292969 L 37.429688 69.167969 L 37.507812 69.109375 L 37.585938 69.054688 L 37.667969 69.003906 L 37.753906 68.953125 L 37.933594 68.867188 L 38.027344 68.828125 L 38.125 68.792969 L 38.222656 68.761719 L 38.320312 68.734375 L 38.421875 68.707031 L 38.527344 68.6875 L 38.738281 68.65625 L 38.847656 68.648438 L 38.957031 68.644531 Z M 39.070312 68.640625 "/>
<path fill-rule="nonzero" fill="rgb(0%, 0%, 0%)" fill-opacity="1" d="M 37.628906 61.933594 L 37.863281 61.933594 L 38.089844 61.941406 L 38.308594 61.953125 L 38.519531 61.96875 L 38.726562 61.988281 L 38.921875 62.015625 L 39.109375 62.042969 L 39.292969 62.078125 L 39.464844 62.117188 L 39.632812 62.160156 L 39.792969 62.207031 L 39.945312 62.257812 L 40.089844 62.308594 L 40.230469 62.367188 L 40.367188 62.425781 L 40.492188 62.488281 L 40.617188 62.554688 L 40.730469 62.625 L 40.839844 62.699219 L 40.945312 62.777344 L 41.042969 62.855469 L 41.132812 62.9375 L 41.21875 63.019531 L 41.300781 63.109375 L 41.375 63.199219 L 41.441406 63.289062 L 41.503906 63.386719 L 41.5625 63.484375 L 41.613281 63.585938 L 41.660156 63.691406 L 41.703125 63.796875 L 41.738281 63.902344 L 41.800781 64.121094 L 41.824219 64.234375 L 41.84375 64.347656 L 41.859375 64.460938 L 41.875 64.695312 L 41.878906 64.816406 L 41.875 64.933594 L 41.867188 65.054688 L 41.859375 65.167969 L 41.84375 65.285156 L 41.824219 65.398438 L 41.800781 65.507812 L 41.769531 65.621094 L 41.738281 65.726562 L 41.703125 65.835938 L 41.660156 65.941406 L 41.613281 66.042969 L 41.5625 66.144531 L 41.503906 66.242188 L 41.441406 66.335938 L 41.375 66.425781 L 41.300781 66.515625 L 41.21875 66.605469 L 41.132812 66.6875 L 41.042969 66.769531 L 40.945312 66.847656 L 40.84375 66.921875 L 40.734375 66.992188 L 40.617188 67.0625 L 40.496094 67.128906 L 40.371094 67.1875 L 40.097656 67.304688 L 39.949219 67.355469 L 39.796875 67.40625 L 39.640625 67.453125 L 39.472656 67.492188 L 39.296875 67.53125 L 39.117188 67.5625 L 38.925781 67.589844 L 38.730469 67.613281 L 38.523438 67.632812 L 38.3125 67.648438 L 38.09375 67.660156 L 37.863281 67.664062 L 37.628906 67.667969 L 37.382812 67.664062 L 37.148438 67.660156 L 36.917969 67.648438 L 36.699219 67.632812 L 36.488281 67.613281 L 36.289062 67.589844 L 36.09375 67.5625 L 35.910156 67.53125 L 35.734375 67.492188 L 35.566406 67.453125 L 35.40625 67.40625 L 35.25 67.355469 L 35.105469 67.304688 L 34.964844 67.246094 L 34.828125 67.1875 L 34.703125 67.125 L 34.582031 67.058594 L 34.46875 66.988281 L 34.359375 66.917969 L 34.261719 66.84375 L 34.164062 66.761719 L 34.078125 66.683594 L 33.996094 66.597656 L 33.917969 66.511719 L 33.847656 66.421875 L 33.78125 66.328125 L 33.722656 66.230469 L 33.667969 66.132812 L 33.621094 66.03125 L 33.582031 65.929688 L 33.542969 65.820312 L 33.507812 65.714844 L 33.480469 65.601562 L 33.453125 65.492188 L 33.429688 65.378906 L 33.398438 65.144531 L 33.382812 64.902344 L 33.382812 64.660156 L 33.390625 64.546875 L 33.398438 64.429688 L 33.414062 64.316406 L 33.429688 64.207031 L 33.453125 64.097656 L 33.480469 63.988281 L 33.507812 63.882812 L 33.542969 63.777344 L 33.582031 63.671875 L 33.621094 63.570312 L 33.667969 63.46875 L 33.722656 63.371094 L 33.78125 63.277344 L 33.847656 63.183594 L 33.917969 63.09375 L 33.996094 63.007812 L 34.078125 62.925781 L 34.164062 62.84375 L 34.359375 62.6875 L 34.46875 62.617188 L 34.582031 62.546875 L 34.703125 62.480469 L 34.828125 62.417969 L 34.964844 62.359375 L 35.105469 62.304688 L 35.25 62.25 L 35.40625 62.199219 L 35.566406 62.15625 L 35.734375 62.113281 L 35.910156 62.074219 L 36.09375 62.039062 L 36.289062 62.011719 L 36.488281 61.988281 L 36.699219 61.96875 L 36.917969 61.953125 L 37.148438 61.941406 L 37.382812 61.933594 Z M 37.628906 63.003906 L 37.4375 63.003906 L 37.25 63.007812 L 37.070312 63.015625 L 36.894531 63.023438 L 36.726562 63.035156 L 36.566406 63.046875 L 36.414062 63.0625 L 36.269531 63.078125 L 36.128906 63.097656 L 35.996094 63.121094 L 35.867188 63.144531 L 35.742188 63.171875 L 35.625 63.203125 L 35.511719 63.234375 L 35.40625 63.265625 L 35.304688 63.300781 L 35.207031 63.339844 L 35.117188 63.378906 L 35.03125 63.421875 L 34.875 63.515625 L 34.804688 63.5625 L 34.738281 63.613281 L 34.675781 63.667969 L 34.617188 63.722656 L 34.566406 63.777344 L 34.515625 63.839844 L 34.472656 63.898438 L 34.433594 63.964844 L 34.339844 64.164062 L 34.316406 64.234375 L 34.277344 64.382812 L 34.261719 64.457031 L 34.25 64.535156 L 34.242188 64.613281 L 34.238281 64.695312 L 34.238281 64.867188 L 34.242188 64.953125 L 34.25 65.039062 L 34.261719 65.117188 L 34.277344 65.199219 L 34.296875 65.277344 L 34.316406 65.351562 L 34.339844 65.425781 L 34.402344 65.566406 L 34.4375 65.632812 L 34.476562 65.695312 L 34.519531 65.757812 L 34.570312 65.820312 L 34.621094 65.878906 L 34.679688 65.933594 L 34.742188 65.988281 L 34.808594 66.039062 L 34.957031 66.140625 L 35.121094 66.226562 L 35.308594 66.304688 L 35.410156 66.339844 L 35.628906 66.402344 L 35.75 66.433594 L 35.871094 66.460938 L 36 66.484375 L 36.132812 66.507812 L 36.273438 66.527344 L 36.421875 66.542969 L 36.574219 66.558594 L 36.734375 66.574219 L 36.898438 66.582031 L 37.070312 66.589844 L 37.25 66.597656 L 37.4375 66.601562 L 37.816406 66.601562 L 37.996094 66.597656 L 38.171875 66.589844 L 38.339844 66.582031 L 38.503906 66.574219 L 38.660156 66.558594 L 38.8125 66.542969 L 38.957031 66.527344 L 39.09375 66.507812 L 39.230469 66.484375 L 39.480469 66.429688 L 39.597656 66.402344 L 39.707031 66.371094 L 39.816406 66.335938 L 39.917969 66.300781 L 40.015625 66.261719 L 40.109375 66.21875 L 40.195312 66.175781 L 40.277344 66.132812 L 40.355469 66.085938 L 40.425781 66.035156 L 40.492188 65.984375 L 40.558594 65.929688 L 40.617188 65.875 L 40.671875 65.816406 L 40.722656 65.757812 L 40.765625 65.695312 L 40.808594 65.628906 L 40.847656 65.566406 L 40.878906 65.496094 L 40.933594 65.355469 L 40.972656 65.207031 L 40.988281 65.128906 L 41 65.050781 L 41.015625 64.886719 L 41.015625 64.71875 L 41 64.5625 L 40.988281 64.484375 L 40.972656 64.40625 L 40.953125 64.332031 L 40.933594 64.261719 L 40.878906 64.121094 L 40.847656 64.054688 L 40.808594 63.988281 L 40.765625 63.921875 L 40.722656 63.863281 L 40.671875 63.800781 L 40.617188 63.746094 L 40.558594 63.691406 L 40.492188 63.636719 L 40.425781 63.585938 L 40.355469 63.539062 L 40.277344 63.492188 L 40.195312 63.445312 L 40.109375 63.402344 L 40.015625 63.359375 L 39.917969 63.320312 L 39.816406 63.285156 L 39.707031 63.25 L 39.597656 63.21875 L 39.480469 63.1875 L 39.230469 63.132812 L 38.957031 63.085938 L 38.8125 63.066406 L 38.660156 63.050781 L 38.503906 63.035156 L 38.339844 63.023438 L 38.171875 63.015625 L 37.996094 63.007812 L 37.816406 63.003906 Z M 37.628906 63.003906 "/>
<path fill-rule="nonzero" fill="rgb(0%, 0%, 0%)" fill-opacity="1" d="M 37.628906 55.257812 L 37.863281 55.261719 L 38.089844 55.265625 L 38.308594 55.277344 L 38.519531 55.292969 L 38.726562 55.316406 L 38.921875 55.339844 L 39.109375 55.371094 L 39.292969 55.402344 L 39.464844 55.441406 L 39.632812 55.488281 L 39.792969 55.53125 L 39.945312 55.582031 L 40.089844 55.636719 L 40.230469 55.691406 L 40.367188 55.75 L 40.617188 55.882812 L 40.730469 55.953125 L 40.839844 56.023438 L 40.945312 56.101562 L 41.042969 56.179688 L 41.132812 56.261719 L 41.21875 56.347656 L 41.300781 56.433594 L 41.375 56.523438 L 41.441406 56.617188 L 41.503906 56.710938 L 41.5625 56.808594 L 41.613281 56.910156 L 41.660156 57.015625 L 41.703125 57.121094 L 41.738281 57.230469 L 41.800781 57.449219 L 41.824219 57.5625 L 41.84375 57.675781 L 41.859375 57.789062 L 41.875 58.023438 L 41.878906 58.140625 L 41.875 58.261719 L 41.859375 58.496094 L 41.84375 58.609375 L 41.824219 58.722656 L 41.800781 58.835938 L 41.738281 59.054688 L 41.703125 59.160156 L 41.660156 59.265625 L 41.613281 59.367188 L 41.5625 59.46875 L 41.503906 59.566406 L 41.441406 59.660156 L 41.375 59.753906 L 41.300781 59.84375 L 41.21875 59.929688 L 41.132812 60.015625 L 41.042969 60.09375 L 40.945312 60.175781 L 40.84375 60.25 L 40.734375 60.320312 L 40.617188 60.386719 L 40.496094 60.453125 L 40.371094 60.515625 L 40.234375 60.574219 L 40.097656 60.628906 L 39.949219 60.683594 L 39.796875 60.730469 L 39.640625 60.777344 L 39.472656 60.820312 L 39.296875 60.855469 L 39.117188 60.886719 L 38.925781 60.917969 L 38.730469 60.941406 L 38.523438 60.960938 L 38.3125 60.976562 L 38.09375 60.984375 L 37.863281 60.992188 L 37.628906 60.996094 L 37.382812 60.992188 L 37.148438 60.984375 L 36.917969 60.976562 L 36.699219 60.960938 L 36.488281 60.941406 L 36.289062 60.917969 L 36.09375 60.886719 L 35.910156 60.855469 L 35.734375 60.820312 L 35.566406 60.777344 L 35.40625 60.730469 L 35.25 60.683594 L 35.105469 60.628906 L 34.964844 60.574219 L 34.828125 60.515625 L 34.703125 60.453125 L 34.582031 60.386719 L 34.46875 60.316406 L 34.359375 60.242188 L 34.261719 60.167969 L 34.164062 60.089844 L 34.078125 60.007812 L 33.996094 59.921875 L 33.917969 59.835938 L 33.847656 59.746094 L 33.78125 59.652344 L 33.722656 59.558594 L 33.667969 59.460938 L 33.621094 59.359375 L 33.542969 59.148438 L 33.507812 59.039062 L 33.480469 58.929688 L 33.453125 58.816406 L 33.429688 58.703125 L 33.398438 58.46875 L 33.390625 58.351562 L 33.382812 58.230469 L 33.382812 57.988281 L 33.390625 57.871094 L 33.398438 57.757812 L 33.429688 57.53125 L 33.453125 57.421875 L 33.480469 57.316406 L 33.507812 57.207031 L 33.542969 57.101562 L 33.582031 57 L 33.621094 56.894531 L 33.667969 56.796875 L 33.722656 56.699219 L 33.78125 56.601562 L 33.847656 56.511719 L 33.917969 56.421875 L 33.996094 56.335938 L 34.078125 56.25 L 34.164062 56.167969 L 34.261719 56.089844 L 34.359375 56.015625 L 34.46875 55.941406 L 34.582031 55.871094 L 34.703125 55.808594 L 34.828125 55.746094 L 34.964844 55.683594 L 35.105469 55.628906 L 35.25 55.578125 L 35.40625 55.527344 L 35.566406 55.480469 L 35.734375 55.4375 L 35.910156 55.402344 L 36.09375 55.367188 L 36.289062 55.339844 L 36.488281 55.3125 L 36.699219 55.292969 L 36.917969 55.277344 L 37.148438 55.265625 L 37.382812 55.261719 Z M 37.628906 56.332031 L 37.4375 56.332031 L 37.25 56.335938 L 37.070312 56.339844 L 36.894531 56.347656 L 36.726562 56.359375 L 36.566406 56.371094 L 36.414062 56.386719 L 36.269531 56.40625 L 36.128906 56.425781 L 35.996094 56.449219 L 35.867188 56.472656 L 35.742188 56.5 L 35.625 56.527344 L 35.511719 56.558594 L 35.40625 56.59375 L 35.304688 56.628906 L 35.207031 56.667969 L 35.117188 56.707031 L 35.03125 56.75 L 34.953125 56.792969 L 34.875 56.839844 L 34.804688 56.890625 L 34.738281 56.941406 L 34.675781 56.992188 L 34.617188 57.046875 L 34.515625 57.164062 L 34.472656 57.226562 L 34.433594 57.289062 L 34.371094 57.421875 L 34.339844 57.492188 L 34.316406 57.5625 L 34.296875 57.632812 L 34.277344 57.707031 L 34.261719 57.78125 L 34.25 57.859375 L 34.242188 57.941406 L 34.238281 58.023438 L 34.238281 58.195312 L 34.242188 58.28125 L 34.25 58.363281 L 34.261719 58.445312 L 34.277344 58.523438 L 34.296875 58.601562 L 34.316406 58.675781 L 34.339844 58.75 L 34.402344 58.890625 L 34.4375 58.957031 L 34.476562 59.023438 L 34.519531 59.085938 L 34.621094 59.203125 L 34.679688 59.261719 L 34.742188 59.316406 L 34.808594 59.367188 L 34.882812 59.417969 L 34.957031 59.464844 L 35.121094 59.550781 L 35.214844 59.59375 L 35.308594 59.628906 L 35.410156 59.664062 L 35.519531 59.699219 L 35.628906 59.730469 L 35.871094 59.785156 L 36 59.8125 L 36.132812 59.832031 L 36.273438 59.851562 L 36.421875 59.871094 L 36.574219 59.886719 L 36.734375 59.898438 L 36.898438 59.910156 L 37.070312 59.917969 L 37.25 59.921875 L 37.4375 59.925781 L 37.628906 59.929688 L 37.816406 59.925781 L 37.996094 59.921875 L 38.171875 59.917969 L 38.339844 59.910156 L 38.503906 59.898438 L 38.660156 59.886719 L 38.8125 59.871094 L 38.957031 59.851562 L 39.230469 59.8125 L 39.480469 59.757812 L 39.597656 59.726562 L 39.707031 59.695312 L 39.816406 59.660156 L 39.917969 59.625 L 40.015625 59.585938 L 40.109375 59.546875 L 40.195312 59.503906 L 40.277344 59.460938 L 40.355469 59.410156 L 40.425781 59.363281 L 40.558594 59.253906 L 40.617188 59.199219 L 40.671875 59.140625 L 40.722656 59.082031 L 40.808594 58.957031 L 40.847656 58.890625 L 40.878906 58.824219 L 40.933594 58.683594 L 40.972656 58.535156 L 40.988281 58.457031 L 41 58.378906 L 41.015625 58.214844 L 41.015625 58.046875 L 41.007812 57.964844 L 41 57.886719 L 40.988281 57.808594 L 40.972656 57.734375 L 40.933594 57.585938 L 40.878906 57.445312 L 40.847656 57.378906 L 40.808594 57.3125 L 40.722656 57.1875 L 40.671875 57.128906 L 40.617188 57.070312 L 40.558594 57.015625 L 40.425781 56.914062 L 40.355469 56.863281 L 40.277344 56.816406 L 40.195312 56.769531 L 40.109375 56.726562 L 40.015625 56.6875 L 39.917969 56.648438 L 39.816406 56.609375 L 39.707031 56.574219 L 39.597656 56.542969 L 39.480469 56.511719 L 39.355469 56.484375 L 39.230469 56.460938 L 39.09375 56.433594 L 38.957031 56.414062 L 38.8125 56.394531 L 38.660156 56.375 L 38.503906 56.363281 L 38.339844 56.351562 L 38.171875 56.34375 L 37.996094 56.335938 L 37.816406 56.332031 Z M 37.628906 56.332031 "/>
<path fill-rule="nonzero" fill="rgb(0%, 0%, 0%)" fill-opacity="1" d="M 5.617188 147.363281 L 8.6875 147.363281 L 8.6875 142.757812 L 9.613281 142.757812 L 9.613281 147.363281 L 12.960938 147.363281 L 12.960938 148.484375 L 4.703125 148.484375 L 4.703125 142.617188 L 5.617188 142.617188 Z M 5.617188 147.363281 "/>
<path fill-rule="nonzero" fill="rgb(0%, 0%, 0%)" fill-opacity="1" d="M 12.960938 141.328125 L 4.265625 141.328125 L 4.265625 140.273438 L 12.960938 140.273438 Z M 12.960938 141.328125 "/>
<path fill-rule="nonzero" fill="rgb(0%, 0%, 0%)" fill-opacity="1" d="M 9.785156 133.300781 L 10.109375 133.308594 L 10.414062 133.332031 L 10.707031 133.367188 L 10.980469 133.417969 L 11.234375 133.484375 L 11.476562 133.566406 L 11.699219 133.660156 L 11.902344 133.769531 L 12.089844 133.894531 L 12.261719 134.035156 L 12.417969 134.1875 L 12.554688 134.355469 L 12.679688 134.535156 L 12.785156 134.726562 L 12.875 134.933594 L 12.945312 135.152344 L 13.003906 135.382812 L 13.042969 135.628906 L 13.070312 135.890625 L 13.078125 136.160156 L 13.074219 136.292969 L 13.070312 136.421875 L 13.058594 136.546875 L 13.046875 136.667969 L 13.027344 136.789062 L 13.003906 136.90625 L 12.980469 137.019531 L 12.949219 137.128906 L 12.914062 137.238281 L 12.878906 137.34375 L 12.835938 137.449219 L 12.789062 137.546875 L 12.738281 137.644531 L 12.683594 137.738281 L 12.625 137.828125 L 12.5625 137.914062 L 12.496094 137.996094 L 12.425781 138.078125 L 12.347656 138.15625 L 12.269531 138.230469 L 12.183594 138.300781 L 12.097656 138.367188 L 12.003906 138.429688 L 11.808594 138.546875 L 11.703125 138.597656 L 11.59375 138.648438 L 11.480469 138.695312 L 11.363281 138.738281 L 11.242188 138.78125 L 11.117188 138.816406 L 10.984375 138.847656 L 10.851562 138.875 L 10.710938 138.902344 L 10.566406 138.921875 L 10.417969 138.9375 L 10.265625 138.949219 L 10.109375 138.960938 L 9.949219 138.964844 L 9.785156 138.96875 L 9.160156 138.941406 L 8.601562 138.855469 L 8.109375 138.710938 L 7.683594 138.511719 L 7.324219 138.257812 L 7.027344 137.945312 L 6.796875 137.574219 L 6.632812 137.148438 L 6.535156 136.667969 L 6.503906 136.125 L 6.503906 135.980469 L 6.511719 135.839844 L 6.519531 135.703125 L 6.535156 135.570312 L 6.554688 135.4375 L 6.578125 135.3125 L 6.601562 135.191406 L 6.632812 135.078125 L 6.667969 134.964844 L 6.707031 134.855469 L 6.75 134.75 L 6.796875 134.648438 L 6.847656 134.550781 L 6.90625 134.457031 L 6.964844 134.367188 L 7.027344 134.28125 L 7.09375 134.199219 L 7.167969 134.121094 L 7.242188 134.046875 L 7.324219 133.976562 L 7.40625 133.910156 L 7.496094 133.84375 L 7.585938 133.785156 L 7.683594 133.726562 L 7.785156 133.675781 L 7.890625 133.625 L 7.996094 133.582031 L 8.109375 133.539062 L 8.226562 133.5 L 8.347656 133.464844 L 8.472656 133.433594 L 8.601562 133.40625 L 8.734375 133.382812 L 8.875 133.359375 L 9.015625 133.34375 L 9.160156 133.328125 L 9.308594 133.316406 L 9.464844 133.308594 L 9.621094 133.304688 Z M 9.785156 134.410156 L 9.640625 134.410156 L 9.5 134.414062 L 9.363281 134.421875 L 9.234375 134.429688 L 9.109375 134.4375 L 8.875 134.46875 L 8.769531 134.484375 L 8.664062 134.503906 L 8.566406 134.527344 L 8.472656 134.550781 L 8.382812 134.574219 L 8.292969 134.601562 L 8.210938 134.632812 L 8.132812 134.664062 L 8.058594 134.699219 L 7.988281 134.738281 L 7.855469 134.816406 L 7.796875 134.859375 L 7.742188 134.90625 L 7.640625 135 L 7.554688 135.101562 L 7.515625 135.15625 L 7.480469 135.210938 L 7.449219 135.269531 L 7.421875 135.332031 L 7.398438 135.394531 L 7.378906 135.457031 L 7.355469 135.523438 L 7.339844 135.589844 L 7.324219 135.660156 L 7.3125 135.730469 L 7.300781 135.804688 L 7.292969 135.875 L 7.285156 135.953125 L 7.285156 136.03125 L 7.28125 136.109375 L 7.292969 136.34375 L 7.300781 136.417969 L 7.3125 136.492188 L 7.328125 136.566406 L 7.359375 136.707031 L 7.429688 136.90625 L 7.460938 136.964844 L 7.492188 137.027344 L 7.527344 137.082031 L 7.566406 137.140625 L 7.609375 137.195312 L 7.65625 137.246094 L 7.707031 137.296875 L 7.757812 137.34375 L 7.875 137.4375 L 7.9375 137.480469 L 8.003906 137.519531 L 8.074219 137.558594 L 8.230469 137.628906 L 8.3125 137.660156 L 8.398438 137.691406 L 8.488281 137.71875 L 8.582031 137.742188 L 8.679688 137.765625 L 8.785156 137.785156 L 8.894531 137.804688 L 9.003906 137.820312 L 9.246094 137.84375 L 9.375 137.851562 L 9.503906 137.855469 L 9.640625 137.859375 L 9.929688 137.859375 L 10.070312 137.855469 L 10.335938 137.839844 L 10.460938 137.828125 L 10.695312 137.796875 L 10.804688 137.777344 L 10.910156 137.757812 L 11.007812 137.730469 L 11.101562 137.703125 L 11.191406 137.675781 L 11.28125 137.644531 L 11.363281 137.613281 L 11.441406 137.578125 L 11.515625 137.542969 L 11.585938 137.503906 L 11.652344 137.464844 L 11.71875 137.421875 L 11.777344 137.378906 L 11.832031 137.332031 L 11.882812 137.285156 L 11.933594 137.234375 L 11.980469 137.183594 L 12.019531 137.132812 L 12.058594 137.078125 L 12.09375 137.023438 L 12.128906 136.964844 L 12.15625 136.90625 L 12.179688 136.847656 L 12.203125 136.785156 L 12.222656 136.71875 L 12.242188 136.65625 L 12.253906 136.589844 L 12.269531 136.523438 L 12.277344 136.457031 L 12.289062 136.386719 L 12.296875 136.246094 L 12.296875 136.09375 L 12.289062 135.9375 L 12.28125 135.863281 L 12.257812 135.714844 L 12.226562 135.574219 L 12.1875 135.441406 L 12.160156 135.375 L 12.132812 135.3125 L 12.101562 135.253906 L 12.066406 135.195312 L 12.027344 135.136719 L 11.984375 135.082031 L 11.890625 134.980469 L 11.839844 134.929688 L 11.78125 134.882812 L 11.722656 134.839844 L 11.660156 134.796875 L 11.59375 134.757812 L 11.519531 134.71875 L 11.445312 134.683594 L 11.367188 134.648438 L 11.195312 134.585938 L 11.105469 134.558594 L 11.007812 134.53125 L 10.910156 134.507812 L 10.804688 134.488281 L 10.695312 134.46875 L 10.578125 134.453125 L 10.460938 134.441406 L 10.335938 134.429688 L 10.070312 134.414062 L 9.929688 134.410156 Z M 9.785156 134.410156 "/>
<path fill-rule="nonzero" fill="rgb(0%, 0%, 0%)" fill-opacity="1" d="M 12.960938 125.917969 L 12.960938 127.144531 L 8.871094 128.15625 L 8.835938 128.167969 L 8.804688 128.175781 L 8.769531 128.1875 L 8.730469 128.195312 L 8.691406 128.207031 L 8.652344 128.214844 L 8.613281 128.226562 L 8.566406 128.234375 L 8.523438 128.246094 L 8.476562 128.257812 L 8.429688 128.265625 L 8.382812 128.277344 L 8.339844 128.285156 L 8.292969 128.292969 L 8.246094 128.304688 L 8.199219 128.3125 L 8.15625 128.324219 L 8.109375 128.332031 L 8.066406 128.339844 L 8.019531 128.351562 L 7.917969 128.375 L 7.863281 128.386719 L 7.8125 128.398438 L 7.757812 128.40625 L 7.703125 128.417969 L 7.652344 128.429688 L 7.542969 128.453125 L 7.488281 128.460938 L 7.539062 128.472656 L 7.59375 128.484375 L 7.644531 128.496094 L 7.699219 128.503906 L 7.800781 128.527344 L 7.855469 128.539062 L 8.007812 128.574219 L 8.054688 128.582031 L 8.097656 128.59375 L 8.144531 128.601562 L 8.191406 128.613281 L 8.234375 128.625 L 8.28125 128.632812 L 8.375 128.65625 L 8.425781 128.667969 L 8.472656 128.679688 L 8.519531 128.6875 L 8.566406 128.699219 L 8.609375 128.710938 L 8.65625 128.71875 L 8.699219 128.730469 L 8.738281 128.738281 L 8.78125 128.75 L 8.820312 128.757812 L 8.855469 128.769531 L 8.894531 128.777344 L 12.960938 129.820312 L 12.960938 131.039062 L 6.621094 132.816406 L 6.621094 131.773438 L 10.925781 130.699219 L 10.953125 130.691406 L 10.984375 130.683594 L 11.011719 130.675781 L 11.042969 130.667969 L 11.183594 130.636719 L 11.222656 130.625 L 11.300781 130.609375 L 11.335938 130.601562 L 11.492188 130.570312 L 11.527344 130.5625 L 11.566406 130.554688 L 11.605469 130.542969 L 11.640625 130.535156 L 11.683594 130.527344 L 11.730469 130.519531 L 11.816406 130.503906 L 11.863281 130.492188 L 11.949219 130.476562 L 11.996094 130.46875 L 12.042969 130.457031 L 12.085938 130.449219 L 12.042969 130.4375 L 12 130.429688 L 11.953125 130.417969 L 11.910156 130.410156 L 11.867188 130.398438 L 11.824219 130.390625 L 11.78125 130.378906 L 11.738281 130.371094 L 11.652344 130.347656 L 11.582031 130.332031 L 11.542969 130.320312 L 11.507812 130.3125 L 11.46875 130.300781 L 11.433594 130.292969 L 11.394531 130.285156 L 11.359375 130.273438 L 11.320312 130.265625 L 11.285156 130.253906 L 11.246094 130.246094 L 11.210938 130.238281 L 11.175781 130.226562 L 11.082031 130.203125 L 10.972656 130.171875 L 6.621094 129.023438 L 6.621094 127.894531 L 10.972656 126.785156 L 11.035156 126.769531 L 11.070312 126.761719 L 11.101562 126.753906 L 11.136719 126.742188 L 11.242188 126.71875 L 11.28125 126.707031 L 11.320312 126.699219 L 11.359375 126.6875 L 11.394531 126.679688 L 11.433594 126.671875 L 11.46875 126.660156 L 11.507812 126.652344 L 11.613281 126.628906 L 11.648438 126.617188 L 11.683594 126.609375 L 11.761719 126.59375 L 11.800781 126.582031 L 11.84375 126.574219 L 11.882812 126.5625 L 11.921875 126.554688 L 11.964844 126.546875 L 12.003906 126.535156 L 12.046875 126.527344 L 12.085938 126.515625 L 12 126.5 L 11.953125 126.488281 L 11.910156 126.480469 L 11.867188 126.46875 L 11.78125 126.453125 L 11.738281 126.441406 L 11.695312 126.433594 L 11.652344 126.421875 L 11.582031 126.40625 L 11.542969 126.398438 L 11.507812 126.390625 L 11.429688 126.375 L 11.394531 126.367188 L 11.355469 126.359375 L 11.316406 126.347656 L 11.199219 126.324219 L 11.164062 126.3125 L 11.125 126.304688 L 11.089844 126.296875 L 11.054688 126.285156 L 11.023438 126.277344 L 10.988281 126.269531 L 10.925781 126.253906 L 6.621094 125.132812 L 6.621094 124.101562 Z M 12.960938 125.917969 "/>
<path fill="none" stroke-width="0.75" stroke-linecap="round" stroke-linejoin="round" stroke="rgb(0%, 0%, 0%)" stroke-opacity="1" stroke-miterlimit="10" d="M 59.039062 214.558594 L 257.761719 214.558594 L 257.761719 59.039062 L 59.039062 59.039062 Z M 59.039062 214.558594 "/>
<path fill-rule="nonzero" fill="rgb(74.509804%, 74.509804%, 74.509804%)" fill-opacity="1" stroke-width="0.75" stroke-linecap="round" stroke-linejoin="round" stroke="rgb(0%, 0%, 0%)" stroke-opacity="1" stroke-miterlimit="10" d="M 161.101562 196.992188 C 161.101562 200.59375 155.699219 200.59375 155.699219 196.992188 C 155.699219 193.390625 161.101562 193.390625 161.101562 196.992188 "/>
<path fill-rule="nonzero" fill="rgb(74.509804%, 74.509804%, 74.509804%)" fill-opacity="1" stroke-width="0.75" stroke-linecap="round" stroke-linejoin="round" stroke="rgb(0%, 0%, 0%)" stroke-opacity="1" stroke-miterlimit="10" d="M 161.101562 163.296875 C 161.101562 166.894531 155.699219 166.894531 155.699219 163.296875 C 155.699219 159.695312 161.101562 159.695312 161.101562 163.296875 "/>
<path fill-rule="nonzero" fill="rgb(74.509804%, 74.509804%, 74.509804%)" fill-opacity="1" stroke-width="0.75" stroke-linecap="round" stroke-linejoin="round" stroke="rgb(0%, 0%, 0%)" stroke-opacity="1" stroke-miterlimit="10" d="M 161.101562 151.777344 C 161.101562 155.375 155.699219 155.375 155.699219 151.777344 C 155.699219 148.175781 161.101562 148.175781 161.101562 151.777344 "/>
<path fill-rule="nonzero" fill="rgb(74.509804%, 74.509804%, 74.509804%)" fill-opacity="1" stroke-width="0.75" stroke-linecap="round" stroke-linejoin="round" stroke="rgb(0%, 0%, 0%)" stroke-opacity="1" stroke-miterlimit="10" d="M 161.101562 128.160156 C 161.101562 131.761719 155.699219 131.761719 155.699219 128.160156 C 155.699219 124.558594 161.101562 124.558594 161.101562 128.160156 "/>
<path fill-rule="nonzero" fill="rgb(74.509804%, 74.509804%, 74.509804%)" fill-opacity="1" stroke-width="0.75" stroke-linecap="round" stroke-linejoin="round" stroke="rgb(0%, 0%, 0%)" stroke-opacity="1" stroke-miterlimit="10" d="M 161.101562 116.0625 C 161.101562 119.664062 155.699219 119.664062 155.699219 116.0625 C 155.699219 112.464844 161.101562 112.464844 161.101562 116.0625 "/>
<path fill-rule="nonzero" fill="rgb(74.509804%, 74.509804%, 74.509804%)" fill-opacity="1" stroke-width="0.75" stroke-linecap="round" stroke-linejoin="round" stroke="rgb(0%, 0%, 0%)" stroke-opacity="1" stroke-miterlimit="10" d="M 161.101562 121.535156 C 161.101562 125.136719 155.699219 125.136719 155.699219 121.535156 C 155.699219 117.9375 161.101562 117.9375 161.101562 121.535156 "/>
<path fill-rule="nonzero" fill="rgb(74.509804%, 74.509804%, 74.509804%)" fill-opacity="1" stroke-width="0.75" stroke-linecap="round" stroke-linejoin="round" stroke="rgb(0%, 0%, 0%)" stroke-opacity="1" stroke-miterlimit="10" d="M 161.101562 190.945312 C 161.101562 194.542969 155.699219 194.542969 155.699219 190.945312 C 155.699219 187.34375 161.101562 187.34375 161.101562 190.945312 "/>
<path fill-rule="nonzero" fill="rgb(74.509804%, 74.509804%, 74.509804%)" fill-opacity="1" stroke-width="0.75" stroke-linecap="round" stroke-linejoin="round" stroke="rgb(0%, 0%, 0%)" stroke-opacity="1" stroke-miterlimit="10" d="M 161.101562 185.761719 C 161.101562 189.359375 155.699219 189.359375 155.699219 185.761719 C 155.699219 182.160156 161.101562 182.160156 161.101562 185.761719 "/>
<path fill-rule="nonzero" fill="rgb(74.509804%, 74.509804%, 74.509804%)" fill-opacity="1" stroke-width="0.75" stroke-linecap="round" stroke-linejoin="round" stroke="rgb(0%, 0%, 0%)" stroke-opacity="1" stroke-miterlimit="10" d="M 161.101562 180 C 161.101562 183.601562 155.699219 183.601562 155.699219 180 C 155.699219 176.398438 161.101562 176.398438 161.101562 180 "/>
<path fill-rule="nonzero" fill="rgb(74.509804%, 74.509804%, 74.509804%)" fill-opacity="1" stroke-width="0.75" stroke-linecap="round" stroke-linejoin="round" stroke="rgb(0%, 0%, 0%)" stroke-opacity="1" stroke-miterlimit="10" d="M 161.101562 168.480469 C 161.101562 172.078125 155.699219 172.078125 155.699219 168.480469 C 155.699219 164.878906 161.101562 164.878906 161.101562 168.480469 "/>
<path fill-rule="nonzero" fill="rgb(74.509804%, 74.509804%, 74.509804%)" fill-opacity="1" stroke-width="0.75" stroke-linecap="round" stroke-linejoin="round" stroke="rgb(0%, 0%, 0%)" stroke-opacity="1" stroke-miterlimit="10" d="M 161.101562 162.71875 C 161.101562 166.320312 155.699219 166.320312 155.699219 162.71875 C 155.699219 159.121094 161.101562 159.121094 161.101562 162.71875 "/>
<path fill-rule="nonzero" fill="rgb(74.509804%, 74.509804%, 74.509804%)" fill-opacity="1" stroke-width="0.75" stroke-linecap="round" stroke-linejoin="round" stroke="rgb(0%, 0%, 0%)" stroke-opacity="1" stroke-miterlimit="10" d="M 161.101562 119.519531 C 161.101562 123.121094 155.699219 123.121094 155.699219 119.519531 C 155.699219 115.921875 161.101562 115.921875 161.101562 119.519531 "/>
<path fill-rule="nonzero" fill="rgb(74.509804%, 74.509804%, 74.509804%)" fill-opacity="1" stroke-width="0.75" stroke-linecap="round" stroke-linejoin="round" stroke="rgb(0%, 0%, 0%)" stroke-opacity="1" stroke-miterlimit="10" d="M 161.101562 201.601562 C 161.101562 205.199219 155.699219 205.199219 155.699219 201.601562 C 155.699219 198 161.101562 198 161.101562 201.601562 "/>
<path fill-rule="nonzero" fill="rgb(74.509804%, 74.509804%, 74.509804%)" fill-opacity="1" stroke-width="0.75" stroke-linecap="round" stroke-linejoin="round" stroke="rgb(0%, 0%, 0%)" stroke-opacity="1" stroke-miterlimit="10" d="M 161.101562 190.65625 C 161.101562 194.257812 155.699219 194.257812 155.699219 190.65625 C 155.699219 187.054688 161.101562 187.054688 161.101562 190.65625 "/>
<path fill-rule="nonzero" fill="rgb(74.509804%, 74.509804%, 74.509804%)" fill-opacity="1" stroke-width="0.75" stroke-linecap="round" stroke-linejoin="round" stroke="rgb(0%, 0%, 0%)" stroke-opacity="1" stroke-miterlimit="10" d="M 161.101562 186.046875 C 161.101562 189.648438 155.699219 189.648438 155.699219 186.046875 C 155.699219 182.449219 161.101562 182.449219 161.101562 186.046875 "/>
<path fill-rule="nonzero" fill="rgb(74.509804%, 74.509804%, 74.509804%)" fill-opacity="1" stroke-width="0.75" stroke-linecap="round" stroke-linejoin="round" stroke="rgb(0%, 0%, 0%)" stroke-opacity="1" stroke-miterlimit="10" d="M 161.101562 184.320312 C 161.101562 187.921875 155.699219 187.921875 155.699219 184.320312 C 155.699219 180.71875 161.101562 180.71875 161.101562 184.320312 "/>
<path fill-rule="nonzero" fill="rgb(74.509804%, 74.509804%, 74.509804%)" fill-opacity="1" stroke-width="0.75" stroke-linecap="round" stroke-linejoin="round" stroke="rgb(0%, 0%, 0%)" stroke-opacity="1" stroke-miterlimit="10" d="M 161.101562 188.0625 C 161.101562 191.664062 155.699219 191.664062 155.699219 188.0625 C 155.699219 184.464844 161.101562 184.464844 161.101562 188.0625 "/>
<path fill-rule="nonzero" fill="rgb(74.509804%, 74.509804%, 74.509804%)" fill-opacity="1" stroke-width="0.75" stroke-linecap="round" stroke-linejoin="round" stroke="rgb(0%, 0%, 0%)" stroke-opacity="1" stroke-miterlimit="10" d="M 161.101562 156.671875 C 161.101562 160.273438 155.699219 160.273438 155.699219 156.671875 C 155.699219 153.070312 161.101562 153.070312 161.101562 156.671875 "/>
<path fill-rule="nonzero" fill="rgb(74.509804%, 74.509804%, 74.509804%)" fill-opacity="1" stroke-width="0.75" stroke-linecap="round" stroke-linejoin="round" stroke="rgb(0%, 0%, 0%)" stroke-opacity="1" stroke-miterlimit="10" d="M 161.101562 174.816406 C 161.101562 178.414062 155.699219 178.414062 155.699219 174.816406 C 155.699219 171.214844 161.101562 171.214844 161.101562 174.816406 "/>
<path fill-rule="nonzero" fill="rgb(74.509804%, 74.509804%, 74.509804%)" fill-opacity="1" stroke-width="0.75" stroke-linecap="round" stroke-linejoin="round" stroke="rgb(0%, 0%, 0%)" stroke-opacity="1" stroke-miterlimit="10" d="M 161.101562 136.222656 C 161.101562 139.824219 155.699219 139.824219 155.699219 136.222656 C 155.699219 132.625 161.101562 132.625 161.101562 136.222656 "/>
<path fill-rule="nonzero" fill="rgb(74.509804%, 74.509804%, 74.509804%)" fill-opacity="1" stroke-width="0.75" stroke-linecap="round" stroke-linejoin="round" stroke="rgb(0%, 0%, 0%)" stroke-opacity="1" stroke-miterlimit="10" d="M 161.101562 118.078125 C 161.101562 121.679688 155.699219 121.679688 155.699219 118.078125 C 155.699219 114.480469 161.101562 114.480469 161.101562 118.078125 "/>
<path fill-rule="nonzero" fill="rgb(74.509804%, 74.509804%, 74.509804%)" fill-opacity="1" stroke-width="0.75" stroke-linecap="round" stroke-linejoin="round" stroke="rgb(0%, 0%, 0%)" stroke-opacity="1" stroke-miterlimit="10" d="M 161.101562 65.375 C 161.101562 68.976562 155.699219 68.976562 155.699219 65.375 C 155.699219 61.777344 161.101562 61.777344 161.101562 65.375 "/>
<path fill-rule="nonzero" fill="rgb(74.509804%, 74.509804%, 74.509804%)" fill-opacity="1" stroke-width="0.75" stroke-linecap="round" stroke-linejoin="round" stroke="rgb(0%, 0%, 0%)" stroke-opacity="1" stroke-miterlimit="10" d="M 161.101562 96.480469 C 161.101562 100.078125 155.699219 100.078125 155.699219 96.480469 C 155.699219 92.878906 161.101562 92.878906 161.101562 96.480469 "/>
<path fill-rule="nonzero" fill="rgb(74.509804%, 74.509804%, 74.509804%)" fill-opacity="1" stroke-width="0.75" stroke-linecap="round" stroke-linejoin="round" stroke="rgb(0%, 0%, 0%)" stroke-opacity="1" stroke-miterlimit="10" d="M 161.101562 70.558594 C 161.101562 74.160156 155.699219 74.160156 155.699219 70.558594 C 155.699219 66.960938 161.101562 66.960938 161.101562 70.558594 "/>
</svg>
