<?xml version="1.0" encoding="UTF-8"?>
<svg xmlns="http://www.w3.org/2000/svg" xmlns:xlink="http://www.w3.org/1999/xlink" width="288" height="288" viewBox="0 0 288 288">
<rect x="-28.8" y="-28.8" width="345.6" height="345.6" fill="rgb(100%, 100%, 100%)" fill-opacity="1"/>
<rect x="-28.8" y="-28.8" width="345.6" height="345.6" fill="rgb(100%, 100%, 100%)" fill-opacity="1"/>
<path fill="none" stroke-width="0.75" stroke-linecap="round" stroke-linejoin="round" stroke="rgb(74.509804%, 74.509804%, 74.509804%)" stroke-opacity="1" stroke-miterlimit="10" d="M 24 288 L 24 0 "/>
<path fill="none" stroke-width="0.75" stroke-linecap="round" stroke-linejoin="round" stroke="rgb(74.509804%, 74.509804%, 74.509804%)" stroke-opacity="1" stroke-miterlimit="10" d="M 86.113281 288 L 86.113281 0 "/>
<path fill="none" stroke-width="0.75" stroke-linecap="round" stroke-linejoin="round" stroke="rgb(74.509804%, 74.509804%, 74.509804%)" stroke-opacity="1" stroke-miterlimit="10" d="M 148.222656 288 L 148.222656 0 "/>
<path fill="none" stroke-width="0.75" stroke-linecap="round" stroke-linejoin="round" stroke="rgb(74.509804%, 74.509804%, 74.509804%)" stroke-opacity="1" stroke-miterlimit="10" d="M 210.335938 288 L 210.335938 0 "/>
<path fill="none" stroke-width="0.75" stroke-linecap="round" stroke-linejoin="round" stroke="rgb(74.509804%, 74.509804%, 74.509804%)" stroke-opacity="1" stroke-miterlimit="10" d="M 272.445312 288 L 272.445312 0 "/>
<path fill="none" stroke-width="0.75" stroke-linecap="round" stroke-linejoin="round" stroke="rgb(74.509804%, 74.509804%, 74.509804%)" stroke-opacity="1" stroke-miterlimit="10" d="M 0 271.019531 L 288 271.019531 "/>
<path fill="none" stroke-width="0.75" stroke-linecap="round" stroke-linejoin="round" stroke="rgb(74.509804%, 74.509804%, 74.509804%)" stroke-opacity="1" stroke-miterlimit="10" d="M 0 208.90625 L 288 208.90625 "/>
<path fill="none" stroke-width="0.75" stroke-linecap="round" stroke-linejoin="round" stroke="rgb(74.509804%, 74.509804%, 74.509804%)" stroke-opacity="1" stroke-miterlimit="10" d="M 0 146.796875 L 288 146.796875 "/>
<path fill="none" stroke-width="0.75" stroke-linecap="round" stroke-linejoin="round" stroke="rgb(74.509804%, 74.509804%, 74.509804%)" stroke-opacity="1" stroke-miterlimit="10" d="M 0 84.683594 L 288 84.683594 "/>
<path fill="none" stroke-width="0.75" stroke-linecap="round" stroke-linejoin="round" stroke="rgb(74.509804%, 74.509804%, 74.509804%)" stroke-opacity="1" stroke-miterlimit="10" d="M 0 22.570312 L 288 22.570312 "/>
<path fill-rule="nonzero" fill="rgb(100%, 100%, 100%)" fill-opacity="1" d="M 233.230469 14.015625 L 273.601562 14.015625 L 273.601562 5.761719 L 233.230469 5.761719 Z M 233.230469 14.015625 "/>
<path fill-rule="nonzero" fill="rgb(0%, 0%, 0%)" fill-opacity="1" d="M 238.039062 12.996094 L 237.980469 13.113281 L 237.914062 13.226562 L 237.847656 13.332031 L 237.773438 13.429688 L 237.699219 13.519531 L 237.617188 13.601562 L 237.535156 13.679688 L 237.445312 13.75 L 237.355469 13.8125 L 237.261719 13.871094 L 237.058594 13.964844 L 236.949219 14.003906 L 236.839844 14.039062 L 236.722656 14.066406 L 236.597656 14.089844 L 236.472656 14.109375 L 236.339844 14.121094 L 236.207031 14.128906 L 236.066406 14.132812 L 235.832031 14.125 L 235.609375 14.101562 L 235.402344 14.058594 L 235.207031 14.003906 L 235.023438 13.929688 L 234.851562 13.84375 L 234.691406 13.738281 L 234.546875 13.617188 L 234.414062 13.476562 L 234.296875 13.324219 L 234.1875 13.15625 L 234.09375 12.96875 L 234.007812 12.765625 L 233.933594 12.542969 L 233.875 12.308594 L 233.824219 12.054688 L 233.785156 11.785156 L 233.753906 11.5 L 233.738281 11.195312 L 233.734375 10.875 L 233.757812 10.246094 L 233.824219 9.679688 L 233.941406 9.183594 L 234.105469 8.753906 L 234.316406 8.386719 L 234.574219 8.089844 L 234.875 7.855469 L 235.226562 7.691406 L 235.621094 7.59375 L 236.066406 7.558594 L 236.207031 7.5625 L 236.34375 7.570312 L 236.476562 7.582031 L 236.601562 7.601562 L 236.726562 7.625 L 236.84375 7.652344 L 236.957031 7.6875 L 237.0625 7.726562 L 237.167969 7.773438 L 237.265625 7.824219 L 237.359375 7.878906 L 237.449219 7.941406 L 237.539062 8.007812 L 237.621094 8.082031 L 237.699219 8.164062 L 237.773438 8.25 L 237.847656 8.34375 L 237.914062 8.441406 L 237.980469 8.546875 L 238.039062 8.660156 L 238.050781 8.660156 L 238.050781 8.566406 L 238.046875 8.546875 L 238.046875 8.425781 L 238.042969 8.402344 L 238.042969 8.269531 L 238.039062 8.242188 L 238.039062 5.320312 L 239.09375 5.320312 L 239.09375 13.191406 L 239.097656 13.230469 L 239.097656 13.3125 L 239.101562 13.351562 L 239.101562 13.425781 L 239.105469 13.464844 L 239.105469 13.570312 L 239.109375 13.605469 L 239.109375 13.667969 L 239.113281 13.699219 L 239.113281 13.757812 L 239.117188 13.785156 L 239.117188 13.863281 L 239.121094 13.886719 L 239.121094 13.925781 L 239.125 13.945312 L 239.125 13.976562 L 239.128906 13.992188 L 239.128906 14.015625 L 238.121094 14.015625 L 238.121094 14.003906 L 238.117188 13.992188 L 238.113281 13.976562 L 238.113281 13.960938 L 238.109375 13.945312 L 238.109375 13.929688 L 238.101562 13.890625 L 238.101562 13.871094 L 238.097656 13.851562 L 238.097656 13.828125 L 238.09375 13.804688 L 238.09375 13.757812 L 238.089844 13.734375 L 238.089844 13.707031 L 238.085938 13.679688 L 238.085938 13.65625 L 238.082031 13.628906 L 238.082031 13.601562 L 238.078125 13.570312 L 238.078125 13.515625 L 238.074219 13.484375 L 238.074219 13.398438 L 238.070312 13.367188 L 238.070312 13.308594 L 238.066406 13.273438 L 238.066406 13.179688 L 238.0625 13.148438 L 238.0625 12.996094 Z M 234.839844 10.839844 L 234.839844 10.96875 L 234.847656 11.21875 L 234.851562 11.335938 L 234.859375 11.449219 L 234.871094 11.558594 L 234.878906 11.667969 L 234.894531 11.769531 L 234.90625 11.871094 L 234.921875 11.964844 L 234.941406 12.058594 L 234.980469 12.230469 L 235.027344 12.394531 L 235.054688 12.46875 L 235.117188 12.609375 L 235.152344 12.675781 L 235.1875 12.738281 L 235.222656 12.796875 L 235.261719 12.851562 L 235.347656 12.953125 L 235.390625 12.996094 L 235.441406 13.039062 L 235.488281 13.078125 L 235.539062 13.117188 L 235.648438 13.179688 L 235.707031 13.203125 L 235.765625 13.230469 L 235.828125 13.25 L 235.894531 13.269531 L 235.960938 13.285156 L 236.03125 13.296875 L 236.101562 13.304688 L 236.175781 13.3125 L 236.253906 13.316406 L 236.335938 13.320312 L 236.417969 13.316406 L 236.496094 13.3125 L 236.652344 13.296875 L 236.726562 13.285156 L 236.867188 13.253906 L 236.9375 13.230469 L 237.003906 13.210938 L 237.128906 13.15625 L 237.191406 13.125 L 237.25 13.089844 L 237.308594 13.050781 L 237.359375 13.007812 L 237.414062 12.964844 L 237.464844 12.914062 L 237.511719 12.863281 L 237.558594 12.808594 L 237.601562 12.75 L 237.640625 12.6875 L 237.683594 12.621094 L 237.71875 12.550781 L 237.757812 12.476562 L 237.820312 12.320312 L 237.851562 12.234375 L 237.90625 12.054688 L 237.929688 11.960938 L 237.96875 11.757812 L 237.984375 11.648438 L 238 11.535156 L 238.011719 11.417969 L 238.023438 11.296875 L 238.03125 11.171875 L 238.035156 11.042969 L 238.039062 10.910156 L 238.039062 10.636719 L 238.035156 10.507812 L 238.03125 10.382812 L 238.023438 10.265625 L 238.011719 10.148438 L 238 10.035156 L 237.984375 9.929688 L 237.96875 9.828125 L 237.949219 9.726562 L 237.929688 9.632812 L 237.90625 9.542969 L 237.878906 9.453125 L 237.851562 9.367188 L 237.820312 9.285156 L 237.757812 9.136719 L 237.71875 9.066406 L 237.683594 9 L 237.640625 8.9375 L 237.601562 8.878906 L 237.554688 8.820312 L 237.460938 8.71875 L 237.410156 8.671875 L 237.359375 8.632812 L 237.304688 8.589844 L 237.246094 8.554688 L 237.128906 8.492188 L 237.066406 8.46875 L 237.003906 8.441406 L 236.871094 8.402344 L 236.800781 8.382812 L 236.660156 8.359375 L 236.582031 8.351562 L 236.507812 8.34375 L 236.425781 8.339844 L 236.269531 8.339844 L 236.195312 8.34375 L 236.054688 8.359375 L 235.984375 8.371094 L 235.921875 8.386719 L 235.855469 8.402344 L 235.792969 8.425781 L 235.734375 8.449219 L 235.679688 8.472656 L 235.621094 8.5 L 235.46875 8.605469 L 235.421875 8.648438 L 235.375 8.695312 L 235.332031 8.742188 L 235.289062 8.792969 L 235.246094 8.847656 L 235.210938 8.90625 L 235.171875 8.96875 L 235.136719 9.035156 L 235.105469 9.101562 L 235.074219 9.175781 L 235.046875 9.25 L 234.992188 9.414062 L 234.96875 9.5 L 234.949219 9.589844 L 234.929688 9.6875 L 234.910156 9.78125 L 234.898438 9.882812 L 234.882812 9.988281 L 234.871094 10.097656 L 234.863281 10.210938 L 234.855469 10.328125 L 234.847656 10.449219 L 234.839844 10.707031 Z M 234.839844 10.839844 "/>
<path fill-rule="nonzero" fill="rgb(0%, 0%, 0%)" fill-opacity="1" d="M 243.824219 9 L 243.824219 8.132812 L 249.652344 8.132812 L 249.652344 9 Z M 243.824219 12 L 243.824219 11.132812 L 249.652344 11.132812 L 249.652344 12 Z M 243.824219 12 "/>
<path fill-rule="nonzero" fill="rgb(0%, 0%, 0%)" fill-opacity="1" d="M 254.492188 14.015625 L 254.492188 13.121094 L 256.597656 13.121094 L 256.597656 6.769531 L 254.734375 8.097656 L 254.734375 7.101562 L 256.683594 5.761719 L 257.65625 5.761719 L 257.65625 13.121094 L 259.667969 13.121094 L 259.667969 14.015625 Z M 254.492188 14.015625 "/>
<path fill-rule="nonzero" fill="rgb(0%, 0%, 0%)" fill-opacity="1" d="M 266.457031 9.886719 L 266.457031 10.117188 L 266.449219 10.347656 L 266.4375 10.566406 L 266.421875 10.777344 L 266.398438 10.980469 L 266.375 11.175781 L 266.34375 11.367188 L 266.3125 11.546875 L 266.273438 11.722656 L 266.230469 11.890625 L 266.183594 12.046875 L 266.132812 12.199219 L 266.078125 12.347656 L 266.023438 12.488281 L 265.964844 12.621094 L 265.902344 12.75 L 265.832031 12.871094 L 265.765625 12.988281 L 265.691406 13.097656 L 265.613281 13.203125 L 265.535156 13.296875 L 265.453125 13.390625 L 265.367188 13.476562 L 265.28125 13.554688 L 265.191406 13.628906 L 265.097656 13.699219 L 265.003906 13.761719 L 264.90625 13.816406 L 264.804688 13.871094 L 264.699219 13.917969 L 264.59375 13.957031 L 264.484375 13.996094 L 264.375 14.027344 L 264.265625 14.054688 L 264.15625 14.078125 L 264.042969 14.097656 L 263.925781 14.113281 L 263.8125 14.125 L 263.695312 14.132812 L 263.453125 14.132812 L 263.335938 14.125 L 263.21875 14.113281 L 263.105469 14.097656 L 262.992188 14.078125 L 262.878906 14.054688 L 262.769531 14.027344 L 262.660156 13.996094 L 262.449219 13.917969 L 262.347656 13.871094 L 262.246094 13.816406 L 262.148438 13.761719 L 262.054688 13.699219 L 261.960938 13.628906 L 261.871094 13.554688 L 261.785156 13.476562 L 261.703125 13.390625 L 261.621094 13.296875 L 261.542969 13.203125 L 261.46875 13.097656 L 261.394531 12.988281 L 261.328125 12.875 L 261.261719 12.753906 L 261.199219 12.625 L 261.140625 12.492188 L 261.085938 12.351562 L 261.035156 12.207031 L 260.984375 12.054688 L 260.9375 11.894531 L 260.898438 11.726562 L 260.859375 11.554688 L 260.828125 11.371094 L 260.800781 11.183594 L 260.773438 10.984375 L 260.753906 10.78125 L 260.742188 10.566406 L 260.730469 10.347656 L 260.722656 10.121094 L 260.722656 9.640625 L 260.730469 9.402344 L 260.742188 9.175781 L 260.753906 8.957031 L 260.773438 8.746094 L 260.800781 8.542969 L 260.828125 8.351562 L 260.859375 8.164062 L 260.898438 7.988281 L 260.9375 7.824219 L 260.984375 7.660156 L 261.035156 7.507812 L 261.085938 7.359375 L 261.140625 7.21875 L 261.203125 7.085938 L 261.265625 6.957031 L 261.328125 6.835938 L 261.398438 6.722656 L 261.472656 6.617188 L 261.546875 6.515625 L 261.625 6.421875 L 261.707031 6.332031 L 261.792969 6.25 L 261.878906 6.171875 L 261.96875 6.101562 L 262.0625 6.039062 L 262.15625 5.980469 L 262.257812 5.925781 L 262.355469 5.878906 L 262.460938 5.835938 L 262.566406 5.796875 L 262.785156 5.734375 L 262.898438 5.707031 L 263.011719 5.6875 L 263.128906 5.667969 L 263.363281 5.644531 L 263.488281 5.640625 L 263.609375 5.636719 L 263.84375 5.644531 L 264.070312 5.667969 L 264.183594 5.6875 L 264.292969 5.707031 L 264.402344 5.734375 L 264.613281 5.796875 L 264.71875 5.835938 L 264.820312 5.878906 L 264.921875 5.925781 L 265.019531 5.980469 L 265.113281 6.039062 L 265.203125 6.101562 L 265.292969 6.171875 L 265.382812 6.25 L 265.464844 6.332031 L 265.546875 6.421875 L 265.625 6.515625 L 265.699219 6.617188 L 265.773438 6.722656 L 265.84375 6.835938 L 265.910156 6.957031 L 265.972656 7.085938 L 266.03125 7.21875 L 266.085938 7.359375 L 266.140625 7.507812 L 266.1875 7.660156 L 266.234375 7.824219 L 266.277344 7.988281 L 266.316406 8.164062 L 266.347656 8.351562 L 266.378906 8.542969 L 266.402344 8.746094 L 266.421875 8.957031 L 266.4375 9.175781 L 266.449219 9.402344 L 266.457031 9.640625 Z M 265.386719 9.886719 L 265.382812 9.691406 L 265.378906 9.503906 L 265.375 9.324219 L 265.367188 9.152344 L 265.355469 8.984375 L 265.34375 8.824219 L 265.328125 8.671875 L 265.308594 8.523438 L 265.289062 8.382812 L 265.269531 8.25 L 265.242188 8.121094 L 265.1875 7.878906 L 265.15625 7.769531 L 265.121094 7.660156 L 265.085938 7.558594 L 265.050781 7.464844 L 265.007812 7.371094 L 264.96875 7.289062 L 264.921875 7.207031 L 264.828125 7.058594 L 264.777344 6.992188 L 264.722656 6.929688 L 264.667969 6.875 L 264.609375 6.820312 L 264.550781 6.773438 L 264.488281 6.730469 L 264.425781 6.691406 L 264.359375 6.65625 L 264.292969 6.625 L 264.226562 6.597656 L 264.15625 6.574219 L 264.082031 6.550781 L 263.933594 6.519531 L 263.855469 6.507812 L 263.691406 6.492188 L 263.523438 6.492188 L 263.351562 6.507812 L 263.269531 6.519531 L 263.113281 6.550781 L 262.964844 6.597656 L 262.894531 6.625 L 262.824219 6.65625 L 262.757812 6.691406 L 262.691406 6.730469 L 262.628906 6.777344 L 262.570312 6.824219 L 262.511719 6.878906 L 262.453125 6.9375 L 262.402344 7 L 262.347656 7.066406 L 262.296875 7.136719 L 262.25 7.214844 L 262.207031 7.292969 L 262.164062 7.378906 L 262.125 7.46875 L 262.085938 7.566406 L 262.050781 7.667969 L 262.015625 7.773438 L 261.984375 7.886719 L 261.957031 8.003906 L 261.929688 8.128906 L 261.90625 8.257812 L 261.882812 8.390625 L 261.863281 8.53125 L 261.84375 8.675781 L 261.828125 8.828125 L 261.816406 8.988281 L 261.804688 9.15625 L 261.796875 9.328125 L 261.792969 9.507812 L 261.789062 9.691406 L 261.789062 10.070312 L 261.792969 10.253906 L 261.796875 10.425781 L 261.804688 10.597656 L 261.828125 10.917969 L 261.84375 11.066406 L 261.863281 11.210938 L 261.882812 11.351562 L 261.90625 11.484375 L 261.929688 11.613281 L 261.957031 11.734375 L 261.988281 11.851562 L 262.019531 11.964844 L 262.089844 12.175781 L 262.128906 12.273438 L 262.167969 12.363281 L 262.210938 12.453125 L 262.257812 12.535156 L 262.304688 12.609375 L 262.355469 12.683594 L 262.40625 12.75 L 262.460938 12.8125 L 262.515625 12.871094 L 262.574219 12.925781 L 262.632812 12.976562 L 262.695312 13.023438 L 262.757812 13.066406 L 262.824219 13.101562 L 262.890625 13.132812 L 262.960938 13.164062 L 263.035156 13.1875 L 263.105469 13.210938 L 263.183594 13.230469 L 263.257812 13.246094 L 263.339844 13.257812 L 263.417969 13.265625 L 263.5 13.269531 L 263.585938 13.273438 L 263.75 13.265625 L 263.828125 13.257812 L 263.90625 13.246094 L 263.980469 13.230469 L 264.054688 13.210938 L 264.128906 13.1875 L 264.199219 13.164062 L 264.269531 13.132812 L 264.335938 13.101562 L 264.402344 13.066406 L 264.464844 13.023438 L 264.527344 12.976562 L 264.585938 12.925781 L 264.644531 12.871094 L 264.699219 12.8125 L 264.753906 12.75 L 264.804688 12.683594 L 264.898438 12.535156 L 264.945312 12.453125 L 265.03125 12.273438 L 265.070312 12.175781 L 265.140625 11.964844 L 265.171875 11.851562 L 265.203125 11.734375 L 265.230469 11.613281 L 265.257812 11.484375 L 265.28125 11.351562 L 265.300781 11.210938 L 265.320312 11.066406 L 265.339844 10.917969 L 265.363281 10.597656 L 265.375 10.425781 L 265.378906 10.253906 Z M 265.386719 9.886719 "/>
<path fill-rule="nonzero" fill="rgb(0%, 0%, 0%)" fill-opacity="1" d="M 273.132812 9.886719 L 273.128906 10.117188 L 273.121094 10.347656 L 273.109375 10.566406 L 273.09375 10.777344 L 273.074219 10.980469 L 273.050781 11.175781 L 273.019531 11.367188 L 272.984375 11.546875 L 272.945312 11.722656 L 272.902344 11.890625 L 272.855469 12.046875 L 272.808594 12.199219 L 272.753906 12.347656 L 272.699219 12.488281 L 272.636719 12.621094 L 272.574219 12.75 L 272.507812 12.871094 L 272.4375 12.988281 L 272.363281 13.097656 L 272.289062 13.203125 L 272.207031 13.296875 L 272.128906 13.390625 L 272.042969 13.476562 L 271.957031 13.554688 L 271.867188 13.628906 L 271.773438 13.699219 L 271.675781 13.761719 L 271.578125 13.816406 L 271.476562 13.871094 L 271.375 13.917969 L 271.265625 13.957031 L 271.160156 13.996094 L 271.050781 14.027344 L 270.941406 14.054688 L 270.828125 14.078125 L 270.714844 14.097656 L 270.601562 14.113281 L 270.484375 14.125 L 270.367188 14.132812 L 270.128906 14.132812 L 270.011719 14.125 L 269.894531 14.113281 L 269.777344 14.097656 L 269.664062 14.078125 L 269.554688 14.054688 L 269.445312 14.027344 L 269.335938 13.996094 L 269.125 13.917969 L 269.019531 13.871094 L 268.824219 13.761719 L 268.726562 13.699219 L 268.636719 13.628906 L 268.546875 13.554688 L 268.460938 13.476562 L 268.375 13.390625 L 268.292969 13.296875 L 268.214844 13.203125 L 268.140625 13.097656 L 268.070312 12.988281 L 268 12.875 L 267.9375 12.753906 L 267.875 12.625 L 267.816406 12.492188 L 267.757812 12.351562 L 267.707031 12.207031 L 267.65625 12.054688 L 267.613281 11.894531 L 267.570312 11.726562 L 267.535156 11.554688 L 267.5 11.371094 L 267.472656 11.183594 L 267.449219 10.984375 L 267.429688 10.78125 L 267.414062 10.566406 L 267.402344 10.347656 L 267.398438 10.121094 L 267.394531 9.886719 L 267.398438 9.640625 L 267.402344 9.402344 L 267.414062 9.175781 L 267.429688 8.957031 L 267.449219 8.746094 L 267.472656 8.542969 L 267.5 8.351562 L 267.535156 8.164062 L 267.570312 7.988281 L 267.65625 7.660156 L 267.707031 7.507812 L 267.761719 7.359375 L 267.816406 7.21875 L 267.875 7.085938 L 267.9375 6.957031 L 268.003906 6.835938 L 268.074219 6.722656 L 268.144531 6.617188 L 268.222656 6.515625 L 268.300781 6.421875 L 268.382812 6.332031 L 268.464844 6.25 L 268.554688 6.171875 L 268.644531 6.101562 L 268.734375 6.039062 L 268.832031 5.980469 L 268.929688 5.925781 L 269.03125 5.878906 L 269.136719 5.835938 L 269.242188 5.796875 L 269.460938 5.734375 L 269.570312 5.707031 L 269.6875 5.6875 L 269.800781 5.667969 L 269.917969 5.65625 L 270.039062 5.644531 L 270.160156 5.640625 L 270.285156 5.636719 L 270.402344 5.640625 L 270.515625 5.644531 L 270.632812 5.65625 L 270.746094 5.667969 L 270.964844 5.707031 L 271.074219 5.734375 L 271.183594 5.765625 L 271.289062 5.796875 L 271.390625 5.835938 L 271.492188 5.878906 L 271.59375 5.925781 L 271.691406 5.980469 L 271.785156 6.039062 L 271.878906 6.101562 L 271.96875 6.171875 L 272.054688 6.25 L 272.140625 6.332031 L 272.21875 6.421875 L 272.300781 6.515625 L 272.375 6.617188 L 272.449219 6.722656 L 272.515625 6.835938 L 272.582031 6.957031 L 272.644531 7.085938 L 272.703125 7.21875 L 272.761719 7.359375 L 272.8125 7.507812 L 272.863281 7.660156 L 272.910156 7.824219 L 272.949219 7.988281 L 272.988281 8.164062 L 273.023438 8.351562 L 273.050781 8.542969 L 273.074219 8.746094 L 273.09375 8.957031 L 273.109375 9.175781 L 273.121094 9.402344 L 273.128906 9.640625 Z M 272.058594 9.886719 L 272.058594 9.691406 L 272.054688 9.503906 L 272.046875 9.324219 L 272.039062 9.152344 L 272.03125 8.984375 L 272.015625 8.824219 L 272 8.671875 L 271.984375 8.523438 L 271.964844 8.382812 L 271.941406 8.25 L 271.917969 8.121094 L 271.863281 7.878906 L 271.832031 7.769531 L 271.796875 7.660156 L 271.761719 7.558594 L 271.683594 7.371094 L 271.597656 7.207031 L 271.550781 7.132812 L 271.5 7.058594 L 271.449219 6.992188 L 271.394531 6.929688 L 271.285156 6.820312 L 271.222656 6.773438 L 271.164062 6.730469 L 271.097656 6.691406 L 271.035156 6.65625 L 270.96875 6.625 L 270.898438 6.597656 L 270.757812 6.550781 L 270.683594 6.535156 L 270.605469 6.519531 L 270.527344 6.507812 L 270.449219 6.5 L 270.367188 6.492188 L 270.195312 6.492188 L 270.109375 6.5 L 270.027344 6.507812 L 269.945312 6.519531 L 269.863281 6.535156 L 269.789062 6.550781 L 269.710938 6.574219 L 269.636719 6.597656 L 269.566406 6.625 L 269.5 6.65625 L 269.429688 6.691406 L 269.367188 6.730469 L 269.242188 6.824219 L 269.183594 6.878906 L 269.128906 6.9375 L 269.074219 7 L 269.023438 7.066406 L 268.972656 7.136719 L 268.878906 7.292969 L 268.835938 7.378906 L 268.796875 7.46875 L 268.757812 7.566406 L 268.722656 7.667969 L 268.691406 7.773438 L 268.660156 7.886719 L 268.628906 8.003906 L 268.601562 8.128906 L 268.578125 8.257812 L 268.554688 8.390625 L 268.535156 8.53125 L 268.519531 8.675781 L 268.503906 8.828125 L 268.492188 8.988281 L 268.480469 9.15625 L 268.472656 9.328125 L 268.464844 9.507812 L 268.460938 9.691406 L 268.460938 10.070312 L 268.464844 10.253906 L 268.480469 10.597656 L 268.503906 10.917969 L 268.519531 11.066406 L 268.535156 11.210938 L 268.554688 11.351562 L 268.578125 11.484375 L 268.605469 11.613281 L 268.632812 11.734375 L 268.660156 11.851562 L 268.695312 11.964844 L 268.726562 12.070312 L 268.765625 12.175781 L 268.800781 12.273438 L 268.886719 12.453125 L 268.929688 12.535156 L 268.976562 12.609375 L 269.027344 12.683594 L 269.078125 12.75 L 269.132812 12.8125 L 269.1875 12.871094 L 269.246094 12.925781 L 269.308594 12.976562 L 269.367188 13.023438 L 269.433594 13.066406 L 269.5 13.101562 L 269.566406 13.132812 L 269.636719 13.164062 L 269.707031 13.1875 L 269.78125 13.210938 L 269.855469 13.230469 L 269.933594 13.246094 L 270.011719 13.257812 L 270.09375 13.265625 L 270.175781 13.269531 L 270.261719 13.273438 L 270.34375 13.269531 L 270.421875 13.265625 L 270.503906 13.257812 L 270.578125 13.246094 L 270.65625 13.230469 L 270.730469 13.210938 L 270.800781 13.1875 L 270.875 13.164062 L 270.941406 13.132812 L 271.011719 13.101562 L 271.074219 13.066406 L 271.140625 13.023438 L 271.199219 12.976562 L 271.261719 12.925781 L 271.316406 12.871094 L 271.371094 12.8125 L 271.425781 12.75 L 271.476562 12.683594 L 271.527344 12.609375 L 271.574219 12.535156 L 271.617188 12.453125 L 271.703125 12.273438 L 271.742188 12.175781 L 271.8125 11.964844 L 271.847656 11.851562 L 271.875 11.734375 L 271.90625 11.613281 L 271.929688 11.484375 L 271.953125 11.351562 L 271.976562 11.210938 L 271.996094 11.066406 L 272.011719 10.917969 L 272.027344 10.757812 L 272.039062 10.597656 L 272.054688 10.253906 L 272.058594 10.070312 Z M 272.058594 9.886719 "/>
<path fill="none" stroke-width="0.75" stroke-linecap="round" stroke-linejoin="round" stroke="rgb(0%, 0%, 0%)" stroke-opacity="1" stroke-miterlimit="10" d="M 0 208.90625 L 288 208.90625 "/>
<path fill="none" stroke-width="0.75" stroke-linecap="round" stroke-linejoin="round" stroke="rgb(0%, 0%, 0%)" stroke-opacity="1" stroke-miterlimit="10" d="M 24 288 L 24 0 "/>
<path fill-rule="nonzero" fill="rgb(0%, 0%, 0%)" fill-opacity="0.898039" stroke-width="0.75" stroke-linecap="round" stroke-linejoin="round" stroke="rgb(100%, 100%, 100%)" stroke-opacity="0.898039" stroke-miterlimit="10" d="M 246.050781 101.515625 L 256.363281 101.515625 L 256.363281 91.203125 L 246.050781 91.203125 Z M 246.050781 101.515625 "/>
<path fill-rule="nonzero" fill="rgb(100%, 100%, 100%)" fill-opacity="0.898039" stroke-width="0.75" stroke-linecap="round" stroke-linejoin="round" stroke="rgb(0%, 0%, 0%)" stroke-opacity="0.898039" stroke-miterlimit="10" d="M 231.320312 103.824219 L 250.964844 103.824219 L 250.964844 84.179688 L 231.320312 84.179688 Z M 231.320312 103.824219 "/>
<path fill-rule="nonzero" fill="rgb(100%, 100%, 100%)" fill-opacity="0.898039" stroke-width="0.75" stroke-linecap="round" stroke-linejoin="round" stroke="rgb(0%, 0%, 0%)" stroke-opacity="0.898039" stroke-miterlimit="10" d="M 221.875 102.957031 L 240.289062 102.957031 L 240.289062 84.542969 L 221.875 84.542969 Z M 221.875 102.957031 "/>
<path fill-rule="nonzero" fill="rgb(0%, 0%, 0%)" fill-opacity="0.898039" stroke-width="0.75" stroke-linecap="round" stroke-linejoin="round" stroke="rgb(100%, 100%, 100%)" stroke-opacity="0.898039" stroke-miterlimit="10" d="M 249.542969 115.308594 L 262.878906 115.308594 L 262.878906 101.972656 L 249.542969 101.972656 Z M 249.542969 115.308594 "/>
<path fill-rule="nonzero" fill="rgb(0%, 0%, 0%)" fill-opacity="0.898039" stroke-width="0.75" stroke-linecap="round" stroke-linejoin="round" stroke="rgb(100%, 100%, 100%)" stroke-opacity="0.898039" stroke-miterlimit="10" d="M 255.78125 101.816406 L 264.582031 101.816406 L 264.582031 93.015625 L 255.78125 93.015625 Z M 255.78125 101.816406 "/>
<path fill-rule="nonzero" fill="rgb(0%, 0%, 0%)" fill-opacity="0.898039" stroke-width="0.75" stroke-linecap="round" stroke-linejoin="round" stroke="rgb(100%, 100%, 100%)" stroke-opacity="0.898039" stroke-miterlimit="10" d="M 239.828125 108.480469 L 248.417969 108.480469 L 248.417969 99.890625 L 239.828125 99.890625 Z M 239.828125 108.480469 "/>
<path fill-rule="nonzero" fill="rgb(0%, 0%, 0%)" fill-opacity="0.898039" stroke-width="0.75" stroke-linecap="round" stroke-linejoin="round" stroke="rgb(100%, 100%, 100%)" stroke-opacity="0.898039" stroke-miterlimit="10" d="M 231.925781 105.824219 L 239.179688 105.824219 L 239.179688 98.570312 L 231.925781 98.570312 Z M 231.925781 105.824219 "/>
<path fill-rule="nonzero" fill="rgb(0%, 0%, 0%)" fill-opacity="0.898039" stroke-width="0.75" stroke-linecap="round" stroke-linejoin="round" stroke="rgb(100%, 100%, 100%)" stroke-opacity="0.898039" stroke-miterlimit="10" d="M 218.148438 109.789062 L 231.710938 109.789062 L 231.710938 96.226562 L 218.148438 96.226562 Z M 218.148438 109.789062 "/>
<path fill-rule="nonzero" fill="rgb(100%, 100%, 100%)" fill-opacity="0.898039" stroke-width="0.75" stroke-linecap="round" stroke-linejoin="round" stroke="rgb(0%, 0%, 0%)" stroke-opacity="0.898039" stroke-miterlimit="10" d="M 208.746094 104.90625 L 230.308594 104.90625 L 230.308594 83.34375 L 208.746094 83.34375 Z M 208.746094 104.90625 "/>
<path fill-rule="nonzero" fill="rgb(0%, 0%, 0%)" fill-opacity="0.898039" stroke-width="0.75" stroke-linecap="round" stroke-linejoin="round" stroke="rgb(100%, 100%, 100%)" stroke-opacity="0.898039" stroke-miterlimit="10" d="M 235.5625 143.929688 L 252.015625 143.929688 L 252.015625 127.476562 L 235.5625 127.476562 Z M 235.5625 143.929688 "/>
<path fill-rule="nonzero" fill="rgb(0%, 0%, 0%)" fill-opacity="0.898039" stroke-width="0.75" stroke-linecap="round" stroke-linejoin="round" stroke="rgb(100%, 100%, 100%)" stroke-opacity="0.898039" stroke-miterlimit="10" d="M 226.730469 157.003906 L 244.867188 157.003906 L 244.867188 138.867188 L 226.730469 138.867188 Z M 226.730469 157.003906 "/>
<path fill-rule="nonzero" fill="rgb(0%, 0%, 0%)" fill-opacity="0.898039" stroke-width="0.75" stroke-linecap="round" stroke-linejoin="round" stroke="rgb(100%, 100%, 100%)" stroke-opacity="0.898039" stroke-miterlimit="10" d="M 238.761719 158.863281 L 254.453125 158.863281 L 254.453125 143.171875 L 238.761719 143.171875 Z M 238.761719 158.863281 "/>
<path fill-rule="nonzero" fill="rgb(0%, 0%, 0%)" fill-opacity="0.898039" stroke-width="0.75" stroke-linecap="round" stroke-linejoin="round" stroke="rgb(100%, 100%, 100%)" stroke-opacity="0.898039" stroke-miterlimit="10" d="M 232.9375 167.230469 L 241.683594 167.230469 L 241.683594 158.484375 L 232.9375 158.484375 Z M 232.9375 167.230469 "/>
<path fill-rule="nonzero" fill="rgb(0%, 0%, 0%)" fill-opacity="0.898039" stroke-width="0.75" stroke-linecap="round" stroke-linejoin="round" stroke="rgb(100%, 100%, 100%)" stroke-opacity="0.898039" stroke-miterlimit="10" d="M 238.6875 178.070312 L 251.542969 178.070312 L 251.542969 165.214844 L 238.6875 165.214844 Z M 238.6875 178.070312 "/>
<path fill-rule="nonzero" fill="rgb(0%, 0%, 0%)" fill-opacity="0.898039" stroke-width="0.75" stroke-linecap="round" stroke-linejoin="round" stroke="rgb(100%, 100%, 100%)" stroke-opacity="0.898039" stroke-miterlimit="10" d="M 242.46875 173.171875 L 260.1875 173.171875 L 260.1875 155.453125 L 242.46875 155.453125 Z M 242.46875 173.171875 "/>
<path fill-rule="nonzero" fill="rgb(0%, 0%, 0%)" fill-opacity="0.898039" stroke-width="0.75" stroke-linecap="round" stroke-linejoin="round" stroke="rgb(100%, 100%, 100%)" stroke-opacity="0.898039" stroke-miterlimit="10" d="M 248.285156 150.617188 L 264.003906 150.617188 L 264.003906 134.898438 L 248.285156 134.898438 Z M 248.285156 150.617188 "/>
<path fill-rule="nonzero" fill="rgb(0%, 0%, 0%)" fill-opacity="0.898039" stroke-width="0.75" stroke-linecap="round" stroke-linejoin="round" stroke="rgb(100%, 100%, 100%)" stroke-opacity="0.898039" stroke-miterlimit="10" d="M 247.75 138.988281 L 264.433594 138.988281 L 264.433594 122.304688 L 247.75 122.304688 Z M 247.75 138.988281 "/>
<path fill-rule="nonzero" fill="rgb(100%, 100%, 100%)" fill-opacity="0.898039" stroke-width="0.75" stroke-linecap="round" stroke-linejoin="round" stroke="rgb(0%, 0%, 0%)" stroke-opacity="0.898039" stroke-miterlimit="10" d="M 195.789062 146.1875 L 215.6875 146.1875 L 215.6875 126.289062 L 195.789062 126.289062 Z M 195.789062 146.1875 "/>
<path fill-rule="nonzero" fill="rgb(0%, 0%, 0%)" fill-opacity="0.898039" stroke-width="0.75" stroke-linecap="round" stroke-linejoin="round" stroke="rgb(100%, 100%, 100%)" stroke-opacity="0.898039" stroke-miterlimit="10" d="M 212.203125 143.839844 L 225.242188 143.839844 L 225.242188 130.800781 L 212.203125 130.800781 Z M 212.203125 143.839844 "/>
<path fill-rule="nonzero" fill="rgb(0%, 0%, 0%)" fill-opacity="0.898039" stroke-width="0.75" stroke-linecap="round" stroke-linejoin="round" stroke="rgb(100%, 100%, 100%)" stroke-opacity="0.898039" stroke-miterlimit="10" d="M 221.671875 144.875 L 238.542969 144.875 L 238.542969 128.003906 L 221.671875 128.003906 Z M 221.671875 144.875 "/>
<path fill-rule="nonzero" fill="rgb(0%, 0%, 0%)" fill-opacity="0.898039" stroke-width="0.75" stroke-linecap="round" stroke-linejoin="round" stroke="rgb(100%, 100%, 100%)" stroke-opacity="0.898039" stroke-miterlimit="10" d="M 225.917969 172 L 228.292969 172 L 228.292969 169.625 L 225.917969 169.625 Z M 225.917969 172 "/>
<path fill-rule="nonzero" fill="rgb(100%, 100%, 100%)" fill-opacity="0.898039" stroke-width="0.75" stroke-linecap="round" stroke-linejoin="round" stroke="rgb(0%, 0%, 0%)" stroke-opacity="0.898039" stroke-miterlimit="10" d="M 216.492188 168.339844 L 235.734375 168.339844 L 235.734375 149.097656 L 216.492188 149.097656 Z M 216.492188 168.339844 "/>
<path fill-rule="nonzero" fill="rgb(100%, 100%, 100%)" fill-opacity="0.898039" stroke-width="0.75" stroke-linecap="round" stroke-linejoin="round" stroke="rgb(0%, 0%, 0%)" stroke-opacity="0.898039" stroke-miterlimit="10" d="M 201.800781 177.277344 L 221.976562 177.277344 L 221.976562 157.101562 L 201.800781 157.101562 Z M 201.800781 177.277344 "/>
<path fill-rule="nonzero" fill="rgb(100%, 100%, 100%)" fill-opacity="0.898039" stroke-width="0.75" stroke-linecap="round" stroke-linejoin="round" stroke="rgb(0%, 0%, 0%)" stroke-opacity="0.898039" stroke-miterlimit="10" d="M 194.566406 162.5625 L 214.714844 162.5625 L 214.714844 142.414062 L 194.566406 142.414062 Z M 194.566406 162.5625 "/>
<path fill-rule="nonzero" fill="rgb(100%, 100%, 100%)" fill-opacity="0.898039" stroke-width="0.75" stroke-linecap="round" stroke-linejoin="round" stroke="rgb(0%, 0%, 0%)" stroke-opacity="0.898039" stroke-miterlimit="10" d="M 197.367188 120.121094 L 209.023438 120.121094 L 209.023438 108.464844 L 197.367188 108.464844 Z M 197.367188 120.121094 "/>
<path fill-rule="nonzero" fill="rgb(100%, 100%, 100%)" fill-opacity="0.898039" stroke-width="0.75" stroke-linecap="round" stroke-linejoin="round" stroke="rgb(0%, 0%, 0%)" stroke-opacity="0.898039" stroke-miterlimit="10" d="M 192.070312 109.53125 L 211.703125 109.53125 L 211.703125 89.898438 L 192.070312 89.898438 Z M 192.070312 109.53125 "/>
<path fill-rule="nonzero" fill="rgb(0%, 0%, 0%)" fill-opacity="0.898039" stroke-width="0.75" stroke-linecap="round" stroke-linejoin="round" stroke="rgb(100%, 100%, 100%)" stroke-opacity="0.898039" stroke-miterlimit="10" d="M 181.347656 123.980469 L 192.863281 123.980469 L 192.863281 112.464844 L 181.347656 112.464844 Z M 181.347656 123.980469 "/>
<path fill-rule="nonzero" fill="rgb(100%, 100%, 100%)" fill-opacity="0.898039" stroke-width="0.75" stroke-linecap="round" stroke-linejoin="round" stroke="rgb(0%, 0%, 0%)" stroke-opacity="0.898039" stroke-miterlimit="10" d="M 183.023438 139.324219 L 203.75 139.324219 L 203.75 118.597656 L 183.023438 118.597656 Z M 183.023438 139.324219 "/>
<path fill-rule="nonzero" fill="rgb(0%, 0%, 0%)" fill-opacity="0.898039" stroke-width="0.75" stroke-linecap="round" stroke-linejoin="round" stroke="rgb(100%, 100%, 100%)" stroke-opacity="0.898039" stroke-miterlimit="10" d="M 206.007812 110.75 L 219.136719 110.75 L 219.136719 97.621094 L 206.007812 97.621094 Z M 206.007812 110.75 "/>
<path fill-rule="nonzero" fill="rgb(0%, 0%, 0%)" fill-opacity="0.898039" stroke-width="0.75" stroke-linecap="round" stroke-linejoin="round" stroke="rgb(100%, 100%, 100%)" stroke-opacity="0.898039" stroke-miterlimit="10" d="M 213.582031 118.972656 L 223.066406 118.972656 L 223.066406 109.488281 L 213.582031 109.488281 Z M 213.582031 118.972656 "/>
<path fill-rule="nonzero" fill="rgb(100%, 100%, 100%)" fill-opacity="0.898039" stroke-width="0.75" stroke-linecap="round" stroke-linejoin="round" stroke="rgb(0%, 0%, 0%)" stroke-opacity="0.898039" stroke-miterlimit="10" d="M 212.757812 158.035156 L 232.753906 158.035156 L 232.753906 138.039062 L 212.757812 138.039062 Z M 212.757812 158.035156 "/>
<path fill-rule="nonzero" fill="rgb(0%, 0%, 0%)" fill-opacity="0.898039" stroke-width="0.75" stroke-linecap="round" stroke-linejoin="round" stroke="rgb(100%, 100%, 100%)" stroke-opacity="0.898039" stroke-miterlimit="10" d="M 209.007812 124.394531 L 210.917969 124.394531 L 210.917969 122.484375 L 209.007812 122.484375 Z M 209.007812 124.394531 "/>
<path fill-rule="nonzero" fill="rgb(0%, 0%, 0%)" fill-opacity="0.898039" stroke-width="0.75" stroke-linecap="round" stroke-linejoin="round" stroke="rgb(100%, 100%, 100%)" stroke-opacity="0.898039" stroke-miterlimit="10" d="M 223.617188 119.722656 L 238.292969 119.722656 L 238.292969 105.046875 L 223.617188 105.046875 Z M 223.617188 119.722656 "/>
<path fill-rule="nonzero" fill="rgb(100%, 100%, 100%)" fill-opacity="0.898039" stroke-width="0.75" stroke-linecap="round" stroke-linejoin="round" stroke="rgb(0%, 0%, 0%)" stroke-opacity="0.898039" stroke-miterlimit="10" d="M 211.316406 136.867188 L 232.210938 136.867188 L 232.210938 115.972656 L 211.316406 115.972656 Z M 211.316406 136.867188 "/>
<path fill-rule="nonzero" fill="rgb(100%, 100%, 100%)" fill-opacity="0.898039" stroke-width="0.75" stroke-linecap="round" stroke-linejoin="round" stroke="rgb(0%, 0%, 0%)" stroke-opacity="0.898039" stroke-miterlimit="10" d="M 224.320312 130.742188 L 237.964844 130.742188 L 237.964844 117.097656 L 224.320312 117.097656 Z M 224.320312 130.742188 "/>
<path fill-rule="nonzero" fill="rgb(0%, 0%, 0%)" fill-opacity="0.898039" stroke-width="0.75" stroke-linecap="round" stroke-linejoin="round" stroke="rgb(100%, 100%, 100%)" stroke-opacity="0.898039" stroke-miterlimit="10" d="M 236.367188 126.171875 L 250.847656 126.171875 L 250.847656 111.691406 L 236.367188 111.691406 Z M 236.367188 126.171875 "/>
<path fill-rule="nonzero" fill="rgb(0%, 0%, 0%)" fill-opacity="0.898039" stroke-width="0.75" stroke-linecap="round" stroke-linejoin="round" stroke="rgb(100%, 100%, 100%)" stroke-opacity="0.898039" stroke-miterlimit="10" d="M 245.71875 126.785156 L 261.289062 126.785156 L 261.289062 111.214844 L 245.71875 111.214844 Z M 245.71875 126.785156 "/>
<path fill-rule="nonzero" fill="rgb(0%, 0%, 0%)" fill-opacity="0.898039" stroke-width="0.75" stroke-linecap="round" stroke-linejoin="round" stroke="rgb(100%, 100%, 100%)" stroke-opacity="0.898039" stroke-miterlimit="10" d="M 257.179688 126.535156 L 270.816406 126.535156 L 270.816406 112.898438 L 257.179688 112.898438 Z M 257.179688 126.535156 "/>
<path fill-rule="nonzero" fill="rgb(0%, 0%, 0%)" fill-opacity="0.898039" stroke-width="0.75" stroke-linecap="round" stroke-linejoin="round" stroke="rgb(100%, 100%, 100%)" stroke-opacity="0.898039" stroke-miterlimit="10" d="M 244.328125 185.472656 L 258.085938 185.472656 L 258.085938 171.714844 L 244.328125 171.714844 Z M 244.328125 185.472656 "/>
<path fill-rule="nonzero" fill="rgb(100%, 100%, 100%)" fill-opacity="0.898039" stroke-width="0.75" stroke-linecap="round" stroke-linejoin="round" stroke="rgb(0%, 0%, 0%)" stroke-opacity="0.898039" stroke-miterlimit="10" d="M 228.597656 188.515625 L 249.039062 188.515625 L 249.039062 168.074219 L 228.597656 168.074219 Z M 228.597656 188.515625 "/>
<path fill-rule="nonzero" fill="rgb(100%, 100%, 100%)" fill-opacity="0.898039" stroke-width="0.75" stroke-linecap="round" stroke-linejoin="round" stroke="rgb(0%, 0%, 0%)" stroke-opacity="0.898039" stroke-miterlimit="10" d="M 220.003906 189.613281 L 239.492188 189.613281 L 239.492188 170.125 L 220.003906 170.125 Z M 220.003906 189.613281 "/>
<path fill-rule="nonzero" fill="rgb(100%, 100%, 100%)" fill-opacity="0.898039" stroke-width="0.75" stroke-linecap="round" stroke-linejoin="round" stroke="rgb(0%, 0%, 0%)" stroke-opacity="0.898039" stroke-miterlimit="10" d="M 207.476562 191.890625 L 229.554688 191.890625 L 229.554688 169.8125 L 207.476562 169.8125 Z M 207.476562 191.890625 "/>
<path fill-rule="nonzero" fill="rgb(100%, 100%, 100%)" fill-opacity="0.898039" stroke-width="0.75" stroke-linecap="round" stroke-linejoin="round" stroke="rgb(0%, 0%, 0%)" stroke-opacity="0.898039" stroke-miterlimit="10" d="M 199.449219 183.359375 L 208.390625 183.359375 L 208.390625 174.417969 L 199.449219 174.417969 Z M 199.449219 183.359375 "/>
<path fill-rule="nonzero" fill="rgb(100%, 100%, 100%)" fill-opacity="0.898039" stroke-width="0.75" stroke-linecap="round" stroke-linejoin="round" stroke="rgb(0%, 0%, 0%)" stroke-opacity="0.898039" stroke-miterlimit="10" d="M 186.609375 183.066406 L 195.550781 183.066406 L 195.550781 174.125 L 186.609375 174.125 Z M 186.609375 183.066406 "/>
<path fill-rule="nonzero" fill="rgb(0%, 0%, 0%)" fill-opacity="0.898039" stroke-width="0.75" stroke-linecap="round" stroke-linejoin="round" stroke="rgb(100%, 100%, 100%)" stroke-opacity="0.898039" stroke-miterlimit="10" d="M 180.851562 191.1875 L 185.78125 191.1875 L 185.78125 186.257812 L 180.851562 186.257812 Z M 180.851562 191.1875 "/>
<path fill-rule="nonzero" fill="rgb(100%, 100%, 100%)" fill-opacity="0.898039" stroke-width="0.75" stroke-linecap="round" stroke-linejoin="round" stroke="rgb(0%, 0%, 0%)" stroke-opacity="0.898039" stroke-miterlimit="10" d="M 195.136719 195.535156 L 201.683594 195.535156 L 201.683594 188.988281 L 195.136719 188.988281 Z M 195.136719 195.535156 "/>
<path fill-rule="nonzero" fill="rgb(100%, 100%, 100%)" fill-opacity="0.898039" stroke-width="0.75" stroke-linecap="round" stroke-linejoin="round" stroke="rgb(0%, 0%, 0%)" stroke-opacity="0.898039" stroke-miterlimit="10" d="M 195.949219 212.886719 L 216.023438 212.886719 L 216.023438 192.8125 L 195.949219 192.8125 Z M 195.949219 212.886719 "/>
<path fill-rule="nonzero" fill="rgb(100%, 100%, 100%)" fill-opacity="0.898039" stroke-width="0.75" stroke-linecap="round" stroke-linejoin="round" stroke="rgb(0%, 0%, 0%)" stroke-opacity="0.898039" stroke-miterlimit="10" d="M 203.257812 202.425781 L 224.453125 202.425781 L 224.453125 181.230469 L 203.257812 181.230469 Z M 203.257812 202.425781 "/>
<path fill-rule="nonzero" fill="rgb(100%, 100%, 100%)" fill-opacity="0.898039" stroke-width="0.75" stroke-linecap="round" stroke-linejoin="round" stroke="rgb(0%, 0%, 0%)" stroke-opacity="0.898039" stroke-miterlimit="10" d="M 216.109375 207.109375 L 227.421875 207.109375 L 227.421875 195.796875 L 216.109375 195.796875 Z M 216.109375 207.109375 "/>
<path fill-rule="nonzero" fill="rgb(100%, 100%, 100%)" fill-opacity="0.898039" stroke-width="0.75" stroke-linecap="round" stroke-linejoin="round" stroke="rgb(0%, 0%, 0%)" stroke-opacity="0.898039" stroke-miterlimit="10" d="M 220.542969 199.320312 L 238.996094 199.320312 L 238.996094 180.867188 L 220.542969 180.867188 Z M 220.542969 199.320312 "/>
<path fill-rule="nonzero" fill="rgb(100%, 100%, 100%)" fill-opacity="0.898039" stroke-width="0.75" stroke-linecap="round" stroke-linejoin="round" stroke="rgb(0%, 0%, 0%)" stroke-opacity="0.898039" stroke-miterlimit="10" d="M 227.203125 206.328125 L 242.226562 206.328125 L 242.226562 191.304688 L 227.203125 191.304688 Z M 227.203125 206.328125 "/>
<path fill-rule="nonzero" fill="rgb(100%, 100%, 100%)" fill-opacity="0.898039" stroke-width="0.75" stroke-linecap="round" stroke-linejoin="round" stroke="rgb(0%, 0%, 0%)" stroke-opacity="0.898039" stroke-miterlimit="10" d="M 234.222656 198.929688 L 252.035156 198.929688 L 252.035156 181.117188 L 234.222656 181.117188 Z M 234.222656 198.929688 "/>
<path fill-rule="nonzero" fill="rgb(100%, 100%, 100%)" fill-opacity="0.898039" stroke-width="0.75" stroke-linecap="round" stroke-linejoin="round" stroke="rgb(0%, 0%, 0%)" stroke-opacity="0.898039" stroke-miterlimit="10" d="M 186.855469 174.722656 L 205.03125 174.722656 L 205.03125 156.546875 L 186.855469 156.546875 Z M 186.855469 174.722656 "/>
<path fill-rule="nonzero" fill="rgb(100%, 100%, 100%)" fill-opacity="0.898039" stroke-width="0.75" stroke-linecap="round" stroke-linejoin="round" stroke="rgb(0%, 0%, 0%)" stroke-opacity="0.898039" stroke-miterlimit="10" d="M 170.601562 178.558594 L 187.957031 178.558594 L 187.957031 161.203125 L 170.601562 161.203125 Z M 170.601562 178.558594 "/>
<path fill-rule="nonzero" fill="rgb(100%, 100%, 100%)" fill-opacity="0.898039" stroke-width="0.75" stroke-linecap="round" stroke-linejoin="round" stroke="rgb(0%, 0%, 0%)" stroke-opacity="0.898039" stroke-miterlimit="10" d="M 179.820312 165.40625 L 197.996094 165.40625 L 197.996094 147.230469 L 179.820312 147.230469 Z M 179.820312 165.40625 "/>
<path fill-rule="nonzero" fill="rgb(100%, 100%, 100%)" fill-opacity="0.898039" stroke-width="0.75" stroke-linecap="round" stroke-linejoin="round" stroke="rgb(0%, 0%, 0%)" stroke-opacity="0.898039" stroke-miterlimit="10" d="M 182.863281 154.515625 L 204.015625 154.515625 L 204.015625 133.363281 L 182.863281 133.363281 Z M 182.863281 154.515625 "/>
<path fill-rule="nonzero" fill="rgb(100%, 100%, 100%)" fill-opacity="0.898039" stroke-width="0.75" stroke-linecap="round" stroke-linejoin="round" stroke="rgb(0%, 0%, 0%)" stroke-opacity="0.898039" stroke-miterlimit="10" d="M 168.542969 153.601562 L 190.015625 153.601562 L 190.015625 132.128906 L 168.542969 132.128906 Z M 168.542969 153.601562 "/>
<path fill-rule="nonzero" fill="rgb(100%, 100%, 100%)" fill-opacity="0.898039" stroke-width="0.75" stroke-linecap="round" stroke-linejoin="round" stroke="rgb(0%, 0%, 0%)" stroke-opacity="0.898039" stroke-miterlimit="10" d="M 166.65625 162.523438 L 179.480469 162.523438 L 179.480469 149.699219 L 166.65625 149.699219 Z M 166.65625 162.523438 "/>
<path fill-rule="nonzero" fill="rgb(0%, 0%, 0%)" fill-opacity="0.898039" stroke-width="0.75" stroke-linecap="round" stroke-linejoin="round" stroke="rgb(100%, 100%, 100%)" stroke-opacity="0.898039" stroke-miterlimit="10" d="M 166.011719 133.441406 L 175.328125 133.441406 L 175.328125 124.125 L 166.011719 124.125 Z M 166.011719 133.441406 "/>
<path fill-rule="nonzero" fill="rgb(100%, 100%, 100%)" fill-opacity="0.898039" stroke-width="0.75" stroke-linecap="round" stroke-linejoin="round" stroke="rgb(0%, 0%, 0%)" stroke-opacity="0.898039" stroke-miterlimit="10" d="M 156.5 128.085938 L 180.195312 128.085938 L 180.195312 104.390625 L 156.5 104.390625 Z M 156.5 128.085938 "/>
<path fill-rule="nonzero" fill="rgb(0%, 0%, 0%)" fill-opacity="0.898039" stroke-width="0.75" stroke-linecap="round" stroke-linejoin="round" stroke="rgb(100%, 100%, 100%)" stroke-opacity="0.898039" stroke-miterlimit="10" d="M 150.226562 138.953125 L 160.382812 138.953125 L 160.382812 128.796875 L 150.226562 128.796875 Z M 150.226562 138.953125 "/>
<path fill-rule="nonzero" fill="rgb(0%, 0%, 0%)" fill-opacity="0.898039" stroke-width="0.75" stroke-linecap="round" stroke-linejoin="round" stroke="rgb(100%, 100%, 100%)" stroke-opacity="0.898039" stroke-miterlimit="10" d="M 159.035156 148.902344 L 168.714844 148.902344 L 168.714844 139.222656 L 159.035156 139.222656 Z M 159.035156 148.902344 "/>
<path fill-rule="nonzero" fill="rgb(0%, 0%, 0%)" fill-opacity="0.898039" stroke-width="0.75" stroke-linecap="round" stroke-linejoin="round" stroke="rgb(100%, 100%, 100%)" stroke-opacity="0.898039" stroke-miterlimit="10" d="M 125.140625 141.554688 L 137.023438 141.554688 L 137.023438 129.671875 L 125.140625 129.671875 Z M 125.140625 141.554688 "/>
<path fill-rule="nonzero" fill="rgb(0%, 0%, 0%)" fill-opacity="0.898039" stroke-width="0.75" stroke-linecap="round" stroke-linejoin="round" stroke="rgb(100%, 100%, 100%)" stroke-opacity="0.898039" stroke-miterlimit="10" d="M 137.261719 137.507812 L 148.996094 137.507812 L 148.996094 125.773438 L 137.261719 125.773438 Z M 137.261719 137.507812 "/>
<path fill-rule="nonzero" fill="rgb(0%, 0%, 0%)" fill-opacity="0.898039" stroke-width="0.75" stroke-linecap="round" stroke-linejoin="round" stroke="rgb(100%, 100%, 100%)" stroke-opacity="0.898039" stroke-miterlimit="10" d="M 146.910156 129.367188 L 159.882812 129.367188 L 159.882812 116.394531 L 146.910156 116.394531 Z M 146.910156 129.367188 "/>
<path fill-rule="nonzero" fill="rgb(0%, 0%, 0%)" fill-opacity="0.898039" stroke-width="0.75" stroke-linecap="round" stroke-linejoin="round" stroke="rgb(100%, 100%, 100%)" stroke-opacity="0.898039" stroke-miterlimit="10" d="M 138.097656 120.027344 L 148.910156 120.027344 L 148.910156 109.214844 L 138.097656 109.214844 Z M 138.097656 120.027344 "/>
<path fill-rule="nonzero" fill="rgb(0%, 0%, 0%)" fill-opacity="0.898039" stroke-width="0.75" stroke-linecap="round" stroke-linejoin="round" stroke="rgb(100%, 100%, 100%)" stroke-opacity="0.898039" stroke-miterlimit="10" d="M 126.949219 116.335938 L 142.875 116.335938 L 142.875 100.410156 L 126.949219 100.410156 Z M 126.949219 116.335938 "/>
<path fill-rule="nonzero" fill="rgb(0%, 0%, 0%)" fill-opacity="0.898039" stroke-width="0.75" stroke-linecap="round" stroke-linejoin="round" stroke="rgb(100%, 100%, 100%)" stroke-opacity="0.898039" stroke-miterlimit="10" d="M 127.347656 129.785156 L 142.394531 129.785156 L 142.394531 114.738281 L 127.347656 114.738281 Z M 127.347656 129.785156 "/>
<path fill-rule="nonzero" fill="rgb(0%, 0%, 0%)" fill-opacity="0.898039" stroke-width="0.75" stroke-linecap="round" stroke-linejoin="round" stroke="rgb(100%, 100%, 100%)" stroke-opacity="0.898039" stroke-miterlimit="10" d="M 119.300781 122.550781 L 132.175781 122.550781 L 132.175781 109.675781 L 119.300781 109.675781 Z M 119.300781 122.550781 "/>
<path fill-rule="nonzero" fill="rgb(0%, 0%, 0%)" fill-opacity="0.898039" stroke-width="0.75" stroke-linecap="round" stroke-linejoin="round" stroke="rgb(100%, 100%, 100%)" stroke-opacity="0.898039" stroke-miterlimit="10" d="M 114.734375 134.730469 L 130.570312 134.730469 L 130.570312 118.894531 L 114.734375 118.894531 Z M 114.734375 134.730469 "/>
<path fill-rule="nonzero" fill="rgb(0%, 0%, 0%)" fill-opacity="0.898039" stroke-width="0.75" stroke-linecap="round" stroke-linejoin="round" stroke="rgb(100%, 100%, 100%)" stroke-opacity="0.898039" stroke-miterlimit="10" d="M 133.070312 104.960938 L 144.121094 104.960938 L 144.121094 93.910156 L 133.070312 93.910156 Z M 133.070312 104.960938 "/>
<path fill-rule="nonzero" fill="rgb(0%, 0%, 0%)" fill-opacity="0.898039" stroke-width="0.75" stroke-linecap="round" stroke-linejoin="round" stroke="rgb(100%, 100%, 100%)" stroke-opacity="0.898039" stroke-miterlimit="10" d="M 144.726562 107.957031 L 153.171875 107.957031 L 153.171875 99.511719 L 144.726562 99.511719 Z M 144.726562 107.957031 "/>
<path fill-rule="nonzero" fill="rgb(0%, 0%, 0%)" fill-opacity="0.898039" stroke-width="0.75" stroke-linecap="round" stroke-linejoin="round" stroke="rgb(100%, 100%, 100%)" stroke-opacity="0.898039" stroke-miterlimit="10" d="M 149.167969 117.589844 L 158.765625 117.589844 L 158.765625 107.992188 L 149.167969 107.992188 Z M 149.167969 117.589844 "/>
<path fill-rule="nonzero" fill="rgb(0%, 0%, 0%)" fill-opacity="0.898039" stroke-width="0.75" stroke-linecap="round" stroke-linejoin="round" stroke="rgb(100%, 100%, 100%)" stroke-opacity="0.898039" stroke-miterlimit="10" d="M 121.359375 105.460938 L 133.351562 105.460938 L 133.351562 93.46875 L 121.359375 93.46875 Z M 121.359375 105.460938 "/>
<path fill-rule="nonzero" fill="rgb(0%, 0%, 0%)" fill-opacity="0.898039" stroke-width="0.75" stroke-linecap="round" stroke-linejoin="round" stroke="rgb(100%, 100%, 100%)" stroke-opacity="0.898039" stroke-miterlimit="10" d="M 116.167969 114.003906 L 129.34375 114.003906 L 129.34375 100.828125 L 116.167969 100.828125 Z M 116.167969 114.003906 "/>
<path fill-rule="nonzero" fill="rgb(0%, 0%, 0%)" fill-opacity="0.898039" stroke-width="0.75" stroke-linecap="round" stroke-linejoin="round" stroke="rgb(100%, 100%, 100%)" stroke-opacity="0.898039" stroke-miterlimit="10" d="M 114.925781 144.9375 L 125.128906 144.9375 L 125.128906 134.734375 L 114.925781 134.734375 Z M 114.925781 144.9375 "/>
<path fill-rule="nonzero" fill="rgb(0%, 0%, 0%)" fill-opacity="0.898039" stroke-width="0.75" stroke-linecap="round" stroke-linejoin="round" stroke="rgb(100%, 100%, 100%)" stroke-opacity="0.898039" stroke-miterlimit="10" d="M 109.257812 105.117188 L 121.765625 105.117188 L 121.765625 92.609375 L 109.257812 92.609375 Z M 109.257812 105.117188 "/>
<path fill-rule="nonzero" fill="rgb(0%, 0%, 0%)" fill-opacity="0.898039" stroke-width="0.75" stroke-linecap="round" stroke-linejoin="round" stroke="rgb(100%, 100%, 100%)" stroke-opacity="0.898039" stroke-miterlimit="10" d="M 108.296875 119.460938 L 120.707031 119.460938 L 120.707031 107.050781 L 108.296875 107.050781 Z M 108.296875 119.460938 "/>
<path fill-rule="nonzero" fill="rgb(0%, 0%, 0%)" fill-opacity="0.898039" stroke-width="0.75" stroke-linecap="round" stroke-linejoin="round" stroke="rgb(100%, 100%, 100%)" stroke-opacity="0.898039" stroke-miterlimit="10" d="M 106.632812 134.257812 L 116.519531 134.257812 L 116.519531 124.371094 L 106.632812 124.371094 Z M 106.632812 134.257812 "/>
<path fill-rule="nonzero" fill="rgb(0%, 0%, 0%)" fill-opacity="0.898039" stroke-width="0.75" stroke-linecap="round" stroke-linejoin="round" stroke="rgb(100%, 100%, 100%)" stroke-opacity="0.898039" stroke-miterlimit="10" d="M 105.570312 148.609375 L 117.277344 148.609375 L 117.277344 136.902344 L 105.570312 136.902344 Z M 105.570312 148.609375 "/>
<path fill-rule="nonzero" fill="rgb(0%, 0%, 0%)" fill-opacity="0.898039" stroke-width="0.75" stroke-linecap="round" stroke-linejoin="round" stroke="rgb(100%, 100%, 100%)" stroke-opacity="0.898039" stroke-miterlimit="10" d="M 97.71875 109.816406 L 110.355469 109.816406 L 110.355469 97.179688 L 97.71875 97.179688 Z M 97.71875 109.816406 "/>
<path fill-rule="nonzero" fill="rgb(0%, 0%, 0%)" fill-opacity="0.898039" stroke-width="0.75" stroke-linecap="round" stroke-linejoin="round" stroke="rgb(100%, 100%, 100%)" stroke-opacity="0.898039" stroke-miterlimit="10" d="M 89.9375 117.875 L 101.167969 117.875 L 101.167969 106.644531 L 89.9375 106.644531 Z M 89.9375 117.875 "/>
<path fill-rule="nonzero" fill="rgb(0%, 0%, 0%)" fill-opacity="0.898039" stroke-width="0.75" stroke-linecap="round" stroke-linejoin="round" stroke="rgb(100%, 100%, 100%)" stroke-opacity="0.898039" stroke-miterlimit="10" d="M 77.761719 118.5 L 90.734375 118.5 L 90.734375 105.527344 L 77.761719 105.527344 Z M 77.761719 118.5 "/>
<path fill-rule="nonzero" fill="rgb(0%, 0%, 0%)" fill-opacity="0.898039" stroke-width="0.75" stroke-linecap="round" stroke-linejoin="round" stroke="rgb(100%, 100%, 100%)" stroke-opacity="0.898039" stroke-miterlimit="10" d="M 73.09375 128.757812 L 83.289062 128.757812 L 83.289062 118.5625 L 73.09375 118.5625 Z M 73.09375 128.757812 "/>
<path fill-rule="nonzero" fill="rgb(0%, 0%, 0%)" fill-opacity="0.898039" stroke-width="0.75" stroke-linecap="round" stroke-linejoin="round" stroke="rgb(100%, 100%, 100%)" stroke-opacity="0.898039" stroke-miterlimit="10" d="M 85.890625 130.558594 L 96.273438 130.558594 L 96.273438 120.175781 L 85.890625 120.175781 Z M 85.890625 130.558594 "/>
<path fill-rule="nonzero" fill="rgb(0%, 0%, 0%)" fill-opacity="0.898039" stroke-width="0.75" stroke-linecap="round" stroke-linejoin="round" stroke="rgb(100%, 100%, 100%)" stroke-opacity="0.898039" stroke-miterlimit="10" d="M 98.539062 122.878906 L 108.679688 122.878906 L 108.679688 112.738281 L 98.539062 112.738281 Z M 98.539062 122.878906 "/>
<path fill-rule="nonzero" fill="rgb(0%, 0%, 0%)" fill-opacity="0.898039" stroke-width="0.75" stroke-linecap="round" stroke-linejoin="round" stroke="rgb(100%, 100%, 100%)" stroke-opacity="0.898039" stroke-miterlimit="10" d="M 94.644531 135.3125 L 105.839844 135.3125 L 105.839844 124.117188 L 94.644531 124.117188 Z M 94.644531 135.3125 "/>
<path fill-rule="nonzero" fill="rgb(0%, 0%, 0%)" fill-opacity="0.898039" stroke-width="0.75" stroke-linecap="round" stroke-linejoin="round" stroke="rgb(100%, 100%, 100%)" stroke-opacity="0.898039" stroke-miterlimit="10" d="M 97.058594 145.320312 L 109.015625 145.320312 L 109.015625 133.363281 L 97.058594 133.363281 Z M 97.058594 145.320312 "/>
<path fill-rule="nonzero" fill="rgb(0%, 0%, 0%)" fill-opacity="0.898039" stroke-width="0.75" stroke-linecap="round" stroke-linejoin="round" stroke="rgb(100%, 100%, 100%)" stroke-opacity="0.898039" stroke-miterlimit="10" d="M 102.914062 98.566406 L 115.773438 98.566406 L 115.773438 85.707031 L 102.914062 85.707031 Z M 102.914062 98.566406 "/>
<path fill-rule="nonzero" fill="rgb(0%, 0%, 0%)" fill-opacity="0.898039" stroke-width="0.75" stroke-linecap="round" stroke-linejoin="round" stroke="rgb(100%, 100%, 100%)" stroke-opacity="0.898039" stroke-miterlimit="10" d="M 90.414062 98.765625 L 101.933594 98.765625 L 101.933594 87.246094 L 90.414062 87.246094 Z M 90.414062 98.765625 "/>
<path fill-rule="nonzero" fill="rgb(0%, 0%, 0%)" fill-opacity="0.898039" stroke-width="0.75" stroke-linecap="round" stroke-linejoin="round" stroke="rgb(100%, 100%, 100%)" stroke-opacity="0.898039" stroke-miterlimit="10" d="M 85.535156 107.105469 L 97.867188 107.105469 L 97.867188 94.773438 L 85.535156 94.773438 Z M 85.535156 107.105469 "/>
<path fill-rule="nonzero" fill="rgb(0%, 0%, 0%)" fill-opacity="0.898039" stroke-width="0.75" stroke-linecap="round" stroke-linejoin="round" stroke="rgb(100%, 100%, 100%)" stroke-opacity="0.898039" stroke-miterlimit="10" d="M 75.582031 108.414062 L 88.570312 108.414062 L 88.570312 95.425781 L 75.582031 95.425781 Z M 75.582031 108.414062 "/>
<path fill-rule="nonzero" fill="rgb(0%, 0%, 0%)" fill-opacity="0.898039" stroke-width="0.75" stroke-linecap="round" stroke-linejoin="round" stroke="rgb(100%, 100%, 100%)" stroke-opacity="0.898039" stroke-miterlimit="10" d="M 76.085938 98.332031 L 86.203125 98.332031 L 86.203125 88.214844 L 76.085938 88.214844 Z M 76.085938 98.332031 "/>
<path fill-rule="nonzero" fill="rgb(0%, 0%, 0%)" fill-opacity="0.898039" stroke-width="0.75" stroke-linecap="round" stroke-linejoin="round" stroke="rgb(100%, 100%, 100%)" stroke-opacity="0.898039" stroke-miterlimit="10" d="M 65.144531 109.625 L 76.273438 109.625 L 76.273438 98.496094 L 65.144531 98.496094 Z M 65.144531 109.625 "/>
<path fill-rule="nonzero" fill="rgb(0%, 0%, 0%)" fill-opacity="0.898039" stroke-width="0.75" stroke-linecap="round" stroke-linejoin="round" stroke="rgb(100%, 100%, 100%)" stroke-opacity="0.898039" stroke-miterlimit="10" d="M 60.566406 96.875 L 70.042969 96.875 L 70.042969 87.398438 L 60.566406 87.398438 Z M 60.566406 96.875 "/>
<path fill-rule="nonzero" fill="rgb(0%, 0%, 0%)" fill-opacity="0.898039" stroke-width="0.75" stroke-linecap="round" stroke-linejoin="round" stroke="rgb(100%, 100%, 100%)" stroke-opacity="0.898039" stroke-miterlimit="10" d="M 45.632812 93.796875 L 56.714844 93.796875 L 56.714844 82.714844 L 45.632812 82.714844 Z M 45.632812 93.796875 "/>
<path fill-rule="nonzero" fill="rgb(0%, 0%, 0%)" fill-opacity="0.898039" stroke-width="0.75" stroke-linecap="round" stroke-linejoin="round" stroke="rgb(100%, 100%, 100%)" stroke-opacity="0.898039" stroke-miterlimit="10" d="M 34.933594 83.8125 L 44.371094 83.8125 L 44.371094 74.375 L 34.933594 74.375 Z M 34.933594 83.8125 "/>
<path fill="none" stroke-width="0.75" stroke-linecap="round" stroke-linejoin="round" stroke="rgb(0%, 0%, 0%)" stroke-opacity="1" stroke-miterlimit="10" d="M 0 288 L 288 288 L 288 0 L 0 0 Z M 0 288 "/>
<path fill-rule="nonzero" fill="rgb(100%, 100%, 100%)" fill-opacity="1" stroke-width="0.75" stroke-linecap="round" stroke-linejoin="round" stroke="rgb(0%, 0%, 0%)" stroke-opacity="1" stroke-miterlimit="10" d="M 2.878906 285.121094 L 205.289062 285.121094 L 205.289062 261.289062 L 2.878906 261.289062 Z M 2.878906 285.121094 "/>
<path fill-rule="nonzero" fill="rgb(100%, 100%, 100%)" fill-opacity="1" stroke-width="0.75" stroke-linecap="round" stroke-linejoin="round" stroke="rgb(0%, 0%, 0%)" stroke-opacity="1" stroke-miterlimit="10" d="M 6.269531 285.1875 L 30.230469 285.1875 L 30.230469 261.226562 L 6.269531 261.226562 Z M 6.269531 285.1875 "/>
<path fill-rule="nonzero" fill="rgb(100%, 100%, 100%)" fill-opacity="1" stroke-width="0.75" stroke-linecap="round" stroke-linejoin="round" stroke="rgb(0%, 0%, 0%)" stroke-opacity="1" stroke-miterlimit="10" d="M 51.375 282.160156 L 69.285156 282.160156 L 69.285156 264.25 L 51.375 264.25 Z M 51.375 282.160156 "/>
<path fill-rule="nonzero" fill="rgb(100%, 100%, 100%)" fill-opacity="1" stroke-width="0.75" stroke-linecap="round" stroke-linejoin="round" stroke="rgb(0%, 0%, 0%)" stroke-opacity="1" stroke-miterlimit="10" d="M 97.625 277.992188 L 107.199219 277.992188 L 107.199219 268.417969 L 97.625 268.417969 Z M 97.625 277.992188 "/>
<path fill-rule="nonzero" fill="rgb(0%, 0%, 0%)" fill-opacity="1" stroke-width="0.75" stroke-linecap="round" stroke-linejoin="round" stroke="rgb(100%, 100%, 100%)" stroke-opacity="1" stroke-miterlimit="10" d="M 139.703125 277.992188 L 149.277344 277.992188 L 149.277344 268.417969 L 139.703125 268.417969 Z M 139.703125 277.992188 "/>
<path fill-rule="nonzero" fill="rgb(0%, 0%, 0%)" fill-opacity="1" stroke-width="0.75" stroke-linecap="round" stroke-linejoin="round" stroke="rgb(100%, 100%, 100%)" stroke-opacity="1" stroke-miterlimit="10" d="M 173.621094 282.160156 L 191.53125 282.160156 L 191.53125 264.25 L 173.621094 264.25 Z M 173.621094 282.160156 "/>
<path fill-rule="nonzero" fill="rgb(0%, 0%, 0%)" fill-opacity="1" d="M 34.488281 274.613281 L 34.488281 273.675781 L 37.417969 273.675781 L 37.417969 274.613281 Z M 34.488281 274.613281 "/>
<path fill-rule="nonzero" fill="rgb(0%, 0%, 0%)" fill-opacity="1" d="M 44.121094 274.644531 L 44.121094 274.765625 L 44.105469 275.007812 L 44.09375 275.125 L 44.054688 275.351562 L 44.03125 275.460938 L 44.003906 275.570312 L 43.933594 275.78125 L 43.894531 275.882812 L 43.851562 275.980469 L 43.804688 276.078125 L 43.757812 276.171875 L 43.703125 276.261719 L 43.644531 276.347656 L 43.582031 276.433594 L 43.519531 276.515625 L 43.378906 276.671875 L 43.222656 276.8125 L 43.140625 276.878906 L 43.054688 276.941406 L 42.964844 277 L 42.871094 277.054688 L 42.773438 277.105469 L 42.671875 277.15625 L 42.566406 277.203125 L 42.457031 277.246094 L 42.347656 277.285156 L 42.234375 277.320312 L 42.117188 277.347656 L 41.996094 277.375 L 41.871094 277.398438 L 41.742188 277.417969 L 41.609375 277.429688 L 41.472656 277.441406 L 41.335938 277.449219 L 41.0625 277.449219 L 40.9375 277.445312 L 40.816406 277.4375 L 40.699219 277.425781 L 40.582031 277.410156 L 40.472656 277.394531 L 40.363281 277.375 L 40.257812 277.351562 L 40.15625 277.328125 L 40.054688 277.296875 L 39.960938 277.265625 L 39.78125 277.195312 L 39.695312 277.15625 L 39.613281 277.117188 L 39.53125 277.074219 L 39.457031 277.03125 L 39.382812 276.984375 L 39.308594 276.933594 L 39.242188 276.882812 L 39.175781 276.828125 L 39.113281 276.769531 L 38.996094 276.652344 L 38.941406 276.589844 L 38.890625 276.527344 L 38.839844 276.460938 L 38.792969 276.394531 L 38.707031 276.253906 L 38.671875 276.183594 L 38.601562 276.035156 L 38.570312 275.960938 L 38.542969 275.882812 L 38.515625 275.808594 L 38.492188 275.726562 L 38.46875 275.648438 L 38.449219 275.570312 L 38.433594 275.488281 L 39.5 275.363281 L 39.511719 275.410156 L 39.558594 275.550781 L 39.578125 275.59375 L 39.617188 275.6875 L 39.636719 275.730469 L 39.65625 275.777344 L 39.679688 275.820312 L 39.707031 275.863281 L 39.730469 275.90625 L 39.757812 275.949219 L 39.851562 276.066406 L 39.886719 276.105469 L 39.921875 276.140625 L 39.957031 276.179688 L 39.996094 276.214844 L 40.082031 276.277344 L 40.175781 276.339844 L 40.222656 276.367188 L 40.273438 276.394531 L 40.328125 276.421875 L 40.4375 276.46875 L 40.554688 276.507812 L 40.753906 276.554688 L 40.824219 276.5625 L 40.898438 276.574219 L 40.972656 276.578125 L 41.050781 276.585938 L 41.132812 276.585938 L 41.214844 276.589844 L 41.378906 276.582031 L 41.457031 276.578125 L 41.53125 276.570312 L 41.605469 276.558594 L 41.753906 276.527344 L 41.824219 276.511719 L 41.894531 276.488281 L 41.960938 276.464844 L 42.027344 276.4375 L 42.089844 276.410156 L 42.152344 276.378906 L 42.269531 276.308594 L 42.324219 276.269531 L 42.378906 276.226562 L 42.480469 276.140625 L 42.621094 275.988281 L 42.664062 275.933594 L 42.742188 275.816406 L 42.777344 275.753906 L 42.808594 275.691406 L 42.84375 275.625 L 42.871094 275.558594 L 42.898438 275.488281 L 42.945312 275.339844 L 42.964844 275.261719 L 42.980469 275.183594 L 42.996094 275.101562 L 43.007812 275.019531 L 43.023438 274.847656 L 43.027344 274.757812 L 43.027344 274.589844 L 43.023438 274.515625 L 43.015625 274.445312 L 43.007812 274.371094 L 42.996094 274.300781 L 42.984375 274.234375 L 42.964844 274.164062 L 42.949219 274.097656 L 42.925781 274.035156 L 42.902344 273.96875 L 42.878906 273.90625 L 42.851562 273.84375 L 42.789062 273.726562 L 42.71875 273.617188 L 42.679688 273.5625 L 42.640625 273.515625 L 42.597656 273.464844 L 42.503906 273.371094 L 42.457031 273.328125 L 42.40625 273.289062 L 42.296875 273.210938 L 42.179688 273.140625 L 42.117188 273.109375 L 42.054688 273.082031 L 41.988281 273.054688 L 41.855469 273.007812 L 41.785156 272.988281 L 41.636719 272.957031 L 41.5625 272.945312 L 41.484375 272.9375 L 41.40625 272.933594 L 41.324219 272.929688 L 41.238281 272.925781 L 41.1875 272.925781 L 41.136719 272.929688 L 41.085938 272.929688 L 40.984375 272.9375 L 40.9375 272.945312 L 40.890625 272.949219 L 40.796875 272.964844 L 40.753906 272.972656 L 40.710938 272.984375 L 40.664062 272.992188 L 40.578125 273.015625 L 40.539062 273.027344 L 40.496094 273.042969 L 40.457031 273.054688 L 40.414062 273.070312 L 40.335938 273.101562 L 40.300781 273.117188 L 40.261719 273.136719 L 40.226562 273.152344 L 40.121094 273.210938 L 40.089844 273.230469 L 40.054688 273.253906 L 40.023438 273.273438 L 39.992188 273.296875 L 39.960938 273.316406 L 39.929688 273.339844 L 39.902344 273.359375 L 39.871094 273.382812 L 39.84375 273.402344 L 39.816406 273.425781 L 39.785156 273.449219 L 39.703125 273.519531 L 38.671875 273.519531 L 38.949219 269.078125 L 43.640625 269.078125 L 43.640625 269.972656 L 39.910156 269.972656 L 39.75 272.59375 L 39.808594 272.550781 L 39.871094 272.507812 L 39.933594 272.46875 L 40.066406 272.390625 L 40.214844 272.320312 L 40.292969 272.285156 L 40.371094 272.253906 L 40.453125 272.222656 L 40.539062 272.195312 L 40.628906 272.167969 L 40.816406 272.121094 L 40.914062 272.105469 L 41.019531 272.089844 L 41.121094 272.078125 L 41.230469 272.070312 L 41.34375 272.066406 L 41.578125 272.066406 L 41.699219 272.074219 L 41.816406 272.082031 L 41.929688 272.09375 L 42.039062 272.113281 L 42.152344 272.132812 L 42.257812 272.15625 L 42.363281 272.183594 L 42.464844 272.21875 L 42.5625 272.253906 L 42.660156 272.292969 L 42.847656 272.378906 L 43.019531 272.480469 L 43.101562 272.535156 L 43.257812 272.652344 L 43.332031 272.71875 L 43.402344 272.785156 L 43.535156 272.925781 L 43.59375 273.003906 L 43.652344 273.078125 L 43.707031 273.160156 L 43.757812 273.242188 L 43.808594 273.328125 L 43.855469 273.414062 L 43.933594 273.601562 L 43.96875 273.695312 L 44.003906 273.792969 L 44.03125 273.894531 L 44.054688 273.996094 L 44.074219 274.097656 L 44.09375 274.203125 L 44.105469 274.3125 L 44.113281 274.417969 L 44.121094 274.53125 Z M 44.121094 274.644531 "/>
<path fill-rule="nonzero" fill="rgb(0%, 0%, 0%)" fill-opacity="1" d="M 76.570312 274.613281 L 76.570312 273.675781 L 79.5 273.675781 L 79.5 274.613281 Z M 76.570312 274.613281 "/>
<path fill-rule="nonzero" fill="rgb(0%, 0%, 0%)" fill-opacity="1" d="M 86.179688 275.054688 L 86.175781 275.164062 L 86.171875 275.277344 L 86.164062 275.382812 L 86.148438 275.488281 L 86.132812 275.589844 L 86.113281 275.691406 L 86.085938 275.789062 L 86.058594 275.882812 L 86.027344 275.976562 L 85.992188 276.066406 L 85.953125 276.15625 L 85.867188 276.320312 L 85.816406 276.402344 L 85.765625 276.480469 L 85.710938 276.554688 L 85.652344 276.625 L 85.589844 276.695312 L 85.523438 276.757812 L 85.453125 276.824219 L 85.378906 276.882812 L 85.304688 276.9375 L 85.226562 276.992188 L 85.144531 277.042969 L 85.058594 277.09375 L 84.96875 277.136719 L 84.875 277.179688 L 84.777344 277.21875 L 84.675781 277.257812 L 84.574219 277.292969 L 84.46875 277.320312 L 84.359375 277.347656 L 84.132812 277.394531 L 84.015625 277.410156 L 83.894531 277.425781 L 83.769531 277.4375 L 83.640625 277.445312 L 83.511719 277.449219 L 83.226562 277.449219 L 83.082031 277.441406 L 82.941406 277.433594 L 82.804688 277.421875 L 82.671875 277.402344 L 82.542969 277.382812 L 82.421875 277.359375 L 82.304688 277.328125 L 82.191406 277.296875 L 82.082031 277.261719 L 81.980469 277.222656 L 81.785156 277.136719 L 81.695312 277.089844 L 81.605469 277.039062 L 81.523438 276.988281 L 81.441406 276.933594 L 81.367188 276.878906 L 81.292969 276.820312 L 81.222656 276.757812 L 81.15625 276.695312 L 81.09375 276.628906 L 81.035156 276.5625 L 80.976562 276.492188 L 80.925781 276.421875 L 80.875 276.347656 L 80.828125 276.277344 L 80.710938 276.042969 L 80.679688 275.960938 L 80.648438 275.882812 L 80.621094 275.800781 L 80.59375 275.714844 L 80.570312 275.632812 L 80.550781 275.550781 L 80.53125 275.464844 L 80.515625 275.382812 L 80.5 275.296875 L 80.488281 275.210938 L 81.578125 275.113281 L 81.589844 275.175781 L 81.601562 275.242188 L 81.613281 275.304688 L 81.628906 275.367188 L 81.644531 275.425781 L 81.703125 275.601562 L 81.75 275.710938 L 81.777344 275.761719 L 81.804688 275.816406 L 81.835938 275.863281 L 81.867188 275.914062 L 81.898438 275.960938 L 81.9375 276.003906 L 81.972656 276.050781 L 82.011719 276.09375 L 82.050781 276.132812 L 82.09375 276.171875 L 82.140625 276.210938 L 82.234375 276.28125 L 82.335938 276.34375 L 82.390625 276.375 L 82.449219 276.398438 L 82.503906 276.425781 L 82.628906 276.472656 L 82.691406 276.492188 L 82.757812 276.507812 L 82.898438 276.539062 L 82.972656 276.550781 L 83.128906 276.566406 L 83.210938 276.574219 L 83.292969 276.574219 L 83.378906 276.578125 L 83.535156 276.574219 L 83.683594 276.5625 L 83.824219 276.542969 L 83.960938 276.515625 L 84.089844 276.480469 L 84.210938 276.4375 L 84.324219 276.382812 L 84.433594 276.324219 L 84.53125 276.257812 L 84.625 276.183594 L 84.714844 276.101562 L 84.789062 276.011719 L 84.859375 275.914062 L 84.917969 275.808594 L 84.96875 275.695312 L 85.011719 275.578125 L 85.042969 275.449219 L 85.066406 275.3125 L 85.078125 275.167969 L 85.082031 275.019531 L 85.082031 274.929688 L 85.074219 274.84375 L 85.066406 274.761719 L 85.050781 274.683594 L 85.03125 274.605469 L 85.007812 274.535156 L 84.984375 274.46875 L 84.953125 274.402344 L 84.917969 274.34375 L 84.878906 274.285156 L 84.835938 274.230469 L 84.75 274.128906 L 84.703125 274.082031 L 84.652344 274.035156 L 84.601562 273.996094 L 84.492188 273.917969 L 84.433594 273.882812 L 84.375 273.851562 L 84.3125 273.820312 L 84.253906 273.792969 L 84.191406 273.765625 L 84.125 273.742188 L 84.0625 273.71875 L 83.996094 273.699219 L 83.925781 273.683594 L 83.859375 273.667969 L 83.789062 273.652344 L 83.71875 273.640625 L 83.648438 273.632812 L 83.578125 273.621094 L 83.511719 273.613281 L 83.445312 273.609375 L 83.378906 273.601562 L 83.316406 273.597656 L 83.25 273.59375 L 83.191406 273.589844 L 82.46875 273.589844 L 82.46875 272.675781 L 83.105469 272.675781 L 83.164062 272.671875 L 83.289062 272.664062 L 83.347656 272.660156 L 83.472656 272.644531 L 83.539062 272.636719 L 83.601562 272.628906 L 83.664062 272.617188 L 83.730469 272.601562 L 83.855469 272.570312 L 83.914062 272.550781 L 84.089844 272.480469 L 84.199219 272.425781 L 84.25 272.394531 L 84.304688 272.359375 L 84.355469 272.324219 L 84.449219 272.246094 L 84.496094 272.203125 L 84.539062 272.15625 L 84.578125 272.109375 L 84.65625 272.007812 L 84.691406 271.953125 L 84.722656 271.898438 L 84.753906 271.835938 L 84.78125 271.773438 L 84.804688 271.710938 L 84.824219 271.640625 L 84.839844 271.570312 L 84.851562 271.492188 L 84.859375 271.414062 L 84.863281 271.335938 L 84.867188 271.25 L 84.863281 271.121094 L 84.851562 270.996094 L 84.832031 270.878906 L 84.804688 270.765625 L 84.769531 270.660156 L 84.726562 270.558594 L 84.675781 270.460938 L 84.617188 270.371094 L 84.546875 270.285156 L 84.472656 270.207031 L 84.394531 270.132812 L 84.304688 270.070312 L 84.207031 270.011719 L 84.105469 269.960938 L 83.992188 269.917969 L 83.871094 269.882812 L 83.746094 269.855469 L 83.613281 269.835938 L 83.46875 269.824219 L 83.320312 269.820312 L 83.183594 269.824219 L 83.050781 269.835938 L 82.925781 269.851562 L 82.804688 269.878906 L 82.6875 269.910156 L 82.578125 269.949219 L 82.472656 269.996094 L 82.371094 270.050781 L 82.277344 270.109375 L 82.1875 270.179688 L 82.105469 270.253906 L 82.03125 270.332031 L 81.964844 270.417969 L 81.902344 270.511719 L 81.851562 270.609375 L 81.804688 270.714844 L 81.765625 270.824219 L 81.734375 270.9375 L 81.707031 271.058594 L 81.691406 271.1875 L 80.628906 271.105469 L 80.644531 270.996094 L 80.664062 270.890625 L 80.683594 270.789062 L 80.738281 270.59375 L 80.769531 270.5 L 80.804688 270.410156 L 80.882812 270.238281 L 80.976562 270.074219 L 81.027344 270 L 81.082031 269.925781 L 81.136719 269.855469 L 81.195312 269.785156 L 81.253906 269.71875 L 81.316406 269.65625 L 81.382812 269.597656 L 81.449219 269.542969 L 81.519531 269.488281 L 81.59375 269.433594 L 81.671875 269.386719 L 81.746094 269.339844 L 81.828125 269.292969 L 81.992188 269.214844 L 82.164062 269.144531 L 82.253906 269.117188 L 82.441406 269.0625 L 82.535156 269.039062 L 82.628906 269.019531 L 82.824219 268.988281 L 82.921875 268.976562 L 83.023438 268.964844 L 83.226562 268.957031 L 83.332031 268.953125 L 83.46875 268.957031 L 83.601562 268.960938 L 83.730469 268.96875 L 83.855469 268.980469 L 83.972656 268.996094 L 84.089844 269.015625 L 84.203125 269.039062 L 84.3125 269.066406 L 84.417969 269.097656 L 84.519531 269.128906 L 84.617188 269.164062 L 84.714844 269.203125 L 84.804688 269.242188 L 84.890625 269.285156 L 85.054688 269.378906 L 85.128906 269.429688 L 85.203125 269.484375 L 85.269531 269.539062 L 85.335938 269.597656 L 85.398438 269.65625 L 85.457031 269.71875 L 85.511719 269.785156 L 85.5625 269.851562 L 85.609375 269.917969 L 85.695312 270.058594 L 85.734375 270.132812 L 85.796875 270.289062 L 85.828125 270.371094 L 85.875 270.535156 L 85.894531 270.617188 L 85.914062 270.703125 L 85.925781 270.785156 L 85.9375 270.875 L 85.945312 270.960938 L 85.949219 271.050781 L 85.949219 271.210938 L 85.941406 271.351562 L 85.925781 271.492188 L 85.902344 271.625 L 85.886719 271.691406 L 85.871094 271.753906 L 85.851562 271.820312 L 85.828125 271.882812 L 85.808594 271.941406 L 85.78125 272.003906 L 85.753906 272.0625 L 85.722656 272.121094 L 85.691406 272.175781 L 85.621094 272.285156 L 85.582031 272.335938 L 85.496094 272.4375 L 85.453125 272.484375 L 85.351562 272.578125 L 85.300781 272.621094 L 85.246094 272.664062 L 85.1875 272.707031 L 85.128906 272.746094 L 85.066406 272.785156 L 85 272.820312 L 84.9375 272.855469 L 84.867188 272.890625 L 84.796875 272.921875 L 84.722656 272.953125 L 84.566406 273.007812 L 84.484375 273.03125 L 84.3125 273.078125 L 84.222656 273.097656 L 84.222656 273.121094 L 84.417969 273.144531 L 84.507812 273.164062 L 84.601562 273.183594 L 84.6875 273.203125 L 84.773438 273.226562 L 84.9375 273.28125 L 85.015625 273.316406 L 85.089844 273.347656 L 85.160156 273.382812 L 85.230469 273.421875 L 85.300781 273.457031 L 85.363281 273.5 L 85.425781 273.539062 L 85.484375 273.585938 L 85.542969 273.628906 L 85.597656 273.675781 L 85.699219 273.777344 L 85.746094 273.828125 L 85.832031 273.9375 L 85.871094 273.992188 L 85.941406 274.109375 L 85.976562 274.171875 L 86.03125 274.296875 L 86.101562 274.496094 L 86.117188 274.5625 L 86.136719 274.628906 L 86.160156 274.769531 L 86.175781 274.910156 L 86.179688 274.980469 Z M 86.179688 275.054688 "/>
<path fill-rule="nonzero" fill="rgb(0%, 0%, 0%)" fill-opacity="1" d="M 118.648438 274.613281 L 118.648438 273.675781 L 121.578125 273.675781 L 121.578125 274.613281 Z M 118.648438 274.613281 "/>
<path fill-rule="nonzero" fill="rgb(0%, 0%, 0%)" fill-opacity="1" d="M 123.027344 277.332031 L 123.027344 276.4375 L 125.128906 276.4375 L 125.128906 270.085938 L 123.265625 271.414062 L 123.265625 270.417969 L 125.21875 269.078125 L 126.191406 269.078125 L 126.191406 276.4375 L 128.199219 276.4375 L 128.199219 277.332031 Z M 123.027344 277.332031 "/>
<path fill-rule="nonzero" fill="rgb(0%, 0%, 0%)" fill-opacity="1" d="M 161.109375 277.332031 L 161.109375 276.4375 L 163.214844 276.4375 L 163.214844 270.085938 L 161.351562 271.414062 L 161.351562 270.417969 L 163.300781 269.078125 L 164.273438 269.078125 L 164.273438 276.4375 L 166.285156 276.4375 L 166.285156 277.332031 Z M 161.109375 277.332031 "/>
<path fill-rule="nonzero" fill="rgb(0%, 0%, 0%)" fill-opacity="1" d="M 204.425781 275.054688 L 204.425781 275.164062 L 204.417969 275.277344 L 204.410156 275.382812 L 204.398438 275.488281 L 204.359375 275.691406 L 204.335938 275.789062 L 204.308594 275.882812 L 204.277344 275.976562 L 204.238281 276.066406 L 204.203125 276.15625 L 204.160156 276.238281 L 204.066406 276.402344 L 204.015625 276.480469 L 203.957031 276.554688 L 203.898438 276.625 L 203.835938 276.695312 L 203.769531 276.757812 L 203.699219 276.824219 L 203.628906 276.882812 L 203.554688 276.9375 L 203.472656 276.992188 L 203.390625 277.042969 L 203.304688 277.09375 L 203.214844 277.136719 L 203.121094 277.179688 L 203.027344 277.21875 L 202.925781 277.257812 L 202.820312 277.292969 L 202.714844 277.320312 L 202.605469 277.347656 L 202.496094 277.371094 L 202.378906 277.394531 L 202.261719 277.410156 L 202.140625 277.425781 L 202.015625 277.4375 L 201.890625 277.445312 L 201.761719 277.449219 L 201.476562 277.449219 L 201.328125 277.441406 L 201.1875 277.433594 L 201.050781 277.421875 L 200.917969 277.402344 L 200.792969 277.382812 L 200.667969 277.359375 L 200.550781 277.328125 L 200.441406 277.296875 L 200.332031 277.261719 L 200.230469 277.222656 L 200.128906 277.179688 L 200.035156 277.136719 L 199.945312 277.089844 L 199.855469 277.039062 L 199.769531 276.988281 L 199.613281 276.878906 L 199.539062 276.820312 L 199.46875 276.757812 L 199.402344 276.695312 L 199.339844 276.628906 L 199.28125 276.5625 L 199.171875 276.421875 L 199.125 276.347656 L 199.078125 276.277344 L 199.035156 276.199219 L 198.996094 276.121094 L 198.960938 276.042969 L 198.925781 275.960938 L 198.898438 275.882812 L 198.867188 275.800781 L 198.84375 275.714844 L 198.796875 275.550781 L 198.78125 275.464844 L 198.761719 275.382812 L 198.738281 275.210938 L 199.828125 275.113281 L 199.835938 275.175781 L 199.847656 275.242188 L 199.878906 275.367188 L 199.910156 275.484375 L 199.929688 275.542969 L 199.953125 275.601562 L 199.972656 275.65625 L 199.996094 275.710938 L 200.023438 275.761719 L 200.050781 275.816406 L 200.082031 275.863281 L 200.113281 275.914062 L 200.148438 275.960938 L 200.183594 276.003906 L 200.222656 276.050781 L 200.261719 276.09375 L 200.300781 276.132812 L 200.386719 276.210938 L 200.480469 276.28125 L 200.53125 276.3125 L 200.640625 276.375 L 200.695312 276.398438 L 200.753906 276.425781 L 200.8125 276.449219 L 200.875 276.472656 L 200.941406 276.492188 L 201.007812 276.507812 L 201.148438 276.539062 L 201.222656 276.550781 L 201.296875 276.558594 L 201.375 276.566406 L 201.457031 276.574219 L 201.539062 276.574219 L 201.625 276.578125 L 201.78125 276.574219 L 201.929688 276.5625 L 202.074219 276.542969 L 202.207031 276.515625 L 202.335938 276.480469 L 202.457031 276.4375 L 202.574219 276.382812 L 202.679688 276.324219 L 202.78125 276.257812 L 202.875 276.183594 L 202.960938 276.101562 L 203.039062 276.011719 L 203.109375 275.914062 L 203.167969 275.808594 L 203.21875 275.695312 L 203.257812 275.578125 L 203.289062 275.449219 L 203.3125 275.3125 L 203.328125 275.167969 L 203.332031 275.019531 L 203.328125 274.929688 L 203.324219 274.84375 L 203.3125 274.761719 L 203.28125 274.605469 L 203.257812 274.535156 L 203.230469 274.46875 L 203.199219 274.402344 L 203.164062 274.34375 L 203.125 274.285156 L 203.085938 274.230469 L 203.042969 274.179688 L 202.996094 274.128906 L 202.902344 274.035156 L 202.847656 273.996094 L 202.796875 273.957031 L 202.742188 273.917969 L 202.683594 273.882812 L 202.621094 273.851562 L 202.5625 273.820312 L 202.4375 273.765625 L 202.375 273.742188 L 202.308594 273.71875 L 202.242188 273.699219 L 202.175781 273.683594 L 202.105469 273.667969 L 202.039062 273.652344 L 201.964844 273.640625 L 201.898438 273.632812 L 201.828125 273.621094 L 201.761719 273.613281 L 201.695312 273.609375 L 201.628906 273.601562 L 201.5625 273.597656 L 201.4375 273.589844 L 200.71875 273.589844 L 200.71875 272.675781 L 201.351562 272.675781 L 201.414062 272.671875 L 201.472656 272.667969 L 201.597656 272.660156 L 201.847656 272.628906 L 201.914062 272.617188 L 202.101562 272.570312 L 202.160156 272.550781 L 202.222656 272.527344 L 202.277344 272.503906 L 202.335938 272.480469 L 202.445312 272.425781 L 202.5 272.394531 L 202.601562 272.324219 L 202.652344 272.285156 L 202.699219 272.246094 L 202.746094 272.203125 L 202.789062 272.15625 L 202.828125 272.109375 L 202.867188 272.058594 L 202.902344 272.007812 L 202.972656 271.898438 L 203.003906 271.835938 L 203.050781 271.710938 L 203.070312 271.640625 L 203.085938 271.570312 L 203.109375 271.414062 L 203.113281 271.335938 L 203.113281 271.25 L 203.109375 271.121094 L 203.097656 270.996094 L 203.078125 270.878906 L 203.050781 270.765625 L 203.015625 270.660156 L 202.972656 270.558594 L 202.921875 270.460938 L 202.863281 270.371094 L 202.796875 270.285156 L 202.722656 270.207031 L 202.640625 270.132812 L 202.550781 270.070312 L 202.457031 270.011719 L 202.351562 269.960938 L 202.242188 269.917969 L 202.121094 269.882812 L 201.996094 269.855469 L 201.859375 269.835938 L 201.71875 269.824219 L 201.566406 269.820312 L 201.429688 269.824219 L 201.300781 269.835938 L 201.171875 269.851562 L 201.050781 269.878906 L 200.9375 269.910156 L 200.824219 269.949219 L 200.722656 269.996094 L 200.621094 270.050781 L 200.527344 270.109375 L 200.4375 270.179688 L 200.355469 270.253906 L 200.28125 270.332031 L 200.210938 270.417969 L 200.152344 270.511719 L 200.097656 270.609375 L 200.050781 270.714844 L 200.011719 270.824219 L 199.980469 270.9375 L 199.957031 271.058594 L 199.9375 271.1875 L 198.878906 271.105469 L 198.894531 270.996094 L 198.910156 270.890625 L 198.933594 270.789062 L 198.957031 270.691406 L 198.984375 270.59375 L 199.015625 270.5 L 199.050781 270.410156 L 199.089844 270.324219 L 199.132812 270.238281 L 199.175781 270.15625 L 199.226562 270.074219 L 199.328125 269.925781 L 199.382812 269.855469 L 199.441406 269.785156 L 199.503906 269.71875 L 199.566406 269.65625 L 199.632812 269.597656 L 199.699219 269.542969 L 199.769531 269.488281 L 199.84375 269.433594 L 199.917969 269.386719 L 200.074219 269.292969 L 200.15625 269.253906 L 200.242188 269.214844 L 200.414062 269.144531 L 200.59375 269.089844 L 200.6875 269.0625 L 200.78125 269.039062 L 200.878906 269.019531 L 201.074219 268.988281 L 201.171875 268.976562 L 201.273438 268.964844 L 201.578125 268.953125 L 201.714844 268.957031 L 201.847656 268.960938 L 201.976562 268.96875 L 202.101562 268.980469 L 202.222656 268.996094 L 202.339844 269.015625 L 202.453125 269.039062 L 202.5625 269.066406 L 202.667969 269.097656 L 202.769531 269.128906 L 202.867188 269.164062 L 202.960938 269.203125 L 203.050781 269.242188 L 203.136719 269.285156 L 203.222656 269.332031 L 203.300781 269.378906 L 203.378906 269.429688 L 203.519531 269.539062 L 203.644531 269.65625 L 203.703125 269.71875 L 203.757812 269.785156 L 203.859375 269.917969 L 203.902344 269.988281 L 203.941406 270.058594 L 203.980469 270.132812 L 204.015625 270.210938 L 204.046875 270.289062 L 204.101562 270.453125 L 204.125 270.535156 L 204.144531 270.617188 L 204.160156 270.703125 L 204.175781 270.785156 L 204.183594 270.875 L 204.191406 270.960938 L 204.199219 271.050781 L 204.199219 271.210938 L 204.191406 271.351562 L 204.175781 271.492188 L 204.164062 271.558594 L 204.148438 271.625 L 204.136719 271.691406 L 204.117188 271.753906 L 204.097656 271.820312 L 204.078125 271.882812 L 204.054688 271.941406 L 204.03125 272.003906 L 204 272.0625 L 203.972656 272.121094 L 203.941406 272.175781 L 203.90625 272.230469 L 203.867188 272.285156 L 203.789062 272.386719 L 203.746094 272.4375 L 203.652344 272.53125 L 203.601562 272.578125 L 203.4375 272.707031 L 203.3125 272.785156 L 203.25 272.820312 L 203.117188 272.890625 L 202.96875 272.953125 L 202.894531 272.980469 L 202.8125 273.007812 L 202.648438 273.054688 L 202.558594 273.078125 L 202.46875 273.097656 L 202.46875 273.121094 L 202.570312 273.132812 L 202.664062 273.144531 L 202.757812 273.164062 L 202.9375 273.203125 L 203.023438 273.226562 L 203.105469 273.253906 L 203.183594 273.28125 L 203.261719 273.316406 L 203.335938 273.347656 L 203.410156 273.382812 L 203.480469 273.421875 L 203.546875 273.457031 L 203.613281 273.5 L 203.675781 273.539062 L 203.734375 273.585938 L 203.792969 273.628906 L 203.84375 273.675781 L 203.898438 273.726562 L 203.992188 273.828125 L 204.039062 273.882812 L 204.078125 273.9375 L 204.121094 273.992188 L 204.191406 274.109375 L 204.253906 274.234375 L 204.28125 274.296875 L 204.328125 274.429688 L 204.367188 274.5625 L 204.382812 274.628906 L 204.398438 274.699219 L 204.40625 274.769531 L 204.417969 274.839844 L 204.425781 274.980469 Z M 204.425781 275.054688 "/>
</svg>
